<svg version="1.1" id="Layer_1" xmlns="http://www.w3.org/2000/svg" xmlns:xlink="http://www.w3.org/1999/xlink" x="0px" y="0px" viewBox="0 0 595.279 841.891" enable-background="new 0 0 595.279 841.891"
	 xml:space="preserve">
<path fill="#DC241F" d="M297.64,675.177c-68.24,0-132.396-26.573-180.648-74.827C68.738,552.096,42.163,487.94,42.163,419.7
	s26.573-132.396,74.828-180.649c48.253-48.254,112.408-74.829,180.648-74.829s132.396,26.574,180.648,74.828
	c48.253,48.254,74.827,112.409,74.827,180.649c0,68.241-26.573,132.396-74.827,180.649
	C430.035,648.604,365.88,675.177,297.64,675.177z M297.64,278.222c-78.01,0-141.477,63.466-141.477,141.477
	c0,78.01,63.466,141.477,141.477,141.477s141.477-63.467,141.477-141.477C439.115,341.689,375.651,278.222,297.64,278.222z"/>
<path id="bar" fill="none" stroke="#DC241F" stroke-width="130" d="M0,419.7H595.28"/>
</svg>
