<svg version="1.1" id="Layer_1" xmlns="http://www.w3.org/2000/svg" xmlns:xlink="http://www.w3.org/1999/xlink" x="0px" y="0px" viewBox="0 118.445 595.279 606" enable-background="new 0 118.445 595.279 606"
	 xml:space="preserve">
<path fill="#29CC96" d="M480.407,679.445H114.872c-41.757,0-75.732-33.976-75.732-75.732V238.177
	c0-41.757,33.976-75.733,75.732-75.733h365.535c41.758,0,75.732,33.976,75.732,75.733v365.536
	C556.14,645.47,522.165,679.445,480.407,679.445z"/>
<path fill="#FFFFFF" d="M327.933,603.713V238.177c0-8.365,6.782-15.146,15.146-15.146h17.462c7.404,0,13.723,5.353,14.94,12.656
	l55.537,365.536c1.539,9.232-5.58,17.637-14.94,17.637h-72.999C334.715,618.859,327.933,612.078,327.933,603.713z"/>
<g>
	<path fill="#FFFFFF" d="M267.347,603.713V238.177c0-8.365-6.781-15.146-15.146-15.146h-17.461c-7.405,0-13.723,5.353-14.941,12.656
		L164.26,601.223c-1.539,9.232,5.582,17.637,14.941,17.637H252.2C260.566,618.859,267.347,612.078,267.347,603.713z"/>
	<path fill="#FFFFFF" d="M480.407,345.212v30.293c0,8.481-6.663,15.146-15.146,15.146H130.019c-8.483,0-15.146-6.666-15.146-15.146
		v-30.293c0-8.483,6.663-15.146,15.146-15.146h335.242C473.744,330.066,480.407,336.729,480.407,345.212z"/>
</g>
<path fill="#FFFFFF" d="M480.407,345.212v30.293c0,8.481-6.663,15.146-15.146,15.146H297.64v-60.585h167.621
	C473.744,330.066,480.407,336.729,480.407,345.212z"/>
</svg>
