<svg xmlns="http://www.w3.org/2000/svg" width="841.889" height="595.281" viewBox="0 0 841.889 595.281"><path fill="#E8EDEE" d="M400.253 429.464l-61.417 55.392V595.26h164.216V484.998l-60.668-55.587c-12.49-11.329-29.229-11.698-42.131.053"/><g fill="#B0BAC1"><path d="M324.114 497.185c-8.632 7.872-21.934 7.564-30.195-.697-8.755-8.755-8.498-23.031.574-31.468l11.289-10.294-27.619-25.311c-12.49-11.331-29.23-11.7-42.121.051l-61.427 55.392v110.405H338.83V485.002l-.503-.462-14.213 12.645zM606.597 429.411c-12.491-11.331-29.23-11.699-42.132.052l-28.122 25.371 11.022 10.15c9.094 8.426 9.371 22.723.596 31.499-8.252 8.251-21.513 8.57-30.154.739l-14.256-12.819-.504.461v110.395h164.217V485.008l-60.667-55.597z"/></g><path fill="#059AAE" d="M382.595 384.714l-88.102 80.302c-9.073 8.437-9.329 22.713-.574 31.468 8.262 8.262 21.563 8.569 30.195.697l76.135-67.718c12.901-11.753 29.641-11.383 42.132-.052l75.426 67.812c8.643 7.83 21.902 7.514 30.154-.739 8.775-8.776 8.498-23.072-.596-31.499l-87.301-80.354c-21.861-20.249-55.648-20.219-77.469.083"/><path fill="#B0BAC1" d="M400.417 595.261h41.053v-61.58h-41.053z"/><g fill="#E8EDEE"><path d="M236.199 595.261h41.055v-61.58h-41.055zM564.633 595.261h41.054v-61.58h-41.054z"/></g><g fill="#1E1925"><path d="M339.052 424.399l-43.209-39.761c-21.861-20.261-55.648-20.229-77.47.071l-88.101 80.302c-9.063 8.437-9.319 22.713-.565 31.479 8.262 8.251 21.554 8.57 30.186.697l76.146-67.718c12.9-11.762 29.63-11.383 42.121-.062l27.886 25.074 33.006-30.082zM711.582 464.98l-87.302-80.342c-21.861-20.261-55.648-20.229-77.47.071l-43.538 39.689 32.875 30.257 28.327-25.187c12.891-11.762 29.63-11.383 42.121-.062l75.427 67.811c8.642 7.842 21.902 7.514 30.153-.729v-.011c8.776-8.762 8.5-23.069-.593-31.497"/></g><path fill="#D75A4A" d="M420.944.017c-62.352.011-112.898 50.508-112.898 112.857 0 26.101 9.936 49.317 23.75 69.207 11.525 16.596 22.005 32.351 32.094 48.012 20.517 31.878 39.464 64.733 57.056 98.314 17.591-33.583 36.538-66.437 57.056-98.314 10.09-15.662 20.567-31.416 32.094-48.012 13.815-19.891 23.75-43.107 23.75-69.207C533.842 50.523 483.293.027 420.944.017"/><g fill="#FFF"><path d="M472.261 174.457a10.235 10.235 0 0 1-7.256-3.007L362.369 68.815a10.25 10.25 0 0 1 0-14.513 10.25 10.25 0 0 1 14.513 0l102.636 102.636a10.251 10.251 0 0 1 0 14.512 10.237 10.237 0 0 1-7.257 3.007"/><path d="M369.626 174.457a10.237 10.237 0 0 1-7.257-3.007 10.25 10.25 0 0 1 0-14.512L465.005 54.302a10.25 10.25 0 0 1 14.513 0 10.253 10.253 0 0 1 0 14.513L376.882 171.45a10.236 10.236 0 0 1-7.256 3.007"/></g></svg>