<?xml version="1.0" standalone="no"?>
<!DOCTYPE svg PUBLIC "-//W3C//DTD SVG 1.1//EN" "http://www.w3.org/Graphics/SVG/1.1/DTD/svg11.dtd" >
<svg xmlns="http://www.w3.org/2000/svg" xmlns:xlink="http://www.w3.org/1999/xlink" version="1.1">
<metadata>
Created by FontForge 20170731 at Tue Nov  1 17:46:18 2016
 By Aleksey,,,
Copyright (c) 2016 by Galin Kastelov. All rights reserved.
</metadata>
<defs>
<font id="Intelo-Thin" horiz-adv-x="559" >
  <font-face 
    font-family="Intelo-Thin"
    font-weight="400"
    font-stretch="normal"
    units-per-em="1000"
    panose-1="0 0 4 0 0 0 0 0 0 0"
    ascent="783"
    descent="-217"
    x-height="500"
    cap-height="714"
    bbox="-200 -256 1199 961"
    underline-thickness="50"
    underline-position="-200"
    unicode-range="U+000D-25CA"
  />
<missing-glyph horiz-adv-x="130" 
 />
    <glyph glyph-name="f_f" unicode="ff" horiz-adv-x="676" 
d="M590 688q-59 0 -96 -37.5t-37 -108.5v-42h220v-35h-220v-465h-39v465h-278v-465h-39v465h-80v35h80v43q0 92 49.5 137.5t119.5 45.5q74 0 127 -46l-21 -29q-46 37 -103 37q-59 0 -96 -37.5t-37 -108.5v-42h278v43q0 92 49.5 137.5t119.5 45.5q74 0 127 -46l-21 -29
q-46 37 -103 37z" />
    <glyph glyph-name="f_f_i" unicode="ffi" horiz-adv-x="882" 
d="M423 543q0 92 49.5 137.5t119.5 45.5q74 0 127 -46l-21 -29q-46 37 -103 37q-59 0 -96 -37.5t-37 -108.5v-42h220v-35h-220v-465h-39v465h-283v-465h-39v465h-80v35h80v43q0 92 49.5 137.5t119.5 45.5q74 0 127 -46l-21 -29q-46 37 -103 37q-59 0 -96 -37.5t-37 -108.5
v-42h283v43zM783 669q17 0 27.5 -10.5t10.5 -28.5t-10.5 -29t-27.5 -11q-18 0 -28.5 11t-10.5 29t10.5 28.5t28.5 10.5zM762 0v500h40v-500h-40z" />
    <glyph glyph-name="f_f_l" unicode="ffl" horiz-adv-x="873" 
d="M427 543q0 92 49.5 137.5t119.5 45.5q74 0 127 -46l-21 -29q-46 37 -103 37q-59 0 -96 -37.5t-37 -108.5v-42h220v-35h-220v-465h-39v465h-287v-465h-39v465h-80v35h80v43q0 92 49.5 137.5t119.5 45.5q74 0 127 -46l-21 -29q-46 37 -103 37q-59 0 -96 -37.5t-37 -108.5
v-42h287v43zM758 714h39v-714h-39v714z" />
    <glyph glyph-name=".notdef" horiz-adv-x="130" 
 />
    <glyph glyph-name=".null" horiz-adv-x="0" 
 />
    <glyph glyph-name="nonmarkingreturn" horiz-adv-x="333" 
 />
    <glyph glyph-name="CR" unicode="&#xd;" horiz-adv-x="130" 
 />
    <glyph glyph-name="space" unicode=" " horiz-adv-x="213" 
 />
    <glyph glyph-name="exclam" unicode="!" horiz-adv-x="233" 
d="M100 198l-9 529h49l-9 -529h-31zM113 -5q-18 0 -28.5 11t-10.5 29t10.5 29t28.5 11t28.5 -11t10.5 -29t-10.5 -29t-28.5 -11z" />
    <glyph glyph-name="quotedbl" unicode="&#x22;" horiz-adv-x="319" 
d="M56 470l44 244h44l-55 -244h-33zM190 470l58 244h44l-69 -244h-33z" />
    <glyph glyph-name="numbersign" unicode="#" horiz-adv-x="659" 
d="M624 452h-128l-63 -191h132v-34h-143l-62 -187h-40l62 187h-191l-62 -187h-40l62 187h-117v34h128l63 191h-132v34h144l59 179h39l-59 -179h192l60 179h39l-59 -179h116v-34zM394 261l63 191h-192l-63 -191h192z" />
    <glyph glyph-name="dollar" unicode="$" horiz-adv-x="554" 
d="M519 190q0 -88 -62 -140t-156 -60v-89h-36v88q-73 1 -136 30.5t-99 82.5l29 25q35 -47 89 -72.5t117 -27.5v324q-50 15 -80 27.5t-62 33.5t-47 52.5t-15 74.5q0 85 56.5 132.5t147.5 54.5v80h36v-79q107 -2 195 -67l-22 -32q-78 59 -173 61v-307q106 -33 143 -56
q75 -47 75 -136zM102 541q0 -62 39.5 -92t123.5 -56v295q-75 -6 -119 -44t-44 -103zM301 28q79 8 128 51t49 110q0 28 -10 50.5t-24 36.5t-40.5 27t-46.5 19.5t-56 17.5v-312z" />
    <glyph glyph-name="percent" unicode="%" horiz-adv-x="840" 
d="M204 338q-76 0 -123.5 54t-46.5 140t48.5 140.5t122.5 54.5q74 0 120.5 -54.5t46.5 -140.5t-47 -140t-121 -54zM102 0l588 714h39l-583 -714h-44zM204 372q59 0 94.5 43.5t35.5 116.5t-35 116.5t-94 43.5q-60 0 -96.5 -44t-36.5 -116q-1 -73 35 -116.5t97 -43.5zM639 -13
q-76 0 -123.5 54t-46.5 140t48.5 140.5t122.5 54.5q74 0 120.5 -54.5t46.5 -140.5t-47 -140t-121 -54zM639 21q59 0 94.5 43.5t35.5 116.5t-35 116.5t-94 43.5q-60 0 -96.5 -44t-36.5 -116q-1 -73 35 -116.5t97 -43.5z" />
    <glyph glyph-name="ampersand" unicode="&#x26;" horiz-adv-x="615" 
d="M598 283q-5 -60 -30.5 -110.5t-56.5 -83.5l80 -89h-49l-58 64q-94 -76 -203 -76q-108 0 -172.5 62t-64.5 157q0 133 135 199q-53 68 -53 145q0 75 54 125.5t127 50.5q69 0 115.5 -46.5t46.5 -114.5q0 -56 -55 -114l-27 26q45 46 45 92q0 52 -36 87.5t-91 35.5
q-59 0 -100.5 -41t-41.5 -101q0 -73 63 -144l260 -290q62 67 74 166h38zM280 25q100 0 180 67l-257 286q-120 -54 -120 -173q0 -80 54.5 -130t142.5 -50z" />
    <glyph glyph-name="quotesingle" unicode="'" horiz-adv-x="180" 
d="M56 470l44 244h44l-55 -244h-33z" />
    <glyph glyph-name="parenleft" unicode="(" horiz-adv-x="331" 
d="M304 -167q-45 19 -88.5 58.5t-83 99t-63.5 148.5t-24 191q0 104 24.5 193.5t64.5 149.5t83 98.5t87 57.5l14 -34q-42 -21 -81.5 -59.5t-74.5 -94.5t-56 -137t-21 -174q0 -178 69.5 -297.5t163.5 -165.5z" />
    <glyph glyph-name="parenright" unicode=")" horiz-adv-x="331" 
d="M27 -167l-14 34q94 46 163.5 165.5t69.5 297.5q0 93 -21 174t-56 137t-74.5 94.5t-81.5 59.5l14 34q44 -19 87 -57.5t83 -98.5t64.5 -149.5t24.5 -193.5q0 -102 -24 -191t-63.5 -148.5t-83 -99t-88.5 -58.5z" />
    <glyph glyph-name="asterisk" unicode="*" horiz-adv-x="379" 
d="M93 445l-23 22l93 101l-121 53l15 29l117 -55v131h32v-131l117 55l13 -29l-119 -53l91 -100l-24 -23l-94 106z" />
    <glyph glyph-name="plus" unicode="+" horiz-adv-x="458" 
d="M416 321v-35h-169v-169h-35v169h-170v35h170v170h35v-170h169z" />
    <glyph glyph-name="comma" unicode="," horiz-adv-x="191" 
d="M93 73q20 0 32.5 -15.5t12.5 -39.5q0 -34 -24.5 -70.5t-61.5 -56.5l-14 24q54 35 68 83q-7 -4 -16 -4q-18 0 -28 11t-10 28t11.5 28.5t29.5 11.5z" />
    <glyph glyph-name="hyphen" unicode="-" horiz-adv-x="506" 
d="M66 314h374v-35h-374v35z" />
    <glyph glyph-name="period" unicode="." horiz-adv-x="186" 
d="M93 -5q-18 0 -28.5 11t-10.5 29t10.5 29t28.5 11t28.5 -11t10.5 -29t-10.5 -29t-28.5 -11z" />
    <glyph glyph-name="slash" unicode="/" horiz-adv-x="497" 
d="M61 0h-41l417 714h41z" />
    <glyph glyph-name="zero" unicode="0" horiz-adv-x="614" 
d="M307 -11q-124 0 -188 98.5t-64 269.5t64.5 270.5t187.5 99.5t187.5 -99.5t64.5 -270.5t-64 -269.5t-188 -98.5zM307 27q103 0 157.5 86t54.5 244q0 159 -54.5 245.5t-157.5 86.5t-157.5 -86.5t-54.5 -245.5q0 -158 54.5 -244t157.5 -86z" />
    <glyph glyph-name="one" unicode="1" horiz-adv-x="343" 
d="M231 726q20 0 20 -16v-710h-40v675l-183 -131l-22 31l196 139q18 12 29 12z" />
    <glyph glyph-name="two" unicode="2" horiz-adv-x="532" 
d="M96 39h384v-39h-425q0 87 12.5 136t50.5 95q28 34 72 67.5t94 67.5t72 52q41 34 57.5 64t16.5 66q0 61 -44 101t-116 40q-62 0 -111.5 -34.5t-75.5 -92.5l-35 18q30 66 87 106.5t136 40.5q94 0 147 -52t53 -126q0 -90 -87 -160q-11 -9 -105 -74.5t-131 -112.5
q-28 -34 -39 -67.5t-13 -95.5z" />
    <glyph glyph-name="three" unicode="3" horiz-adv-x="558" 
d="M367 368q63 -17 99.5 -65.5t36.5 -112.5q0 -90 -68 -145.5t-170 -55.5q-164 0 -231 138l35 19q57 -118 198 -118q86 0 141 47t55 117q0 66 -47 110.5t-122 44.5h-119v38h112q67 0 116 47t49 110q0 61 -48 103.5t-128 42.5q-129 0 -195 -114l-33 21q32 56 90 94t140 38
q102 0 158 -57t56 -132q0 -56 -34 -101t-91 -69z" />
    <glyph glyph-name="four" unicode="4" horiz-adv-x="548" 
d="M505 225v-38h-78v-187h-39v187h-350q-10 0 -17 8.5t-7 19.5q0 12 8 22l354 472q9 11 27 11q24 0 24 -19v-476h78zM59 225h329v440z" />
    <glyph glyph-name="five" unicode="5" horiz-adv-x="535" 
d="M273 428q102 0 162 -59.5t60 -158.5q0 -102 -64 -162.5t-168 -60.5q-153 0 -217 127l32 21q61 -109 185 -109q88 0 140 50.5t52 134.5q0 81 -50.5 130.5t-134.5 49.5q-93 0 -165 -62l-31 14v338q0 33 32 33h346v-39h-340v-298q67 51 161 51z" />
    <glyph glyph-name="six" unicode="6" horiz-adv-x="565" 
d="M299 437q101 0 161.5 -61t60.5 -158q0 -93 -60.5 -162.5t-166.5 -69.5q-122 0 -181.5 95.5t-59.5 243.5q0 108 30.5 197.5t96 147t156.5 57.5q103 0 166 -74l-29 -26q-54 60 -139 60q-107 0 -171 -93.5t-69 -243.5q90 87 205 87zM295 25q83 0 134.5 55t51.5 138
q0 82 -49 131.5t-136 49.5q-109 0 -202 -96q5 -130 56 -204t145 -74z" />
    <glyph glyph-name="seven" unicode="7" horiz-adv-x="450" 
d="M411 714q15 0 20.5 -13t-2.5 -31l-292 -670h-45l298 675h-369v39h390z" />
    <glyph glyph-name="eight" unicode="8" horiz-adv-x="586" 
d="M377 371q76 -21 118 -71t42 -114q0 -84 -69 -141t-175 -57t-175 57t-69 141q0 64 42 114t118 71q-65 22 -99 67.5t-34 102.5q0 78 61.5 131.5t155.5 53.5t155.5 -53.5t61.5 -131.5q0 -57 -33.5 -102t-99.5 -68zM116 540q0 -60 46 -105t131 -45t131 45t46 105
q0 61 -48 104.5t-129 43.5q-80 0 -128.5 -43.5t-48.5 -104.5zM293 26q93 0 148 47.5t55 115.5t-56 115.5t-147 47.5q-90 0 -146.5 -47.5t-56.5 -115.5t55 -115.5t148 -47.5z" />
    <glyph glyph-name="nine" unicode="9" horiz-adv-x="560" 
d="M270 727q119 -1 177 -94.5t58 -240.5q0 -82 -14 -151t-44 -128t-85 -93t-131 -34q-90 0 -159 47l21 34q61 -41 137 -41q113 0 170 90t62 243q-101 -83 -205 -83q-96 0 -156.5 61.5t-60.5 156.5t62 164.5t168 68.5zM80 496q0 -81 48.5 -131.5t130.5 -50.5q95 0 204 90
q-2 132 -51 208t-143 76q-84 0 -136.5 -54.5t-52.5 -137.5z" />
    <glyph glyph-name="colon" unicode=":" horiz-adv-x="218" 
d="M105 348q-18 0 -28.5 11t-10.5 29t10.5 29t28.5 11t28.5 -11t10.5 -29t-10.5 -29t-28.5 -11zM105 -5q-18 0 -28.5 11t-10.5 29t10.5 29t28.5 11t28.5 -11t10.5 -29t-10.5 -29t-28.5 -11z" />
    <glyph glyph-name="semicolon" unicode=";" horiz-adv-x="235" 
d="M116 348q-18 0 -28.5 11t-10.5 29t10.5 29t28.5 11t28.5 -11t10.5 -29t-10.5 -29t-28.5 -11zM118 73q20 0 32.5 -15.5t12.5 -39.5q0 -34 -24.5 -70.5t-61.5 -56.5l-14 24q54 35 68 83q-7 -4 -16 -4q-18 0 -28 11t-10 28t11.5 28.5t29.5 11.5z" />
    <glyph glyph-name="less" unicode="&#x3c;" horiz-adv-x="426" 
d="M354 136l-311 188q-13 9 -12.5 21.5t12.5 20.5l311 188l15 -33l-289 -175l289 -177z" />
    <glyph glyph-name="equal" unicode="=" horiz-adv-x="512" 
d="M69 414h374v-35h-374v35zM69 214h374v-35h-374v35z" />
    <glyph glyph-name="greater" unicode="&#x3e;" horiz-adv-x="426" 
d="M72 134l-16 33l292 179l-292 177l16 33l312 -190q12 -8 12.5 -20.5t-12.5 -21.5z" />
    <glyph glyph-name="question" unicode="?" horiz-adv-x="483" 
d="M191 142q-4 20 -4 44q0 38 22.5 75.5t54.5 69t63.5 63.5t54 71t22.5 79q0 63 -46 104t-115 41q-58 0 -106.5 -32t-76.5 -90l-34 19q30 65 88 103t130 38q87 0 144 -52t57 -132q0 -46 -22.5 -89t-54.5 -75.5t-64 -63t-54.5 -64t-22.5 -65.5q0 -21 4 -44h-40zM212 -6
q-17 0 -27.5 10.5t-10.5 28.5t10.5 28.5t27.5 10.5q18 0 28.5 -10.5t10.5 -28.5t-10.5 -28.5t-28.5 -10.5z" />
    <glyph glyph-name="at" unicode="@" horiz-adv-x="935" 
d="M456 -145q93 0 188 36.5t149 92.5l25 -25q-54 -58 -157.5 -99t-207.5 -41q-175 0 -291 116.5t-116 291.5q0 193 137 330.5t326 137.5q166 0 280 -105.5t114 -256.5q0 -118 -67.5 -201.5t-164.5 -83.5q-49 0 -78.5 22.5t-33.5 64.5q-28 -42 -71 -64.5t-86 -22.5
q-66 0 -105.5 45t-39.5 123q0 110 74.5 189.5t179.5 79.5q50 0 93 -21t60 -46l-47 -161q-24 -77 -24 -108q0 -32 21 -49.5t59 -17.5q80 0 136.5 73t56.5 177q0 140 -104 233t-252 93q-174 0 -300 -126.5t-126 -303.5q0 -161 105.5 -267t266.5 -106zM583 266l44 141
q-47 43 -116 43q-89 0 -153 -68.5t-64 -164.5q0 -63 30 -98.5t82 -35.5q72 0 112 49.5t65 133.5z" />
    <glyph glyph-name="A" unicode="A" horiz-adv-x="636" 
d="M579 0l-96 250h-330l-96 -250h-46l271 690q11 25 36 25t35 -26l272 -689h-46zM167 286h302l-151 392z" />
    <glyph glyph-name="B" unicode="B" horiz-adv-x="637" 
d="M93 0v684q0 30 30 30h234q92 0 143.5 -46t51.5 -126q0 -56 -25.5 -97.5t-72.5 -56.5v-1q60 -12 99 -62t39 -121q0 -91 -55 -147.5t-155 -56.5h-289zM134 403h243q71 0 102.5 40.5t31.5 94.5q0 66 -40 101.5t-116 35.5h-221v-272zM134 39h240q84 0 130.5 45.5t46.5 119.5
q0 70 -44 116t-128 46h-245v-327z" />
    <glyph glyph-name="C" unicode="C" horiz-adv-x="690" 
d="M378 -11q-139 0 -233 94t-94 272q0 171 91 271.5t243 100.5q89 0 161 -40.5t110 -114.5l-35 -20q-35 66 -97.5 102t-138.5 36q-135 0 -213.5 -90t-78.5 -244q0 -151 80 -240t206 -89q76 0 144 35t114 92l28 -26q-51 -65 -127 -102t-160 -37z" />
    <glyph glyph-name="D" unicode="D" horiz-adv-x="709" 
d="M93 0v685q0 14 8 21.5t21 7.5h209q145 0 237 -101.5t92 -252.5q0 -157 -93.5 -258.5t-236.5 -101.5h-237zM134 39h194q126 0 208 89t82 232q0 138 -81.5 226.5t-206.5 88.5h-196v-636z" />
    <glyph glyph-name="E" unicode="E" horiz-adv-x="569" 
d="M517 675h-383v-292h352v-39h-352v-305h377v-39h-418v685q0 14 8 21.5t21 7.5h395v-39z" />
    <glyph glyph-name="F" unicode="F" horiz-adv-x="534" 
d="M506 675h-372v-292h337v-39h-337v-344h-41v685q0 14 8 21.5t21 7.5h384v-39z" />
    <glyph glyph-name="G" unicode="G" horiz-adv-x="738" 
d="M376 -11q-149 0 -237.5 99.5t-88.5 263.5q0 169 95 272t248 103q102 0 172.5 -46.5t99.5 -115.5l-37 -17q-26 65 -89.5 103t-146.5 38q-136 0 -218 -91.5t-82 -244.5q0 -148 78.5 -237t204.5 -89q121 0 199.5 83t79.5 214h-261v38h302v-35q0 -156 -93 -247t-226 -91z" />
    <glyph glyph-name="H" unicode="H" horiz-adv-x="699" 
d="M93 0v714h41v-329h431v329h41v-714h-41v346h-431v-346h-41z" />
    <glyph glyph-name="I" unicode="I" horiz-adv-x="227" 
d="M93 0v714h41v-714h-41z" />
    <glyph glyph-name="J" unicode="J" horiz-adv-x="480" 
d="M193 -11q-65 0 -111 29.5t-68 76.5l31 21q48 -89 149 -89q76 0 117.5 49t41.5 135v503h40v-509q0 -99 -53.5 -157.5t-146.5 -58.5z" />
    <glyph glyph-name="K" unicode="K" horiz-adv-x="557" 
d="M563 0h-59l-370 329v-329h-41v714h41v-358l350 358h52l-359 -369z" />
    <glyph glyph-name="L" unicode="L" horiz-adv-x="533" 
d="M120 0q-28 0 -28 29v685h41v-675h378v-39h-391z" />
    <glyph glyph-name="M" unicode="M" horiz-adv-x="848" 
d="M731 719q24 0 24 -19v-700h-40v648l-277 -495h-28l-277 494v-647h-40v700q0 19 25 19q18 0 29 -21l277 -492l278 492q11 21 29 21z" />
    <glyph glyph-name="N" unicode="N" horiz-adv-x="723" 
d="M590 714h39v-701q0 -18 -22 -18q-18 0 -30 16l-445 640v-651h-39v700q0 8 6.5 13.5t16.5 5.5q18 0 32 -19l442 -633v647z" />
    <glyph glyph-name="O" unicode="O" horiz-adv-x="761" 
d="M382 -11q-149 0 -240.5 101.5t-91.5 266.5q0 166 91.5 268t240.5 102q147 0 238 -102t91 -268q0 -165 -91 -266.5t-238 -101.5zM382 28q129 0 208 89.5t79 239.5q0 151 -79 241t-208 90q-130 0 -210 -90.5t-80 -240.5t80 -239.5t210 -89.5z" />
    <glyph glyph-name="P" unicode="P" horiz-adv-x="568" 
d="M301 714q115 0 174 -58t59 -159q0 -109 -61 -166t-175 -57h-164v-274h-41v685q0 29 27 29h181zM299 313q193 0 193 185q0 177 -193 177h-165v-362h165z" />
    <glyph glyph-name="Q" unicode="Q" horiz-adv-x="761" 
d="M572 -113q42 0 83 11l7 -38q-51 -12 -90 -12q-162 0 -233 143q-131 15 -210 114t-79 252q0 166 91.5 268t240.5 102q147 0 238 -102t91 -268q0 -164 -89 -265t-234 -103q26 -50 74.5 -76t109.5 -26zM92 357q0 -150 80 -239.5t210 -89.5q129 0 208 89.5t79 239.5
q0 151 -79 241t-208 90q-130 0 -210 -90.5t-80 -240.5z" />
    <glyph glyph-name="R" unicode="R" horiz-adv-x="579" 
d="M483 0l-203 306h-146v-306h-41v685q0 29 27 29h192q108 0 164.5 -54t56.5 -154q0 -89 -54 -141t-151 -58l207 -307h-52zM134 675v-331h168q92 0 140.5 42t48.5 122q0 81 -46 124t-136 43h-175z" />
    <glyph glyph-name="S" unicode="S" horiz-adv-x="551" 
d="M269 -11q-73 0 -136 30t-99 83l29 25q35 -48 89.5 -74t117.5 -26q89 0 145 44t56 118q0 79 -78 118q-27 13 -122 42q-51 16 -81 28.5t-62.5 34.5t-47.5 53.5t-15 74.5q0 92 64 139.5t164 47.5q108 0 198 -67l-23 -31q-79 60 -176 60q-86 0 -136.5 -38t-50.5 -110
q0 -28 10.5 -50.5t23.5 -36.5t42.5 -28.5t49 -21.5t60.5 -20q6 -2 19 -6q40 -12 60 -19.5t52 -24t48.5 -33.5t29 -46t12.5 -65q0 -96 -70.5 -148.5t-172.5 -52.5z" />
    <glyph glyph-name="T" unicode="T" horiz-adv-x="550" 
d="M529 714v-39h-234v-675h-41v675h-233v39h508z" />
    <glyph glyph-name="U" unicode="U" horiz-adv-x="676" 
d="M337 -11q-119 0 -185 66.5t-66 184.5v474h41v-472q0 -102 54 -158t156 -56t157 56t55 158v472h41v-474q0 -118 -66.5 -184.5t-186.5 -66.5z" />
    <glyph glyph-name="V" unicode="V" horiz-adv-x="625" 
d="M559 714h46l-255 -698q-9 -27 -37 -27t-37 27l-256 698h47l246 -676z" />
    <glyph glyph-name="W" unicode="W" horiz-adv-x="903" 
d="M836 714h43l-192 -704q-5 -21 -33 -21q-27 0 -32 21l-170 531l-170 -531q-7 -21 -33 -21q-27 0 -32 21l-191 704h44l180 -679l182 566h40l183 -564z" />
    <glyph glyph-name="X" unicode="X" horiz-adv-x="558" 
d="M551 0h-49l-224 330l-221 -330h-47l245 364l-230 350h47l207 -317l210 317h47l-232 -351z" />
    <glyph glyph-name="Y" unicode="Y" horiz-adv-x="571" 
d="M554 714l-247 -417v-297h-41v296l-248 418h47l221 -376l222 375z" />
    <glyph glyph-name="Z" unicode="Z" horiz-adv-x="543" 
d="M48 0q-15 0 -20.5 16.5t4.5 31.5l416 627h-400v39h425q15 0 21 -16t-4 -32l-417 -627h431v-39h-456z" />
    <glyph glyph-name="bracketleft" unicode="[" horiz-adv-x="344" 
d="M88 -179v998h234v-38h-194v-922h194v-38h-234z" />
    <glyph glyph-name="backslash" unicode="\" horiz-adv-x="503" 
d="M436 0l-417 714h41l417 -714h-41z" />
    <glyph glyph-name="bracketright" unicode="]" horiz-adv-x="344" 
d="M22 -179v38h194v922h-194v38h234v-998h-234z" />
    <glyph glyph-name="asciicircum" unicode="^" horiz-adv-x="539" 
d="M66 361l-34 19l208 337q11 19 29.5 19t30.5 -19l207 -337l-34 -19l-203 330z" />
    <glyph glyph-name="underscore" unicode="_" horiz-adv-x="466" 
d="M0 -92v35h466v-35h-466z" />
    <glyph glyph-name="grave" unicode="`" horiz-adv-x="420" 
d="M303 579l-18 -23l-168 135l27 33z" />
    <glyph glyph-name="a" unicode="a" horiz-adv-x="512" 
d="M248 513q92 0 143.5 -51t51.5 -150v-312h-39v113q-25 -58 -75 -91.5t-119 -33.5q-76 0 -123.5 43t-47.5 111q0 82 64 121t178 39q63 0 123 -9v21q0 82 -40.5 122.5t-116.5 40.5q-87 0 -161 -58l-23 29q79 65 185 65zM213 22q87 0 139 59t52 157v22q-58 9 -121 9
q-204 0 -204 -127q0 -54 36.5 -87t97.5 -33z" />
    <glyph glyph-name="b" unicode="b" horiz-adv-x="554" 
d="M304 513q95 0 150.5 -69t55.5 -183q0 -125 -64.5 -199t-184.5 -74q-109 0 -189 61v665h40v-299q83 98 192 98zM260 26q100 0 155 62t55 175q0 99 -45 156t-125 57q-107 0 -188 -110v-296q63 -44 148 -44z" />
    <glyph glyph-name="c" unicode="c" horiz-adv-x="521" 
d="M282 -13q-107 0 -172.5 73t-65.5 190q0 118 65 190.5t176 72.5q143 0 200 -112l-33 -19q-51 95 -166 95q-92 0 -146.5 -60.5t-54.5 -165.5q0 -106 54.5 -167t142.5 -61q118 0 178 105l32 -20q-26 -49 -79.5 -85t-130.5 -36z" />
    <glyph glyph-name="d" unicode="d" horiz-adv-x="553" 
d="M438 714h40v-714h-40v84q-76 -97 -184 -97q-94 0 -151.5 70t-57.5 184q0 122 61 197t162 75q110 0 170 -86v287zM257 24q110 0 181 106v243q-28 52 -73 77.5t-97 25.5q-85 0 -134 -63t-49 -171q0 -100 47 -159t125 -59z" />
    <glyph glyph-name="e" unicode="e" horiz-adv-x="524" 
d="M275 26q102 0 178 71l24 -29q-88 -79 -203 -79q-93 0 -161.5 67t-68.5 186q0 117 67.5 194t184.5 77q78 0 132.5 -42.5t54.5 -117.5q0 -59 -39.5 -93t-102.5 -34h-257q5 -90 58.5 -145t132.5 -55zM292 478q-89 0 -146.5 -58.5t-62.5 -159.5h255q46 0 76 25t30 70
q0 56 -43.5 89.5t-108.5 33.5z" />
    <glyph glyph-name="f" unicode="f" horiz-adv-x="359" 
d="M273 688q-59 0 -96 -37.5t-37 -108.5v-42h220v-35h-220v-465h-39v465h-80v35h80v43q0 92 49.5 137.5t119.5 45.5q74 0 127 -46l-21 -29q-46 37 -103 37z" />
    <glyph glyph-name="g" unicode="g" horiz-adv-x="517" 
d="M407 46q79 -29 79 -105q0 -75 -64.5 -108.5t-168.5 -33.5q-97 0 -160.5 33.5t-63.5 103.5q0 85 90 129q-40 23 -40 69q0 50 51 76q-71 43 -71 132q0 77 54 121.5t146 44.5q77 0 127 -32q52 23 86 61l23 -26q-29 -35 -79 -59q41 -43 41 -109q0 -76 -54 -120t-146 -44
q-54 0 -97 16q-43 -15 -43 -56q0 -13 4 -22.5t16 -16.5t20.5 -11.5t30 -8t31 -5t37.5 -4.5q14 -2 43 -5.5t43 -5t33 -5.5t32 -9zM97 342q0 -61 42 -95t118 -34t119 34.5t43 95.5t-43 96t-118 35q-76 0 -118.5 -35t-42.5 -97zM253 -165q193 0 193 105q0 22 -10 37.5t-23 24.5
t-40.5 16t-46 9.5t-55.5 6.5q-6 1 -9 1q-78 9 -105 16q-41 -15 -65 -46t-24 -65q0 -55 53 -80t132 -25z" />
    <glyph glyph-name="h" unicode="h" horiz-adv-x="556" 
d="M334 513q74 0 112.5 -40.5t38.5 -115.5v-357h-39v352q0 123 -115 123q-101 0 -216 -107v-368h-40v714h40v-305q113 104 219 104z" />
    <glyph glyph-name="i" unicode="i" horiz-adv-x="200" 
d="M100 590q-18 0 -28.5 11t-10.5 29t10.5 28.5t28.5 10.5q17 0 27.5 -10.5t10.5 -28.5t-10.5 -29t-27.5 -11zM79 0v500h40v-500h-40z" />
    <glyph glyph-name="j" unicode="j" horiz-adv-x="228" 
d="M128 590q-18 0 -28.5 11t-10.5 29t10.5 28.5t28.5 10.5q17 0 27.5 -10.5t10.5 -28.5t-10.5 -29t-27.5 -11zM16 -195q-33 0 -63 11l10 36q27 -10 51 -10q44 0 68.5 27t24.5 74v557h40v-557q0 -65 -36 -101.5t-95 -36.5z" />
    <glyph glyph-name="k" unicode="k" horiz-adv-x="434" 
d="M436 0h-53l-270 259v-259h-39v714h39v-438l257 224h51l-267 -232z" />
    <glyph glyph-name="l" unicode="l" horiz-adv-x="189" 
d="M74 0v714h39v-714h-39z" />
    <glyph glyph-name="m" unicode="m" horiz-adv-x="892" 
d="M672 513q72 0 110.5 -40.5t38.5 -115.5v-357h-39v345q0 132 -114 132q-97 0 -198 -98q1 -7 1 -21v-358h-39v352q0 125 -114 125q-97 0 -203 -99v-378h-40v500h39v-84q100 97 207 97q116 0 143 -98q101 98 208 98z" />
    <glyph glyph-name="n" unicode="n" horiz-adv-x="564" 
d="M341 513q75 0 113.5 -40.5t38.5 -115.5v-357h-40v352q0 123 -115 123q-107 0 -223 -107v-368h-40v500h39v-92q116 105 227 105z" />
    <glyph glyph-name="o" unicode="o" horiz-adv-x="557" 
d="M279 -13q-107 0 -171.5 72.5t-63.5 190.5q1 120 66 191.5t169 71.5q106 0 170 -72t64 -191t-64 -191t-170 -72zM279 23q89 0 141.5 61t52.5 166q0 104 -52.5 165.5t-141.5 61.5q-88 0 -141.5 -61t-53.5 -166q-1 -104 52 -165.5t143 -61.5z" />
    <glyph glyph-name="p" unicode="p" horiz-adv-x="556" 
d="M301 513q96 0 153 -70.5t57 -184.5q0 -118 -62 -194.5t-169 -76.5q-86 0 -166 53v-226h-39v686h39v-82q76 95 187 95zM280 24q89 0 140.5 65.5t51.5 168.5q0 101 -47 159.5t-127 58.5q-113 0 -184 -110v-284q75 -58 166 -58z" />
    <glyph glyph-name="q" unicode="q" horiz-adv-x="555" 
d="M297 513q103 0 186 -61v-638h-40v266q-80 -93 -190 -93q-96 0 -152.5 69.5t-56.5 185.5q0 122 66 196.5t187 74.5zM258 24q108 0 185 105v303q-65 44 -146 44q-101 0 -157 -63.5t-56 -172.5q0 -101 46 -158.5t128 -57.5z" />
    <glyph glyph-name="r" unicode="r" horiz-adv-x="358" 
d="M286 513q38 0 65 -11l-9 -36q-24 9 -58 9q-103 0 -170 -96v-379h-39v500h39v-73q30 40 75.5 63t96.5 23z" />
    <glyph glyph-name="s" unicode="s" horiz-adv-x="449" 
d="M219 -11q-124 0 -191 79l24 26q63 -69 168 -69q68 0 110.5 28.5t42.5 80.5q0 43 -32.5 62t-123.5 44q-31 9 -49.5 15t-42.5 18t-37 24.5t-22.5 33t-9.5 45.5q0 66 52 101.5t128 35.5q96 0 165 -54l-20 -29q-63 48 -145 48q-65 0 -103 -27.5t-38 -73.5q0 -40 32 -61.5
t105 -41.5q33 -9 42.5 -12t36 -11.5t35 -14t25.5 -17t23 -22.5t11.5 -27.5t5.5 -36.5q0 -70 -55.5 -107t-136.5 -37z" />
    <glyph glyph-name="t" unicode="t" horiz-adv-x="386" 
d="M363 67l17 -32q-59 -44 -132 -44q-76 0 -113 46t-37 126v302h-80v35h80v155h39v-155h218v-35h-218v-303q0 -133 114 -133q58 0 112 38z" />
    <glyph glyph-name="u" unicode="u" 
d="M444 500h40v-501h-40v88q-112 -100 -225 -100q-148 0 -148 156v357h39v-353q0 -62 27 -92t86 -30q108 0 221 101v374z" />
    <glyph glyph-name="v" unicode="v" horiz-adv-x="500" 
d="M441 500h44l-202 -482q-10 -24 -33 -24t-33 24l-203 482h45l192 -467z" />
    <glyph glyph-name="w" unicode="w" horiz-adv-x="736" 
d="M674 500h42l-149 -482q-9 -24 -31 -24q-23 0 -32 24l-135 437l-135 -437q-11 -24 -32 -24q-23 0 -32 24l-149 482h43l139 -462l144 462h43l146 -460z" />
    <glyph glyph-name="x" unicode="x" horiz-adv-x="457" 
d="M445 0h-50l-169 228l-165 -228h-49l191 256l-178 244h48l156 -216l157 216h47l-181 -244z" />
    <glyph glyph-name="y" unicode="y" horiz-adv-x="492" 
d="M437 500h43l-238 -584q-48 -116 -141 -116q-59 0 -96 37l19 28q34 -29 76 -29q72 0 109 95l20 54l-207 515h41l186 -469z" />
    <glyph glyph-name="z" unicode="z" horiz-adv-x="451" 
d="M54 0q-18 0 -23 17t5 28l330 420h-319v35h337q19 0 24.5 -16.5t-5.5 -29.5l-327 -419h336v-35h-358z" />
    <glyph glyph-name="braceleft" unicode="{" horiz-adv-x="334" 
d="M309 -176q-193 3 -193 238v91q0 80 -21 113.5t-77 49.5v31q57 15 77.5 48.5t20.5 113.5v91q0 223 193 238v-37q-154 -13 -154 -202v-103q0 -138 -90 -164q90 -24 90 -166v-103q0 -99 37 -149.5t117 -52.5v-37z" />
    <glyph glyph-name="bar" unicode="|" horiz-adv-x="212" 
d="M125 -114h-38v965h38v-965z" />
    <glyph glyph-name="braceright" unicode="}" horiz-adv-x="334" 
d="M25 -176v37q80 2 117 52.5t37 149.5v103q0 142 90 166q-90 26 -90 164v103q0 189 -154 202v37q193 -15 193 -238v-91q0 -80 20.5 -113.5t77.5 -48.5v-31q-56 -16 -77 -49.5t-21 -113.5v-91q0 -235 -193 -238z" />
    <glyph glyph-name="asciitilde" unicode="~" horiz-adv-x="597" 
d="M403 244q-37 0 -74 26t-71 51.5t-64 25.5q-35 0 -60.5 -26.5t-32.5 -67.5l-32 7q10 58 46 90t80 32q29 0 59 -16t50.5 -35.5t48 -35.5t52.5 -16q36 0 60.5 26.5t30.5 70.5l32 -6q-7 -61 -44 -93.5t-81 -32.5z" />
    <glyph glyph-name="exclamdown" unicode="&#xa1;" horiz-adv-x="221" 
d="M107 516q18 0 28.5 -11t10.5 -29t-10.5 -29t-28.5 -11t-28.5 11t-10.5 29t10.5 29t28.5 11zM94 313h31l9 -529h-49z" />
    <glyph glyph-name="cent" unicode="&#xa2;" horiz-adv-x="529" 
d="M495 108q-25 -47 -76.5 -83t-125.5 -38v-89h-36v90q-96 10 -153 81.5t-57 180.5t56.5 180t153.5 81v90h36v-88q139 -2 195 -112l-33 -19q-50 93 -162 95v-454q112 5 170 105zM88 251q0 -97 46 -157t123 -69v450q-78 -11 -123.5 -70t-45.5 -154z" />
    <glyph glyph-name="sterling" unicode="&#xa3;" horiz-adv-x="551" 
d="M146 217q0 -38 -1 -58.5t-11 -56t-30 -65.5h409v-37h-444l-13 32q19 26 30.5 49.5t15.5 52.5t4.5 38.5t0.5 43.5v148h-57v36h57v38q0 139 61.5 214t167.5 75q116 0 179 -90l-29 -23q-55 76 -149 76q-95 0 -143 -67.5t-48 -184.5v-38h295v-36h-295v-147z" />
    <glyph glyph-name="currency" unicode="&#xa4;" horiz-adv-x="560" 
d="M511 106l-24 -23l-83 83q-48 -39 -123 -39q-77 0 -125 40l-81 -83l-25 23l82 85q-36 48 -35 118q0 71 37 117l-82 83l24 24l82 -82q48 40 124 40q74 0 122 -39l81 81l25 -23l-82 -83q36 -49 36 -118q0 -72 -36 -119zM134 310q-1 -70 37.5 -109.5t109.5 -39.5
q70 0 108.5 39t38.5 110q0 70 -38 108.5t-108 38.5t-109 -38.5t-39 -108.5z" />
    <glyph glyph-name="yen" unicode="&#xa5;" horiz-adv-x="585" 
d="M560 714l-232 -392h151v-34h-166v-92h166v-34h-166v-162h-41v162h-166v34h166v92h-166v34h150l-232 392h47l221 -376l222 375z" />
    <glyph glyph-name="brokenbar" unicode="&#xa6;" horiz-adv-x="212" 
d="M87 463v388h38v-388h-38zM125 274v-388h-38v388h38z" />
    <glyph glyph-name="section" unicode="&#xa7;" horiz-adv-x="590" 
d="M551 155q0 -71 -48 -119q20 -34 20 -83q0 -96 -73.5 -152.5t-178.5 -56.5q-75 0 -139.5 30t-100.5 83l29 25q36 -48 92 -74t121 -26q92 0 150.5 47.5t58.5 123.5q0 20 -5 37t-12 29.5t-21.5 24.5t-25.5 19t-32 16t-34 14t-38.5 13.5t-38.5 13.5q-48 17 -80.5 33t-67 41
t-52 59.5t-17.5 78.5q0 73 48 118q-20 34 -20 82q0 93 67 144t169 51q112 0 202 -67l-23 -32q-79 61 -180 61q-88 0 -141.5 -41.5t-53.5 -114.5q0 -28 10 -50t23 -36.5t42 -30t51 -24t66 -24.5q45 -16 72 -27t62 -30.5t53.5 -39.5t32 -50t13.5 -66zM294 156q7 -2 29.5 -10
t30.5 -11t27 -10.5t29 -12.5t24 -12.5t24.5 -15.5t19.5 -17q32 35 32 86q0 36 -14 63t-47.5 48t-63 34t-87.5 34q-126 46 -168 87q-32 -32 -32 -85q0 -59 45.5 -100t150.5 -78z" />
    <glyph glyph-name="dieresis" unicode="&#xa8;" horiz-adv-x="410" 
d="M125 571q-17 0 -27.5 10.5t-10.5 28.5t10.5 28.5t27.5 10.5t27.5 -10.5t10.5 -28.5t-10.5 -28.5t-27.5 -10.5zM286 571q-18 0 -28.5 10.5t-10.5 28.5t10.5 28.5t28.5 10.5q17 0 27.5 -10.5t10.5 -28.5t-10.5 -28.5t-27.5 -10.5z" />
    <glyph glyph-name="copyright" unicode="&#xa9;" horiz-adv-x="834" 
d="M417 -16q-157 0 -263.5 106t-106.5 264t106 264t264 106t264 -106t106 -264t-106.5 -264t-263.5 -106zM417 17q144 0 240.5 96.5t96.5 240.5t-96.5 240.5t-240.5 96.5t-240.5 -96.5t-96.5 -240.5t96.5 -240.5t240.5 -96.5zM417 169q-80 0 -129.5 56t-49.5 138t50.5 138
t131.5 56q116 0 158 -97l-31 -14q-35 77 -127 77q-65 0 -105.5 -45t-40.5 -115t40 -115t103 -45q90 0 134 71l28 -20q-20 -36 -63.5 -60.5t-98.5 -24.5z" />
    <glyph glyph-name="ordfeminine" unicode="&#xaa;" horiz-adv-x="406" 
d="M201 713q65 0 102 -37t37 -107v-212h-34v65q-41 -74 -138 -74q-53 0 -86 29.5t-33 77.5q0 59 47 86t122 27q32 0 88 -8v10q0 110 -108 110q-70 0 -117 -41l-20 25q57 49 140 49zM171 379q65 0 100 38.5t35 105.5v8q-56 8 -87 8q-134 0 -134 -84q0 -34 23.5 -55t62.5 -21z
" />
    <glyph glyph-name="guillemotleft" unicode="&#xab;" horiz-adv-x="525" 
d="M235 102l-176 179q-6 6 -5.5 15t6.5 15l175 179l25 -24l-167 -170l167 -170zM419 102l-176 179q-6 6 -5.5 15t6.5 15l175 179l25 -24l-167 -170l167 -170z" />
    <glyph glyph-name="logicalnot" unicode="&#xac;" horiz-adv-x="485" 
d="M42 301v35h401v-175h-34v140h-367z" />
    <glyph glyph-name="uni00AD" unicode="&#xad;" horiz-adv-x="506" 
d="M66 314h374v-35h-374v35z" />
    <glyph glyph-name="registered" unicode="&#xae;" horiz-adv-x="564" 
d="M282 745q102 0 170.5 -68t68.5 -170t-69 -170.5t-170 -68.5t-170 68.5t-69 170.5t68.5 170t170.5 68zM282 294q92 0 152.5 61t60.5 152t-61 151.5t-152 60.5t-152 -60.5t-61 -151.5t60.5 -152t152.5 -61zM380 563q0 -32 -20.5 -53t-56.5 -26l82 -110h-32l-78 109h-54
v-109h-26v248q0 21 20 21h70q44 0 69.5 -21.5t25.5 -58.5zM221 618v-110h62q33 0 51.5 14.5t18.5 40.5q0 55 -68 55h-64z" />
    <glyph glyph-name="macron" unicode="&#xaf;" horiz-adv-x="411" 
d="M71 644h269v-35h-269v35z" />
    <glyph glyph-name="degree" unicode="&#xb0;" horiz-adv-x="337" 
d="M169 508q-54 0 -91 36t-37 89q0 52 37 88t91 36q53 0 90 -36t37 -88t-37 -88.5t-90 -36.5zM169 539q40 0 67.5 27t27.5 67q0 39 -27.5 66t-67.5 27t-68 -27t-28 -66q0 -40 27.5 -67t68.5 -27z" />
    <glyph glyph-name="plusminus" unicode="&#xb1;" horiz-adv-x="458" 
d="M247 421h169v-35h-169v-169h-35v169h-170v35h170v170h35v-170zM42 124v35h374v-35h-374z" />
    <glyph glyph-name="uni00B2" unicode="&#xb2;" horiz-adv-x="312" 
d="M101 612q-25 -31 -28 -81h198v-32h-232q-3 84 38 133q16 19 37.5 35.5t46.5 32.5t34 23q42 31 42 63q0 28 -21.5 47.5t-54.5 19.5q-31 0 -57 -16.5t-40 -43.5l-28 15q17 34 49.5 55.5t75.5 21.5q48 0 79 -28.5t31 -69.5q0 -50 -52 -85q-2 -1 -49.5 -33t-68.5 -57z" />
    <glyph glyph-name="uni00B3" unicode="&#xb3;" horiz-adv-x="325" 
d="M217 696q31 -10 49.5 -35.5t18.5 -57.5q0 -52 -38.5 -81t-92.5 -29q-88 0 -125 67l27 18q30 -52 99 -52q40 0 68 20.5t28 57.5q0 32 -22.5 52.5t-60.5 20.5h-62v32h57q37 0 59 21.5t22 49.5q0 32 -23 52.5t-61 20.5q-62 0 -97 -54l-25 16q39 70 123 70q54 0 85.5 -30.5
t31.5 -73.5q0 -59 -61 -85z" />
    <glyph glyph-name="acute" unicode="&#xb4;" horiz-adv-x="466" 
d="M140 579l159 145l27 -33l-168 -135z" />
    <glyph glyph-name="paragraph" unicode="&#xb6;" horiz-adv-x="457" 
d="M216 714h149v-692q0 -51 -5.5 -85.5t-21.5 -65t-48.5 -45.5t-82.5 -15q-44 0 -87 15l4 41q41 -16 81 -16q71 0 95.5 40t24.5 126v658h-48v-419h-61q-86 0 -136.5 58t-50.5 171q0 112 50.5 170.5t136.5 58.5z" />
    <glyph glyph-name="periodcentered" unicode="&#xb7;" horiz-adv-x="216" 
d="M104 193q-18 0 -28.5 11t-10.5 29t10.5 29t28.5 11t28.5 -11t10.5 -29t-10.5 -29t-28.5 -11z" />
    <glyph glyph-name="cedilla" unicode="&#xb8;" horiz-adv-x="306" 
d="M143 -238q-59 0 -102 27l13 27q36 -23 87 -23q40 0 65 18t25 50q0 68 -110 62l1 28q72 6 107.5 -20.5t35.5 -70.5q0 -43 -33.5 -70.5t-88.5 -27.5z" />
    <glyph glyph-name="uni00B9" unicode="&#xb9;" horiz-adv-x="280" 
d="M170 530h88v-31h-211v31h90v311l-95 -69l-18 24l117 85h13q16 0 16 -18v-333z" />
    <glyph glyph-name="ordmasculine" unicode="&#xba;" horiz-adv-x="430" 
d="M215 348q-78 0 -124.5 50t-45.5 132q1 83 47 133t123 50q79 0 124.5 -50t45.5 -133t-45.5 -132.5t-124.5 -49.5zM215 381q64 0 100 39.5t36 109.5q0 71 -36 110.5t-100 39.5q-63 0 -99 -40t-36 -110q-1 -70 35 -109.5t100 -39.5z" />
    <glyph glyph-name="guillemotright" unicode="&#xbb;" horiz-adv-x="525" 
d="M106 102l-25 24l167 170l-167 170l25 24l175 -179q15 -15 1 -30zM290 102l-25 24l167 170l-167 170l25 24l175 -179q15 -15 1 -30z" />
    <glyph glyph-name="questiondown" unicode="&#xbf;" horiz-adv-x="477" 
d="M268 515q17 0 27.5 -10.5t10.5 -28.5t-10.5 -28.5t-27.5 -10.5q-18 0 -28.5 10.5t-10.5 28.5t10.5 28.5t28.5 10.5zM289 367q4 -20 4 -44q0 -38 -22.5 -75.5t-54.5 -69t-63.5 -63.5t-54 -71t-22.5 -79q0 -63 46 -104t115 -41q58 0 106.5 32t76.5 90l34 -19
q-30 -65 -88 -103t-130 -38q-87 0 -144 52t-57 132q0 46 22.5 89t54.5 75.5t64 63t54.5 64t22.5 65.5q0 21 -4 44h40z" />
    <glyph glyph-name="Agrave" unicode="&#xc0;" horiz-adv-x="636" 
d="M406 786l-18 -23l-168 135l27 33zM579 0l-96 250h-330l-96 -250h-46l271 690q11 25 36 25t35 -26l272 -689h-46zM167 286h302l-151 392z" />
    <glyph glyph-name="Aacute" unicode="&#xc1;" horiz-adv-x="636" 
d="M428 897l-168 -135l-18 23l159 145zM579 0l-96 250h-330l-96 -250h-46l271 690q11 25 36 25t35 -26l272 -689h-46zM167 286h302l-151 392z" />
    <glyph glyph-name="Acircumflex" unicode="&#xc2;" horiz-adv-x="636" 
d="M319 886l-127 -118l-23 23l130 119q9 10 20 10t21 -10l129 -119l-22 -23zM579 0l-96 250h-330l-96 -250h-46l271 690q11 25 36 25t35 -26l272 -689h-46zM167 286h302l-151 392z" />
    <glyph glyph-name="Atilde" unicode="&#xc3;" horiz-adv-x="636" 
d="M248 838q-49 0 -63 -65l-30 8q10 46 35.5 67.5t57.5 21.5q33 0 74 -35t66 -35q46 0 64 67l32 -8q-11 -46 -38 -69t-58 -23q-33 0 -75 35.5t-65 35.5zM579 0l-96 250h-330l-96 -250h-46l271 690q11 25 36 25t35 -26l272 -689h-46zM167 286h302l-151 392z" />
    <glyph glyph-name="Adieresis" unicode="&#xc4;" horiz-adv-x="636" 
d="M240 782q-17 0 -27.5 10.5t-10.5 28.5t10.5 28.5t27.5 10.5t27.5 -10.5t10.5 -28.5t-10.5 -28.5t-27.5 -10.5zM401 782q-18 0 -28.5 10.5t-10.5 28.5t10.5 28.5t28.5 10.5q17 0 27.5 -10.5t10.5 -28.5t-10.5 -28.5t-27.5 -10.5zM579 0l-96 250h-330l-96 -250h-46l271 690
q11 25 36 25t35 -26l272 -689h-46zM167 286h302l-151 392z" />
    <glyph glyph-name="Aring" unicode="&#xc5;" horiz-adv-x="636" 
d="M319 744q-41 0 -68.5 27t-27.5 67q0 39 28 66t68 27t67.5 -27t27.5 -66q0 -40 -27.5 -67t-67.5 -27zM319 904q-29 0 -49 -19t-20 -47t20 -47.5t49 -19.5t48 19.5t19 47.5t-19.5 47t-47.5 19zM579 0l-96 250h-330l-96 -250h-46l271 690q11 25 36 25t35 -26l272 -689h-46z
M167 286h302l-151 392z" />
    <glyph glyph-name="AE" unicode="&#xc6;" horiz-adv-x="895" 
d="M844 675h-370v-290h334v-39h-334v-307h363v-39h-404v254h-243l-144 -254h-48l394 684q18 30 62 30h390v-39zM211 292h222v383h-5z" />
    <glyph glyph-name="Ccedilla" unicode="&#xc7;" horiz-adv-x="690" 
d="M378 -11q-139 0 -233 94t-94 272q0 171 91 271.5t243 100.5q89 0 161 -40.5t110 -114.5l-35 -20q-35 66 -97.5 102t-138.5 36q-135 0 -213.5 -90t-78.5 -244q0 -151 80 -240t206 -89q76 0 144 35t114 92l28 -26q-51 -65 -127 -102t-160 -37zM371 -235q-59 0 -102 27
l13 27q36 -23 87 -23q40 0 65 18t25 50q0 68 -110 62l1 28q72 6 107.5 -20.5t35.5 -70.5q0 -43 -33.5 -70.5t-88.5 -27.5z" />
    <glyph glyph-name="Egrave" unicode="&#xc8;" horiz-adv-x="569" 
d="M404 786l-18 -23l-168 135l27 33zM517 675h-383v-292h352v-39h-352v-305h377v-39h-418v685q0 14 8 21.5t21 7.5h395v-39z" />
    <glyph glyph-name="Eacute" unicode="&#xc9;" horiz-adv-x="569" 
d="M426 897l-168 -135l-18 23l159 145zM517 675h-383v-292h352v-39h-352v-305h377v-39h-418v685q0 14 8 21.5t21 7.5h395v-39z" />
    <glyph glyph-name="Ecircumflex" unicode="&#xca;" horiz-adv-x="569" 
d="M317 886l-127 -118l-23 23l130 119q9 10 20 10t21 -10l129 -119l-22 -23zM517 675h-383v-292h352v-39h-352v-305h377v-39h-418v685q0 14 8 21.5t21 7.5h395v-39z" />
    <glyph glyph-name="Edieresis" unicode="&#xcb;" horiz-adv-x="569" 
d="M238 782q-17 0 -27.5 10.5t-10.5 28.5t10.5 28.5t27.5 10.5t27.5 -10.5t10.5 -28.5t-10.5 -28.5t-27.5 -10.5zM399 782q-18 0 -28.5 10.5t-10.5 28.5t10.5 28.5t28.5 10.5q17 0 27.5 -10.5t10.5 -28.5t-10.5 -28.5t-27.5 -10.5zM517 675h-383v-292h352v-39h-352v-305h377
v-39h-418v685q0 14 8 21.5t21 7.5h395v-39z" />
    <glyph glyph-name="Igrave" unicode="&#xcc;" horiz-adv-x="244" 
d="M214 786l-18 -23l-168 135l27 33zM105 0v714h41v-714h-41z" />
    <glyph glyph-name="Iacute" unicode="&#xcd;" horiz-adv-x="244" 
d="M47 785l159 145l27 -33l-168 -135zM103 0v714h41v-714h-41z" />
    <glyph glyph-name="Icircumflex" unicode="&#xce;" horiz-adv-x="267" 
d="M8 768l-23 23l130 119q9 10 20 10t21 -10l129 -119l-22 -23l-128 118zM114 0v714h41v-714h-41z" />
    <glyph glyph-name="Idieresis" unicode="&#xcf;" horiz-adv-x="214" 
d="M32 782q-17 0 -27.5 10.5t-10.5 28.5t10.5 28.5t27.5 10.5t27.5 -10.5t10.5 -28.5t-10.5 -28.5t-27.5 -10.5zM193 782q-18 0 -28.5 10.5t-10.5 28.5t10.5 28.5t28.5 10.5q17 0 27.5 -10.5t10.5 -28.5t-10.5 -28.5t-27.5 -10.5zM90 0v714h41v-714h-41z" />
    <glyph glyph-name="Eth" unicode="&#xd0;" horiz-adv-x="718" 
d="M340 714q145 0 237 -101.5t92 -252.5q0 -157 -93.5 -258.5t-236.5 -101.5h-237v338h-83v38h83v309q0 14 8 21.5t21 7.5h209zM337 39q126 0 208 89t82 232q0 138 -81.5 226.5t-206.5 88.5h-196v-299h206v-38h-206v-299h194z" />
    <glyph glyph-name="Ntilde" unicode="&#xd1;" horiz-adv-x="723" 
d="M294 838q-49 0 -63 -65l-30 8q10 46 35.5 67.5t57.5 21.5q33 0 74 -35t66 -35q46 0 64 67l32 -8q-11 -46 -38 -69t-58 -23q-33 0 -75 35.5t-65 35.5zM590 714h39v-701q0 -18 -22 -18q-18 0 -30 16l-445 640v-651h-39v700q0 8 6.5 13.5t16.5 5.5q18 0 32 -19l442 -633v647
z" />
    <glyph glyph-name="Ograve" unicode="&#xd2;" horiz-adv-x="761" 
d="M469 786l-18 -23l-168 135l27 33zM382 -11q-149 0 -240.5 101.5t-91.5 266.5q0 166 91.5 268t240.5 102q147 0 238 -102t91 -268q0 -165 -91 -266.5t-238 -101.5zM382 28q129 0 208 89.5t79 239.5q0 151 -79 241t-208 90q-130 0 -210 -90.5t-80 -240.5t80 -239.5
t210 -89.5z" />
    <glyph glyph-name="Oacute" unicode="&#xd3;" horiz-adv-x="761" 
d="M305 785l159 145l27 -33l-168 -135zM382 -11q-149 0 -240.5 101.5t-91.5 266.5q0 166 91.5 268t240.5 102q147 0 238 -102t91 -268q0 -165 -91 -266.5t-238 -101.5zM382 28q129 0 208 89.5t79 239.5q0 151 -79 241t-208 90q-130 0 -210 -90.5t-80 -240.5t80 -239.5
t210 -89.5z" />
    <glyph glyph-name="Ocircumflex" unicode="&#xd4;" horiz-adv-x="761" 
d="M255 768l-23 23l130 119q9 10 20 10t21 -10l129 -119l-22 -23l-128 118zM382 -11q-149 0 -240.5 101.5t-91.5 266.5q0 166 91.5 268t240.5 102q147 0 238 -102t91 -268q0 -165 -91 -266.5t-238 -101.5zM382 28q129 0 208 89.5t79 239.5q0 151 -79 241t-208 90
q-130 0 -210 -90.5t-80 -240.5t80 -239.5t210 -89.5z" />
    <glyph glyph-name="Otilde" unicode="&#xd5;" horiz-adv-x="761" 
d="M451 767q-33 0 -75 35.5t-65 35.5q-49 0 -63 -65l-30 8q10 46 35.5 67.5t57.5 21.5q33 0 74 -35t66 -35q46 0 64 67l32 -8q-11 -46 -38 -69t-58 -23zM382 -11q-149 0 -240.5 101.5t-91.5 266.5q0 166 91.5 268t240.5 102q147 0 238 -102t91 -268q0 -165 -91 -266.5
t-238 -101.5zM382 28q129 0 208 89.5t79 239.5q0 151 -79 241t-208 90q-130 0 -210 -90.5t-80 -240.5t80 -239.5t210 -89.5z" />
    <glyph glyph-name="Odieresis" unicode="&#xd6;" horiz-adv-x="761" 
d="M302 782q-17 0 -27.5 10.5t-10.5 28.5t10.5 28.5t27.5 10.5t27.5 -10.5t10.5 -28.5t-10.5 -28.5t-27.5 -10.5zM463 782q-18 0 -28.5 10.5t-10.5 28.5t10.5 28.5t28.5 10.5q17 0 27.5 -10.5t10.5 -28.5t-10.5 -28.5t-27.5 -10.5zM382 -11q-149 0 -240.5 101.5t-91.5 266.5
q0 166 91.5 268t240.5 102q147 0 238 -102t91 -268q0 -165 -91 -266.5t-238 -101.5zM382 28q129 0 208 89.5t79 239.5q0 151 -79 241t-208 90q-130 0 -210 -90.5t-80 -240.5t80 -239.5t210 -89.5z" />
    <glyph glyph-name="multiply" unicode="&#xd7;" horiz-adv-x="435" 
d="M83 146l-25 24l135 139l-135 139l25 25l135 -139l134 139l25 -25l-135 -139l135 -139l-25 -24l-134 138z" />
    <glyph glyph-name="Oslash" unicode="&#xd8;" horiz-adv-x="761" 
d="M610 635q101 -103 101 -278q0 -165 -91 -266.5t-238 -101.5q-115 0 -197 62l-57 -78l-27 21l57 79q-108 103 -108 284q0 166 91.5 268t240.5 102q119 0 202 -68l52 71l28 -21zM92 357q0 -160 91 -251l378 520q-74 62 -179 62q-130 0 -210 -90.5t-80 -240.5zM382 28
q129 0 208 89.5t79 239.5q0 154 -83 245l-377 -518q73 -56 173 -56z" />
    <glyph glyph-name="Ugrave" unicode="&#xd9;" horiz-adv-x="676" 
d="M400 793l-18 -23l-168 135l27 33zM337 -11q-119 0 -185 66.5t-66 184.5v474h41v-472q0 -102 54 -158t156 -56t157 56t55 158v472h41v-474q0 -118 -66.5 -184.5t-186.5 -66.5z" />
    <glyph glyph-name="Uacute" unicode="&#xda;" horiz-adv-x="676" 
d="M262 785l159 145l27 -33l-168 -135zM337 -11q-119 0 -185 66.5t-66 184.5v474h41v-472q0 -102 54 -158t156 -56t157 56t55 158v472h41v-474q0 -118 -66.5 -184.5t-186.5 -66.5z" />
    <glyph glyph-name="Ucircumflex" unicode="&#xdb;" horiz-adv-x="676" 
d="M212 768l-23 23l130 119q9 10 20 10t21 -10l129 -119l-22 -23l-128 118zM337 -11q-119 0 -185 66.5t-66 184.5v474h41v-472q0 -102 54 -158t156 -56t157 56t55 158v472h41v-474q0 -118 -66.5 -184.5t-186.5 -66.5z" />
    <glyph glyph-name="Udieresis" unicode="&#xdc;" horiz-adv-x="676" 
d="M260 782q-17 0 -27.5 10.5t-10.5 28.5t10.5 28.5t27.5 10.5t27.5 -10.5t10.5 -28.5t-10.5 -28.5t-27.5 -10.5zM421 782q-18 0 -28.5 10.5t-10.5 28.5t10.5 28.5t28.5 10.5q17 0 27.5 -10.5t10.5 -28.5t-10.5 -28.5t-27.5 -10.5zM337 -11q-119 0 -185 66.5t-66 184.5v474
h41v-472q0 -102 54 -158t156 -56t157 56t55 158v472h41v-474q0 -118 -66.5 -184.5t-186.5 -66.5z" />
    <glyph glyph-name="Yacute" unicode="&#xdd;" horiz-adv-x="571" 
d="M397 897l-168 -135l-18 23l159 145zM554 714l-247 -417v-297h-41v296l-248 418h47l221 -376l222 375z" />
    <glyph glyph-name="Thorn" unicode="&#xde;" horiz-adv-x="561" 
d="M293 576q109 0 166.5 -55t57.5 -150q0 -100 -60 -156t-167 -56h-156v-159h-41v714h41v-138h159zM290 197q89 0 137 45t48 129q0 80 -46 123.5t-138 43.5h-157v-341h156z" />
    <glyph glyph-name="germandbls" unicode="&#xdf;" horiz-adv-x="582" 
d="M190 37l20 29q55 -40 123 -40q76 0 123 42t47 108q0 36 -17.5 64.5t-42.5 46t-50 33t-42.5 34t-17.5 39.5q0 19 13.5 39t29.5 36t29.5 41.5t13.5 54.5q0 56 -39 91t-102 35q-75 0 -119.5 -55t-44.5 -150v-485h-39v493q0 113 58.5 173.5t144.5 60.5q76 0 128.5 -44.5
t52.5 -116.5q0 -33 -13.5 -62.5t-30 -46t-30 -33.5t-13.5 -28q0 -12 17.5 -25t43 -28t50.5 -35t42.5 -54t17.5 -76q0 -81 -57.5 -135t-152.5 -54q-91 0 -143 48z" />
    <glyph glyph-name="agrave" unicode="&#xe0;" horiz-adv-x="512" 
d="M341 579l-18 -23l-168 135l27 33zM248 513q92 0 143.5 -51t51.5 -150v-312h-39v113q-25 -58 -75 -91.5t-119 -33.5q-76 0 -123.5 43t-47.5 111q0 82 64 121t178 39q63 0 123 -9v21q0 82 -40.5 122.5t-116.5 40.5q-87 0 -161 -58l-23 29q79 65 185 65zM213 22q87 0 139 59
t52 157v22q-58 9 -121 9q-204 0 -204 -127q0 -54 36.5 -87t97.5 -33z" />
    <glyph glyph-name="aacute" unicode="&#xe1;" horiz-adv-x="512" 
d="M363 691l-168 -135l-18 23l159 145zM248 513q92 0 143.5 -51t51.5 -150v-312h-39v113q-25 -58 -75 -91.5t-119 -33.5q-76 0 -123.5 43t-47.5 111q0 82 64 121t178 39q63 0 123 -9v21q0 82 -40.5 122.5t-116.5 40.5q-87 0 -161 -58l-23 29q79 65 185 65zM213 22
q87 0 139 59t52 157v22q-58 9 -121 9q-204 0 -204 -127q0 -54 36.5 -87t97.5 -33z" />
    <glyph glyph-name="acircumflex" unicode="&#xe2;" horiz-adv-x="512" 
d="M254 694l-127 -118l-23 23l130 119q9 10 20 10t21 -10l129 -119l-22 -23zM248 513q92 0 143.5 -51t51.5 -150v-312h-39v113q-25 -58 -75 -91.5t-119 -33.5q-76 0 -123.5 43t-47.5 111q0 82 64 121t178 39q63 0 123 -9v21q0 82 -40.5 122.5t-116.5 40.5q-87 0 -161 -58
l-23 29q79 65 185 65zM213 22q87 0 139 59t52 157v22q-58 9 -121 9q-204 0 -204 -127q0 -54 36.5 -87t97.5 -33z" />
    <glyph glyph-name="atilde" unicode="&#xe3;" horiz-adv-x="512" 
d="M183 650q-49 0 -63 -65l-30 8q10 46 35.5 67.5t57.5 21.5q33 0 74 -35t66 -35q46 0 64 67l32 -8q-11 -46 -38 -69t-58 -23q-33 0 -75 35.5t-65 35.5zM248 513q92 0 143.5 -51t51.5 -150v-312h-39v113q-25 -58 -75 -91.5t-119 -33.5q-76 0 -123.5 43t-47.5 111
q0 82 64 121t178 39q63 0 123 -9v21q0 82 -40.5 122.5t-116.5 40.5q-87 0 -161 -58l-23 29q79 65 185 65zM213 22q87 0 139 59t52 157v22q-58 9 -121 9q-204 0 -204 -127q0 -54 36.5 -87t97.5 -33z" />
    <glyph glyph-name="adieresis" unicode="&#xe4;" horiz-adv-x="512" 
d="M174 571q-17 0 -27.5 10.5t-10.5 28.5t10.5 28.5t27.5 10.5t27.5 -10.5t10.5 -28.5t-10.5 -28.5t-27.5 -10.5zM335 571q-18 0 -28.5 10.5t-10.5 28.5t10.5 28.5t28.5 10.5q17 0 27.5 -10.5t10.5 -28.5t-10.5 -28.5t-27.5 -10.5zM248 513q92 0 143.5 -51t51.5 -150v-312
h-39v113q-25 -58 -75 -91.5t-119 -33.5q-76 0 -123.5 43t-47.5 111q0 82 64 121t178 39q63 0 123 -9v21q0 82 -40.5 122.5t-116.5 40.5q-87 0 -161 -58l-23 29q79 65 185 65zM213 22q87 0 139 59t52 157v22q-58 9 -121 9q-204 0 -204 -127q0 -54 36.5 -87t97.5 -33z" />
    <glyph glyph-name="aring" unicode="&#xe5;" horiz-adv-x="512" 
d="M254 555q-41 0 -68.5 27t-27.5 67q0 39 28 66t68 27t67.5 -27t27.5 -66q0 -40 -27.5 -67t-67.5 -27zM254 715q-29 0 -49 -19t-20 -47t20 -47.5t49 -19.5q28 0 47.5 19t19.5 48q0 28 -19.5 47t-47.5 19zM248 513q92 0 143.5 -51t51.5 -150v-312h-39v113q-25 -58 -75 -91.5
t-119 -33.5q-76 0 -123.5 43t-47.5 111q0 82 64 121t178 39q63 0 123 -9v21q0 82 -40.5 122.5t-116.5 40.5q-87 0 -161 -58l-23 29q79 65 185 65zM213 22q87 0 139 59t52 157v22q-58 9 -121 9q-204 0 -204 -127q0 -54 36.5 -87t97.5 -33z" />
    <glyph glyph-name="ae" unicode="&#xe6;" horiz-adv-x="890" 
d="M645 26q99 0 175 71l24 -30q-89 -79 -200 -79q-74 0 -134 39.5t-85 112.5q-24 -69 -81 -110.5t-134 -41.5q-79 0 -125 42t-46 111q0 82 65 121.5t170 39.5q69 0 135 -17v29q0 80 -45.5 121.5t-121.5 41.5q-89 0 -163 -57l-21 29q78 64 187 64q75 0 126 -34t69 -99
q30 62 86.5 97.5t133.5 35.5q80 0 135 -41.5t55 -115.5q0 -62 -39.5 -96.5t-102.5 -34.5h-259q6 -92 58.5 -145.5t137.5 -53.5zM658 478q-89 0 -147.5 -59.5t-62.5 -158.5h257q47 0 77 25t30 72q0 55 -44.5 88t-109.5 33zM213 22q85 0 140.5 59.5t55.5 156.5v13
q-65 18 -131 18q-98 0 -148.5 -33.5t-50.5 -95.5q0 -53 35.5 -85.5t98.5 -32.5z" />
    <glyph glyph-name="ccedilla" unicode="&#xe7;" horiz-adv-x="521" 
d="M282 -13q-107 0 -172.5 73t-65.5 190q0 118 65 190.5t176 72.5q143 0 200 -112l-33 -19q-51 95 -166 95q-92 0 -146.5 -60.5t-54.5 -165.5q0 -106 54.5 -167t142.5 -61q118 0 178 105l32 -20q-26 -49 -79.5 -85t-130.5 -36zM262 -238q-59 0 -102 27l13 27q36 -23 87 -23
q40 0 65 18t25 50q0 68 -110 62l1 28q72 6 107.5 -20.5t35.5 -70.5q0 -43 -33.5 -70.5t-88.5 -27.5z" />
    <glyph glyph-name="egrave" unicode="&#xe8;" horiz-adv-x="524" 
d="M374 579l-18 -23l-168 135l27 33zM275 26q102 0 178 71l24 -29q-88 -79 -203 -79q-93 0 -161.5 67t-68.5 186q0 117 67.5 194t184.5 77q78 0 132.5 -42.5t54.5 -117.5q0 -59 -39.5 -93t-102.5 -34h-257q5 -90 58.5 -145t132.5 -55zM292 478q-89 0 -146.5 -58.5
t-62.5 -159.5h255q46 0 76 25t30 70q0 56 -43.5 89.5t-108.5 33.5z" />
    <glyph glyph-name="eacute" unicode="&#xe9;" horiz-adv-x="524" 
d="M396 691l-168 -135l-18 23l159 145zM275 26q102 0 178 71l24 -29q-88 -79 -203 -79q-93 0 -161.5 67t-68.5 186q0 117 67.5 194t184.5 77q78 0 132.5 -42.5t54.5 -117.5q0 -59 -39.5 -93t-102.5 -34h-257q5 -90 58.5 -145t132.5 -55zM292 478q-89 0 -146.5 -58.5
t-62.5 -159.5h255q46 0 76 25t30 70q0 56 -43.5 89.5t-108.5 33.5z" />
    <glyph glyph-name="ecircumflex" unicode="&#xea;" horiz-adv-x="524" 
d="M287 694l-127 -118l-23 23l130 119q9 10 20 10t21 -10l129 -119l-22 -23zM275 26q102 0 178 71l24 -29q-88 -79 -203 -79q-93 0 -161.5 67t-68.5 186q0 117 67.5 194t184.5 77q78 0 132.5 -42.5t54.5 -117.5q0 -59 -39.5 -93t-102.5 -34h-257q5 -90 58.5 -145t132.5 -55z
M292 478q-89 0 -146.5 -58.5t-62.5 -159.5h255q46 0 76 25t30 70q0 56 -43.5 89.5t-108.5 33.5z" />
    <glyph glyph-name="edieresis" unicode="&#xeb;" horiz-adv-x="524" 
d="M207 571q-17 0 -27.5 10.5t-10.5 28.5t10.5 28.5t27.5 10.5t27.5 -10.5t10.5 -28.5t-10.5 -28.5t-27.5 -10.5zM368 571q-18 0 -28.5 10.5t-10.5 28.5t10.5 28.5t28.5 10.5q17 0 27.5 -10.5t10.5 -28.5t-10.5 -28.5t-27.5 -10.5zM275 26q102 0 178 71l24 -29
q-88 -79 -203 -79q-93 0 -161.5 67t-68.5 186q0 117 67.5 194t184.5 77q78 0 132.5 -42.5t54.5 -117.5q0 -59 -39.5 -93t-102.5 -34h-257q5 -90 58.5 -145t132.5 -55zM292 478q-89 0 -146.5 -58.5t-62.5 -159.5h255q46 0 76 25t30 70q0 56 -43.5 89.5t-108.5 33.5z" />
    <glyph glyph-name="igrave" unicode="&#xec;" horiz-adv-x="203" 
d="M197 579l-18 -23l-168 135l27 33zM89 0v500h40v-500h-40z" />
    <glyph glyph-name="iacute" unicode="&#xed;" horiz-adv-x="203" 
d="M21 579l159 145l27 -33l-168 -135zM78 0v500h40v-500h-40z" />
    <glyph glyph-name="icircumflex" unicode="&#xee;" horiz-adv-x="226" 
d="M-14 576l-23 23l130 119q9 10 20 10t21 -10l129 -119l-22 -23l-128 118zM93 0v500h40v-500h-40z" />
    <glyph glyph-name="idieresis" unicode="&#xef;" horiz-adv-x="173" 
d="M6 571q-17 0 -27.5 10.5t-10.5 28.5t10.5 28.5t27.5 10.5t27.5 -10.5t10.5 -28.5t-10.5 -28.5t-27.5 -10.5zM167 571q-18 0 -28.5 10.5t-10.5 28.5t10.5 28.5t28.5 10.5q17 0 27.5 -10.5t10.5 -28.5t-10.5 -28.5t-27.5 -10.5zM67 0v500h40v-500h-40z" />
    <glyph glyph-name="eth" unicode="&#xf0;" horiz-adv-x="543" 
d="M379 620q110 -112 110 -312q0 -140 -61.5 -230.5t-175.5 -90.5q-96 0 -152 65.5t-56 167.5q0 111 67 182t162 71q49 0 95 -19.5t76 -56.5q-18 124 -95 200l-97 -74l-20 28l91 70q-66 52 -166 78l12 35q114 -31 185 -90l98 75l19 -29zM251 24q96 0 147.5 78.5t51.5 219.5
v15q-28 48 -74 73.5t-100 25.5q-81 0 -137 -60.5t-56 -155.5q0 -89 45.5 -142.5t122.5 -53.5z" />
    <glyph glyph-name="ntilde" unicode="&#xf1;" horiz-adv-x="564" 
d="M208 650q-49 0 -63 -65l-30 8q10 46 35.5 67.5t57.5 21.5q33 0 74 -35t66 -35q46 0 64 67l32 -8q-11 -46 -38 -69t-58 -23q-33 0 -75 35.5t-65 35.5zM341 513q75 0 113.5 -40.5t38.5 -115.5v-357h-40v352q0 123 -115 123q-107 0 -223 -107v-368h-40v500h39v-92
q116 105 227 105z" />
    <glyph glyph-name="ograve" unicode="&#xf2;" horiz-adv-x="557" 
d="M366 579l-18 -23l-168 135l27 33zM279 -13q-107 0 -171.5 72.5t-63.5 190.5q1 120 66 191.5t169 71.5q106 0 170 -72t64 -191t-64 -191t-170 -72zM279 23q89 0 141.5 61t52.5 166q0 104 -52.5 165.5t-141.5 61.5q-88 0 -141.5 -61t-53.5 -166q-1 -104 52 -165.5
t143 -61.5z" />
    <glyph glyph-name="oacute" unicode="&#xf3;" horiz-adv-x="557" 
d="M201 579l159 145l27 -33l-168 -135zM279 -13q-107 0 -171.5 72.5t-63.5 190.5q1 120 66 191.5t169 71.5q106 0 170 -72t64 -191t-64 -191t-170 -72zM279 23q89 0 141.5 61t52.5 166q0 104 -52.5 165.5t-141.5 61.5q-88 0 -141.5 -61t-53.5 -166q-1 -104 52 -165.5
t143 -61.5z" />
    <glyph glyph-name="ocircumflex" unicode="&#xf4;" horiz-adv-x="557" 
d="M151 576l-23 23l130 119q9 10 20 10t21 -10l129 -119l-22 -23l-128 118zM279 -13q-107 0 -171.5 72.5t-63.5 190.5q1 120 66 191.5t169 71.5q106 0 170 -72t64 -191t-64 -191t-170 -72zM279 23q89 0 141.5 61t52.5 166q0 104 -52.5 165.5t-141.5 61.5q-88 0 -141.5 -61
t-53.5 -166q-1 -104 52 -165.5t143 -61.5z" />
    <glyph glyph-name="otilde" unicode="&#xf5;" horiz-adv-x="557" 
d="M347 579q-33 0 -75 35.5t-65 35.5q-49 0 -63 -65l-30 8q10 46 35.5 67.5t57.5 21.5q33 0 74 -35t66 -35q46 0 64 67l32 -8q-11 -46 -38 -69t-58 -23zM279 -13q-107 0 -171.5 72.5t-63.5 190.5q1 120 66 191.5t169 71.5q106 0 170 -72t64 -191t-64 -191t-170 -72zM279 23
q89 0 141.5 61t52.5 166q0 104 -52.5 165.5t-141.5 61.5q-88 0 -141.5 -61t-53.5 -166q-1 -104 52 -165.5t143 -61.5z" />
    <glyph glyph-name="odieresis" unicode="&#xf6;" horiz-adv-x="557" 
d="M198 571q-17 0 -27.5 10.5t-10.5 28.5t10.5 28.5t27.5 10.5t27.5 -10.5t10.5 -28.5t-10.5 -28.5t-27.5 -10.5zM359 571q-18 0 -28.5 10.5t-10.5 28.5t10.5 28.5t28.5 10.5q17 0 27.5 -10.5t10.5 -28.5t-10.5 -28.5t-27.5 -10.5zM279 -13q-107 0 -171.5 72.5t-63.5 190.5
q1 120 66 191.5t169 71.5q106 0 170 -72t64 -191t-64 -191t-170 -72zM279 23q89 0 141.5 61t52.5 166q0 104 -52.5 165.5t-141.5 61.5q-88 0 -141.5 -61t-53.5 -166q-1 -104 52 -165.5t143 -61.5z" />
    <glyph glyph-name="divide" unicode="&#xf7;" horiz-adv-x="421" 
d="M213 394q-15 0 -24 9t-9 25q0 15 9 24.5t24 9.5t24 -9.5t9 -24.5q0 -16 -9 -25t-24 -9zM42 313h337v-35h-337v35zM213 126q-15 0 -24 9t-9 25q0 15 9 24.5t24 9.5t24 -9.5t9 -24.5q0 -16 -9 -25t-24 -9z" />
    <glyph glyph-name="oslash" unicode="&#xf8;" 
d="M445 446q69 -72 69 -196q0 -119 -64 -191t-170 -72q-79 0 -137 42l-42 -58l-28 20l44 60q-73 73 -72 199q1 120 66 191.5t169 71.5q83 0 139 -44l42 58l28 -20zM85 250q-1 -105 54 -168l258 357q-47 38 -117 38q-88 0 -141.5 -61t-53.5 -166zM280 23q89 0 141.5 61
t52.5 166q0 102 -52 165l-257 -356q49 -36 115 -36z" />
    <glyph glyph-name="ugrave" unicode="&#xf9;" 
d="M370 579l-18 -23l-168 135l27 33zM444 500h40v-501h-40v88q-112 -100 -225 -100q-148 0 -148 156v357h39v-353q0 -62 27 -92t86 -30q108 0 221 101v374z" />
    <glyph glyph-name="uacute" unicode="&#xfa;" 
d="M391 691l-168 -135l-18 23l159 145zM444 500h40v-501h-40v88q-112 -100 -225 -100q-148 0 -148 156v357h39v-353q0 -62 27 -92t86 -30q108 0 221 101v374z" />
    <glyph glyph-name="ucircumflex" unicode="&#xfb;" 
d="M282 694l-127 -118l-23 23l130 119q9 10 20 10t21 -10l129 -119l-22 -23zM444 500h40v-501h-40v88q-112 -100 -225 -100q-148 0 -148 156v357h39v-353q0 -62 27 -92t86 -30q108 0 221 101v374z" />
    <glyph glyph-name="udieresis" unicode="&#xfc;" 
d="M202 571q-17 0 -27.5 10.5t-10.5 28.5t10.5 28.5t27.5 10.5t27.5 -10.5t10.5 -28.5t-10.5 -28.5t-27.5 -10.5zM363 571q-18 0 -28.5 10.5t-10.5 28.5t10.5 28.5t28.5 10.5q17 0 27.5 -10.5t10.5 -28.5t-10.5 -28.5t-27.5 -10.5zM444 500h40v-501h-40v88
q-112 -100 -225 -100q-148 0 -148 156v357h39v-353q0 -62 27 -92t86 -30q108 0 221 101v374z" />
    <glyph glyph-name="yacute" unicode="&#xfd;" horiz-adv-x="492" 
d="M370 691l-168 -135l-18 23l159 145zM437 500h43l-238 -584q-48 -116 -141 -116q-59 0 -96 37l19 28q34 -29 76 -29q72 0 109 95l20 54l-207 515h41l186 -469z" />
    <glyph glyph-name="thorn" unicode="&#xfe;" 
d="M302 513q97 0 154.5 -70.5t57.5 -184.5q0 -118 -62.5 -194.5t-169.5 -76.5q-87 0 -168 53v-226h-39v900h39v-296q76 95 188 95zM282 24q89 0 141 66t52 168q0 101 -47.5 159.5t-128.5 58.5q-113 0 -185 -111v-283q76 -58 168 -58z" />
    <glyph glyph-name="ydieresis" unicode="&#xff;" horiz-adv-x="492" 
d="M181 571q-17 0 -27.5 10.5t-10.5 28.5t10.5 28.5t27.5 10.5t27.5 -10.5t10.5 -28.5t-10.5 -28.5t-27.5 -10.5zM342 571q-18 0 -28.5 10.5t-10.5 28.5t10.5 28.5t28.5 10.5q17 0 27.5 -10.5t10.5 -28.5t-10.5 -28.5t-27.5 -10.5zM437 500h43l-238 -584q-48 -116 -141 -116
q-59 0 -96 37l19 28q34 -29 76 -29q72 0 109 95l20 54l-207 515h41l186 -469z" />
    <glyph glyph-name="Amacron" unicode="&#x100;" horiz-adv-x="636" 
d="M452 843v-35h-269v35h269zM579 0l-96 250h-330l-96 -250h-46l271 690q11 25 36 25t35 -26l272 -689h-46zM167 286h302l-151 392z" />
    <glyph glyph-name="amacron" unicode="&#x101;" horiz-adv-x="512" 
d="M388 644v-35h-269v35h269zM248 513q92 0 143.5 -51t51.5 -150v-312h-39v113q-25 -58 -75 -91.5t-119 -33.5q-76 0 -123.5 43t-47.5 111q0 82 64 121t178 39q63 0 123 -9v21q0 82 -40.5 122.5t-116.5 40.5q-87 0 -161 -58l-23 29q79 65 185 65zM213 22q87 0 139 59t52 157
v22q-58 9 -121 9q-204 0 -204 -127q0 -54 36.5 -87t97.5 -33z" />
    <glyph glyph-name="Abreve" unicode="&#x102;" horiz-adv-x="636" 
d="M319 758q-72 0 -108.5 46t-39.5 107l34 1q2 -54 32 -89.5t82 -35.5q51 0 81 35.5t32 89.5l35 -1q-3 -61 -39.5 -107t-108.5 -46zM579 0l-96 250h-330l-96 -250h-46l271 690q11 25 36 25t35 -26l272 -689h-46zM167 286h302l-151 392z" />
    <glyph glyph-name="abreve" unicode="&#x103;" horiz-adv-x="512" 
d="M254 561q-72 0 -108.5 46t-39.5 107l34 1q2 -54 32 -89.5t82 -35.5q51 0 81 35.5t32 89.5l35 -1q-3 -61 -39.5 -107t-108.5 -46zM248 513q92 0 143.5 -51t51.5 -150v-312h-39v113q-25 -58 -75 -91.5t-119 -33.5q-76 0 -123.5 43t-47.5 111q0 82 64 121t178 39
q63 0 123 -9v21q0 82 -40.5 122.5t-116.5 40.5q-87 0 -161 -58l-23 29q79 65 185 65zM213 22q87 0 139 59t52 157v22q-58 9 -121 9q-204 0 -204 -127q0 -54 36.5 -87t97.5 -33z" />
    <glyph glyph-name="Aogonek" unicode="&#x104;" horiz-adv-x="623" 
d="M638 -165l17 -25q-32 -34 -79 -34q-41 0 -67 26.5t-26 70.5q0 38 23 73.5t70 60.5l-93 243h-330l-96 -250h-46l271 690q11 25 36 25t35 -26l272 -689h-1q-52 -17 -79.5 -51.5t-27.5 -72.5q0 -30 17 -48.5t44 -18.5q33 0 60 26zM167 286h302l-151 392z" />
    <glyph glyph-name="aogonek" unicode="&#x105;" horiz-adv-x="497" 
d="M455 -165l17 -25q-32 -34 -79 -34q-41 0 -67 26.5t-26 70.5q0 89 104 140v100q-25 -58 -75 -91.5t-119 -33.5q-76 0 -123.5 43t-47.5 111q0 82 64 121t178 39q63 0 123 -9v21q0 82 -40.5 122.5t-116.5 40.5q-87 0 -161 -58l-23 29q79 65 185 65q92 0 143.5 -51t51.5 -150
v-312h-2q-52 -17 -79.5 -51.5t-27.5 -72.5q0 -30 17 -48.5t44 -18.5q33 0 60 26zM213 22q87 0 139 59t52 157v22q-58 9 -121 9q-204 0 -204 -127q0 -54 36.5 -87t97.5 -33z" />
    <glyph glyph-name="Cacute" unicode="&#x106;" horiz-adv-x="690" 
d="M310 787l159 145l27 -33l-168 -135zM378 -11q-139 0 -233 94t-94 272q0 171 91 271.5t243 100.5q89 0 161 -40.5t110 -114.5l-35 -20q-35 66 -97.5 102t-138.5 36q-135 0 -213.5 -90t-78.5 -244q0 -151 80 -240t206 -89q76 0 144 35t114 92l28 -26q-51 -65 -127 -102
t-160 -37z" />
    <glyph glyph-name="cacute" unicode="&#x107;" horiz-adv-x="521" 
d="M206 579l159 145l27 -33l-168 -135zM282 -13q-107 0 -172.5 73t-65.5 190q0 118 65 190.5t176 72.5q143 0 200 -112l-33 -19q-51 95 -166 95q-92 0 -146.5 -60.5t-54.5 -165.5q0 -106 54.5 -167t142.5 -61q118 0 178 105l32 -20q-26 -49 -79.5 -85t-130.5 -36z" />
    <glyph glyph-name="Ccircumflex" unicode="&#x108;" horiz-adv-x="690" 
d="M260 770l-23 23l130 119q9 10 20 10t21 -10l129 -119l-22 -23l-128 118zM378 -11q-139 0 -233 94t-94 272q0 171 91 271.5t243 100.5q89 0 161 -40.5t110 -114.5l-35 -20q-35 66 -97.5 102t-138.5 36q-135 0 -213.5 -90t-78.5 -244q0 -151 80 -240t206 -89q76 0 144 35
t114 92l28 -26q-51 -65 -127 -102t-160 -37z" />
    <glyph glyph-name="ccircumflex" unicode="&#x109;" horiz-adv-x="521" 
d="M156 576l-23 23l130 119q9 10 20 10t21 -10l129 -119l-22 -23l-128 118zM282 -13q-107 0 -172.5 73t-65.5 190q0 118 65 190.5t176 72.5q143 0 200 -112l-33 -19q-51 95 -166 95q-92 0 -146.5 -60.5t-54.5 -165.5q0 -106 54.5 -167t142.5 -61q118 0 178 105l32 -20
q-26 -49 -79.5 -85t-130.5 -36z" />
    <glyph glyph-name="Cdotaccent" unicode="&#x10a;" horiz-adv-x="690" 
d="M387 782q-18 0 -28.5 11t-10.5 29t10.5 28.5t28.5 10.5q17 0 27.5 -10.5t10.5 -28.5t-10.5 -29t-27.5 -11zM378 -11q-139 0 -233 94t-94 272q0 171 91 271.5t243 100.5q89 0 161 -40.5t110 -114.5l-35 -20q-35 66 -97.5 102t-138.5 36q-135 0 -213.5 -90t-78.5 -244
q0 -151 80 -240t206 -89q76 0 144 35t114 92l28 -26q-51 -65 -127 -102t-160 -37z" />
    <glyph glyph-name="cdotaccent" unicode="&#x10b;" horiz-adv-x="521" 
d="M285 590q-18 0 -28.5 11t-10.5 29t10.5 28.5t28.5 10.5q17 0 27.5 -10.5t10.5 -28.5t-10.5 -29t-27.5 -11zM282 -13q-107 0 -172.5 73t-65.5 190q0 118 65 190.5t176 72.5q143 0 200 -112l-33 -19q-51 95 -166 95q-92 0 -146.5 -60.5t-54.5 -165.5q0 -106 54.5 -167
t142.5 -61q118 0 178 105l32 -20q-26 -49 -79.5 -85t-130.5 -36z" />
    <glyph glyph-name="Ccaron" unicode="&#x10c;" horiz-adv-x="690" 
d="M259 931l127 -118l128 118l22 -23l-129 -119q-10 -10 -21 -10t-20 10l-130 119zM378 -11q-139 0 -233 94t-94 272q0 171 91 271.5t243 100.5q89 0 161 -40.5t110 -114.5l-35 -20q-35 66 -97.5 102t-138.5 36q-135 0 -213.5 -90t-78.5 -244q0 -151 80 -240t206 -89
q76 0 144 35t114 92l28 -26q-51 -65 -127 -102t-160 -37z" />
    <glyph glyph-name="ccaron" unicode="&#x10d;" horiz-adv-x="521" 
d="M157 728l127 -118l128 118l22 -23l-129 -119q-10 -10 -21 -10t-20 10l-130 119zM282 -13q-107 0 -172.5 73t-65.5 190q0 118 65 190.5t176 72.5q143 0 200 -112l-33 -19q-51 95 -166 95q-92 0 -146.5 -60.5t-54.5 -165.5q0 -106 54.5 -167t142.5 -61q118 0 178 105
l32 -20q-26 -49 -79.5 -85t-130.5 -36z" />
    <glyph glyph-name="Dcaron" unicode="&#x10e;" horiz-adv-x="709" 
d="M213 929l127 -118l128 118l22 -23l-129 -119q-10 -10 -21 -10t-20 10l-130 119zM93 0v685q0 14 8 21.5t21 7.5h209q145 0 237 -101.5t92 -252.5q0 -157 -93.5 -258.5t-236.5 -101.5h-237zM134 39h194q126 0 208 89t82 232q0 138 -81.5 226.5t-206.5 88.5h-196v-636z" />
    <glyph glyph-name="dcaron" unicode="&#x10f;" horiz-adv-x="561" 
d="M609 745l37 -7l-55 -186l-28 5zM438 427v287h40v-714h-40v84q-76 -97 -184 -97q-94 0 -151.5 70t-57.5 184q0 122 61 197t162 75q110 0 170 -86zM257 24q110 0 181 106v243q-28 52 -73 77.5t-97 25.5q-85 0 -134 -63t-49 -171q0 -100 47 -159t125 -59z" />
    <glyph glyph-name="Dcroat" unicode="&#x110;" horiz-adv-x="718" 
d="M340 714q145 0 237 -101.5t92 -252.5q0 -157 -93.5 -258.5t-236.5 -101.5h-237v338h-83v38h83v309q0 14 8 21.5t21 7.5h209zM337 39q126 0 208 89t82 232q0 138 -81.5 226.5t-206.5 88.5h-196v-299h206v-38h-206v-299h194z" />
    <glyph glyph-name="dcroat" unicode="&#x111;" horiz-adv-x="562" 
d="M566 600v-34h-88v-566h-40v84q-76 -97 -184 -97q-94 0 -151.5 70t-57.5 184q0 122 61 197t162 75q110 0 170 -86v139h-153v34h153v114h40v-114h88zM257 24q110 0 181 106v243q-28 52 -73 77.5t-97 25.5q-85 0 -134 -63t-49 -171q0 -100 47 -159t125 -59z" />
    <glyph glyph-name="Emacron" unicode="&#x112;" horiz-adv-x="569" 
d="M450 843v-35h-269v35h269zM517 675h-383v-292h352v-39h-352v-305h377v-39h-418v685q0 14 8 21.5t21 7.5h395v-39z" />
    <glyph glyph-name="emacron" unicode="&#x113;" horiz-adv-x="524" 
d="M421 644v-35h-269v35h269zM275 26q102 0 178 71l24 -29q-88 -79 -203 -79q-93 0 -161.5 67t-68.5 186q0 117 67.5 194t184.5 77q78 0 132.5 -42.5t54.5 -117.5q0 -59 -39.5 -93t-102.5 -34h-257q5 -90 58.5 -145t132.5 -55zM292 478q-89 0 -146.5 -58.5t-62.5 -159.5h255
q46 0 76 25t30 70q0 56 -43.5 89.5t-108.5 33.5z" />
    <glyph glyph-name="Ebreve" unicode="&#x114;" horiz-adv-x="569" 
d="M317 758q-72 0 -108.5 46t-39.5 107l34 1q2 -54 32 -89.5t82 -35.5q51 0 81 35.5t32 89.5l35 -1q-3 -61 -39.5 -107t-108.5 -46zM517 675h-383v-292h352v-39h-352v-305h377v-39h-418v685q0 14 8 21.5t21 7.5h395v-39z" />
    <glyph glyph-name="ebreve" unicode="&#x115;" horiz-adv-x="524" 
d="M287 561q-72 0 -108.5 46t-39.5 107l34 1q2 -54 32 -89.5t82 -35.5q51 0 81 35.5t32 89.5l35 -1q-3 -61 -39.5 -107t-108.5 -46zM275 26q102 0 178 71l24 -29q-88 -79 -203 -79q-93 0 -161.5 67t-68.5 186q0 117 67.5 194t184.5 77q78 0 132.5 -42.5t54.5 -117.5
q0 -59 -39.5 -93t-102.5 -34h-257q5 -90 58.5 -145t132.5 -55zM292 478q-89 0 -146.5 -58.5t-62.5 -159.5h255q46 0 76 25t30 70q0 56 -43.5 89.5t-108.5 33.5z" />
    <glyph glyph-name="Edotaccent" unicode="&#x116;" horiz-adv-x="569" 
d="M317 780q-18 0 -28.5 11t-10.5 29t10.5 28.5t28.5 10.5q17 0 27.5 -10.5t10.5 -28.5t-10.5 -29t-27.5 -11zM517 675h-383v-292h352v-39h-352v-305h377v-39h-418v685q0 14 8 21.5t21 7.5h395v-39z" />
    <glyph glyph-name="edotaccent" unicode="&#x117;" horiz-adv-x="524" 
d="M288 590q-18 0 -28.5 11t-10.5 29t10.5 28.5t28.5 10.5q17 0 27.5 -10.5t10.5 -28.5t-10.5 -29t-27.5 -11zM275 26q102 0 178 71l24 -29q-88 -79 -203 -79q-93 0 -161.5 67t-68.5 186q0 117 67.5 194t184.5 77q78 0 132.5 -42.5t54.5 -117.5q0 -59 -39.5 -93t-102.5 -34
h-257q5 -90 58.5 -145t132.5 -55zM292 478q-89 0 -146.5 -58.5t-62.5 -159.5h255q46 0 76 25t30 70q0 56 -43.5 89.5t-108.5 33.5z" />
    <glyph glyph-name="Eogonek" unicode="&#x118;" horiz-adv-x="566" 
d="M524 -167l17 -24q-34 -34 -79 -34q-41 0 -67 26.5t-26 69.5q0 78 82 129h-358v685q0 14 8 21.5t21 7.5h395v-39h-383v-292h352v-39h-352v-305h377v-38l1 -1q-53 -18 -81 -53t-28 -72q0 -30 17 -48.5t44 -18.5q32 0 60 25z" />
    <glyph glyph-name="eogonek" unicode="&#x119;" horiz-adv-x="523" 
d="M452 97l24 -29q-57 -50 -121 -68q-52 -17 -80 -52t-28 -72q0 -30 17.5 -48.5t44.5 -18.5q31 0 60 26l17 -25q-34 -34 -80 -34q-40 0 -66.5 26.5t-26.5 70.5q0 67 65 116h-5q-93 0 -161.5 67t-68.5 186q0 117 67.5 194t184.5 77q78 0 132.5 -42.5t54.5 -117.5
q0 -59 -39.5 -93t-102.5 -34h-257q5 -90 58.5 -145t132.5 -55q102 0 178 71zM291 478q-89 0 -146.5 -58.5t-62.5 -159.5h255q46 0 76 25t30 70q0 56 -43.5 89.5t-108.5 33.5z" />
    <glyph glyph-name="Ecaron" unicode="&#x11a;" horiz-adv-x="569" 
d="M316 777q-11 0 -20 10l-130 119l23 23l127 -118l128 118l22 -23l-129 -119q-10 -10 -21 -10zM517 675h-383v-292h352v-39h-352v-305h377v-39h-418v685q0 14 8 21.5t21 7.5h395v-39z" />
    <glyph glyph-name="ecaron" unicode="&#x11b;" horiz-adv-x="524" 
d="M287 576q-11 0 -20 10l-130 119l23 23l127 -118l128 118l22 -23l-129 -119q-10 -10 -21 -10zM275 26q102 0 178 71l24 -29q-88 -79 -203 -79q-93 0 -161.5 67t-68.5 186q0 117 67.5 194t184.5 77q78 0 132.5 -42.5t54.5 -117.5q0 -59 -39.5 -93t-102.5 -34h-257
q5 -90 58.5 -145t132.5 -55zM292 478q-89 0 -146.5 -58.5t-62.5 -159.5h255q46 0 76 25t30 70q0 56 -43.5 89.5t-108.5 33.5z" />
    <glyph glyph-name="Gcircumflex" unicode="&#x11c;" horiz-adv-x="738" 
d="M258 768l-23 23l130 119q9 10 20 10t21 -10l129 -119l-22 -23l-128 118zM376 -11q-149 0 -237.5 99.5t-88.5 263.5q0 169 95 272t248 103q102 0 172.5 -46.5t99.5 -115.5l-37 -17q-26 65 -89.5 103t-146.5 38q-136 0 -218 -91.5t-82 -244.5q0 -148 78.5 -237t204.5 -89
q121 0 199.5 83t79.5 214h-261v38h302v-35q0 -156 -93 -247t-226 -91z" />
    <glyph glyph-name="gcircumflex" unicode="&#x11d;" horiz-adv-x="517" 
d="M264 694l-127 -118l-23 23l130 119q9 10 20 10t21 -10l129 -119l-22 -23zM407 46q79 -29 79 -105q0 -75 -64.5 -108.5t-168.5 -33.5q-97 0 -160.5 33.5t-63.5 103.5q0 85 90 129q-40 23 -40 69q0 50 51 76q-71 43 -71 132q0 77 54 121.5t146 44.5q77 0 127 -32
q52 23 86 61l23 -26q-29 -35 -79 -59q41 -43 41 -109q0 -76 -54 -120t-146 -44q-54 0 -97 16q-43 -15 -43 -56q0 -13 4 -22.5t16 -16.5t20.5 -11.5t30 -8t31 -5t37.5 -4.5q14 -2 43 -5.5t43 -5t33 -5.5t32 -9zM97 342q0 -61 42 -95t118 -34t119 34.5t43 95.5t-43 96t-118 35
q-76 0 -118.5 -35t-42.5 -97zM253 -165q193 0 193 105q0 22 -10 37.5t-23 24.5t-40.5 16t-46 9.5t-55.5 6.5q-6 1 -9 1q-78 9 -105 16q-41 -15 -65 -46t-24 -65q0 -55 53 -80t132 -25z" />
    <glyph glyph-name="Gbreve" unicode="&#x11e;" horiz-adv-x="738" 
d="M385 758q-72 0 -108.5 46t-39.5 107l34 1q2 -54 32 -89.5t82 -35.5q51 0 81 35.5t32 89.5l35 -1q-3 -61 -39.5 -107t-108.5 -46zM376 -11q-149 0 -237.5 99.5t-88.5 263.5q0 169 95 272t248 103q102 0 172.5 -46.5t99.5 -115.5l-37 -17q-26 65 -89.5 103t-146.5 38
q-136 0 -218 -91.5t-82 -244.5q0 -148 78.5 -237t204.5 -89q121 0 199.5 83t79.5 214h-261v38h302v-35q0 -156 -93 -247t-226 -91z" />
    <glyph glyph-name="gbreve" unicode="&#x11f;" horiz-adv-x="517" 
d="M264 561q-72 0 -108.5 46t-39.5 107l34 1q2 -54 32 -89.5t82 -35.5q51 0 81 35.5t32 89.5l35 -1q-3 -61 -39.5 -107t-108.5 -46zM407 46q79 -29 79 -105q0 -75 -64.5 -108.5t-168.5 -33.5q-97 0 -160.5 33.5t-63.5 103.5q0 85 90 129q-40 23 -40 69q0 50 51 76
q-71 43 -71 132q0 77 54 121.5t146 44.5q77 0 127 -32q52 23 86 61l23 -26q-29 -35 -79 -59q41 -43 41 -109q0 -76 -54 -120t-146 -44q-54 0 -97 16q-43 -15 -43 -56q0 -13 4 -22.5t16 -16.5t20.5 -11.5t30 -8t31 -5t37.5 -4.5q14 -2 43 -5.5t43 -5t33 -5.5t32 -9zM97 342
q0 -61 42 -95t118 -34t119 34.5t43 95.5t-43 96t-118 35q-76 0 -118.5 -35t-42.5 -97zM253 -165q193 0 193 105q0 22 -10 37.5t-23 24.5t-40.5 16t-46 9.5t-55.5 6.5q-6 1 -9 1q-78 9 -105 16q-41 -15 -65 -46t-24 -65q0 -55 53 -80t132 -25z" />
    <glyph glyph-name="Gdotaccent" unicode="&#x120;" horiz-adv-x="738" 
d="M385 780q-18 0 -28.5 11t-10.5 29t10.5 28.5t28.5 10.5q17 0 27.5 -10.5t10.5 -28.5t-10.5 -29t-27.5 -11zM376 -11q-149 0 -237.5 99.5t-88.5 263.5q0 169 95 272t248 103q102 0 172.5 -46.5t99.5 -115.5l-37 -17q-26 65 -89.5 103t-146.5 38q-136 0 -218 -91.5
t-82 -244.5q0 -148 78.5 -237t204.5 -89q121 0 199.5 83t79.5 214h-261v38h302v-35q0 -156 -93 -247t-226 -91z" />
    <glyph glyph-name="gdotaccent" unicode="&#x121;" horiz-adv-x="517" 
d="M265 590q-18 0 -28.5 11t-10.5 29t10.5 28.5t28.5 10.5q17 0 27.5 -10.5t10.5 -28.5t-10.5 -29t-27.5 -11zM407 46q79 -29 79 -105q0 -75 -64.5 -108.5t-168.5 -33.5q-97 0 -160.5 33.5t-63.5 103.5q0 85 90 129q-40 23 -40 69q0 50 51 76q-71 43 -71 132q0 77 54 121.5
t146 44.5q77 0 127 -32q52 23 86 61l23 -26q-29 -35 -79 -59q41 -43 41 -109q0 -76 -54 -120t-146 -44q-54 0 -97 16q-43 -15 -43 -56q0 -13 4 -22.5t16 -16.5t20.5 -11.5t30 -8t31 -5t37.5 -4.5q14 -2 43 -5.5t43 -5t33 -5.5t32 -9zM97 342q0 -61 42 -95t118 -34t119 34.5
t43 95.5t-43 96t-118 35q-76 0 -118.5 -35t-42.5 -97zM253 -165q193 0 193 105q0 22 -10 37.5t-23 24.5t-40.5 16t-46 9.5t-55.5 6.5q-6 1 -9 1q-78 9 -105 16q-41 -15 -65 -46t-24 -65q0 -55 53 -80t132 -25z" />
    <glyph glyph-name="Gcommaaccent" unicode="&#x122;" horiz-adv-x="738" 
d="M393 362h302v-35q0 -156 -93 -247t-226 -91q-149 0 -237.5 99.5t-88.5 263.5q0 169 95 272t248 103q102 0 172.5 -46.5t99.5 -115.5l-37 -17q-26 65 -89.5 103t-146.5 38q-136 0 -218 -91.5t-82 -244.5q0 -148 78.5 -237t204.5 -89q121 0 199.5 83t79.5 214h-261v38z
M382 -78q21 0 33 -15.5t12 -39.5q0 -28 -16.5 -57.5t-43.5 -51.5l-19 23q37 30 47 66q-7 -4 -16 -4q-18 0 -28 11t-10 28t12 28.5t29 11.5z" />
    <glyph glyph-name="gcommaaccent" unicode="&#x123;" horiz-adv-x="517" 
d="M261 578q-21 0 -33 15.5t-12 39.5q0 28 16.5 57.5t43.5 51.5l19 -23q-37 -30 -47 -66q7 4 16 4q18 0 28 -11t10 -28t-12 -28.5t-29 -11.5zM407 46q79 -29 79 -105q0 -75 -64.5 -108.5t-168.5 -33.5q-97 0 -160.5 33.5t-63.5 103.5q0 85 90 129q-40 23 -40 69q0 50 51 76
q-71 43 -71 132q0 77 54 121.5t146 44.5q77 0 127 -32q52 23 86 61l23 -26q-29 -35 -79 -59q41 -43 41 -109q0 -76 -54 -120t-146 -44q-54 0 -97 16q-43 -15 -43 -56q0 -13 4 -22.5t16 -16.5t20.5 -11.5t30 -8t31 -5t37.5 -4.5q14 -2 43 -5.5t43 -5t33 -5.5t32 -9zM97 342
q0 -61 42 -95t118 -34t119 34.5t43 95.5t-43 96t-118 35q-76 0 -118.5 -35t-42.5 -97zM253 -165q193 0 193 105q0 22 -10 37.5t-23 24.5t-40.5 16t-46 9.5t-55.5 6.5q-6 1 -9 1q-78 9 -105 16q-41 -15 -65 -46t-24 -65q0 -55 53 -80t132 -25z" />
    <glyph glyph-name="Hcircumflex" unicode="&#x124;" horiz-adv-x="699" 
d="M224 768l-23 23l130 119q9 10 20 10t21 -10l129 -119l-22 -23l-128 118zM93 0v714h41v-329h431v329h41v-714h-41v346h-431v-346h-41z" />
    <glyph glyph-name="hcircumflex" unicode="&#x125;" horiz-adv-x="571" 
d="M243 769l-128 118l-127 -118l-23 23l130 119q9 10 20 10t21 -10l129 -119zM349 513q74 0 112.5 -40.5t38.5 -115.5v-357h-39v352q0 123 -115 123q-101 0 -216 -107v-368h-40v714h40v-305q113 104 219 104z" />
    <glyph glyph-name="Hbar" unicode="&#x126;" horiz-adv-x="742" 
d="M721 577v-37h-93v-540h-41v346h-431v-346h-41v540h-94v37h94v137h41v-137h431v137h41v-137h93zM587 385v155h-431v-155h431z" />
    <glyph glyph-name="hbar" unicode="&#x127;" horiz-adv-x="562" 
d="M339 513q74 0 112.5 -40.5t38.5 -115.5v-357h-39v352q0 123 -115 123q-101 0 -216 -107v-368h-40v567h-70v34h70v113h40v-113h171v-34h-171v-158q113 104 219 104z" />
    <glyph glyph-name="Itilde" unicode="&#x128;" horiz-adv-x="247" 
d="M195 767q-33 0 -75 35.5t-65 35.5q-49 0 -63 -65l-30 8q10 46 35.5 67.5t57.5 21.5q33 0 74 -35t66 -35q46 0 64 67l32 -8q-11 -46 -38 -69t-58 -23zM104 0v714h41v-714h-41z" />
    <glyph glyph-name="itilde" unicode="&#x129;" horiz-adv-x="206" 
d="M172 579q-33 0 -75 35.5t-65 35.5q-49 0 -63 -65l-30 8q10 46 35.5 67.5t57.5 21.5q33 0 74 -35t66 -35q46 0 64 67l32 -8q-11 -46 -38 -69t-58 -23zM84 0v500h40v-500h-40z" />
    <glyph glyph-name="Imacron" unicode="&#x12a;" horiz-adv-x="255" 
d="M-6 843h269v-35h-269v35zM108 0v714h41v-714h-41z" />
    <glyph glyph-name="imacron" unicode="&#x12b;" horiz-adv-x="214" 
d="M-28 644h269v-35h-269v35zM87 0v500h40v-500h-40z" />
    <glyph glyph-name="Ibreve" unicode="&#x12c;" horiz-adv-x="273" 
d="M137 758q-72 0 -108.5 46t-39.5 107l34 1q2 -54 32 -89.5t82 -35.5q51 0 81 35.5t32 89.5l35 -1q-3 -61 -39.5 -107t-108.5 -46zM115 0v714h41v-714h-41z" />
    <glyph glyph-name="ibreve" unicode="&#x12d;" horiz-adv-x="232" 
d="M116 561q-72 0 -108.5 46t-39.5 107l34 1q2 -54 32 -89.5t82 -35.5q51 0 81 35.5t32 89.5l35 -1q-3 -61 -39.5 -107t-108.5 -46zM96 0v500h40v-500h-40z" />
    <glyph glyph-name="Iogonek" unicode="&#x12e;" horiz-adv-x="247" 
d="M173 -167l17 -24q-34 -34 -79 -34q-41 0 -67 26.5t-26 69.5q0 40 25.5 77t77.5 63v703h41v-714h-1q-53 -18 -81 -53t-28 -72q0 -30 17 -48.5t44 -18.5q32 0 60 25z" />
    <glyph glyph-name="iogonek" unicode="&#x12f;" horiz-adv-x="207" 
d="M126 590q-18 0 -28.5 11t-10.5 29t10.5 28.5t28.5 10.5q17 0 27.5 -10.5t10.5 -28.5t-10.5 -29t-27.5 -11zM159 -165l17 -25q-34 -34 -80 -34q-40 0 -66.5 26.5t-26.5 70.5q0 39 25 75.5t76 62.5v489h40v-499l1 -1q-52 -17 -80 -52t-28 -72q0 -30 17.5 -48.5t44.5 -18.5
q31 0 60 26z" />
    <glyph glyph-name="Idotaccent" unicode="&#x130;" horiz-adv-x="241" 
d="M122 780q-18 0 -28.5 11t-10.5 29t10.5 28.5t28.5 10.5q17 0 27.5 -10.5t10.5 -28.5t-10.5 -29t-27.5 -11zM100 0v714h41v-714h-41z" />
    <glyph glyph-name="dotlessi" unicode="&#x131;" horiz-adv-x="214" 
d="M87 0v500h40v-500h-40z" />
    <glyph glyph-name="IJ" unicode="&#x132;" horiz-adv-x="708" 
d="M93 0v714h41v-714h-41zM421 -11q-65 0 -111 29.5t-68 76.5l31 21q48 -89 149 -89q76 0 117.5 49t41.5 135v503h40v-509q0 -99 -53.5 -157.5t-146.5 -58.5z" />
    <glyph glyph-name="ij" unicode="&#x133;" horiz-adv-x="414" 
d="M100 590q-18 0 -28.5 11t-10.5 29t10.5 28.5t28.5 10.5q17 0 27.5 -10.5t10.5 -28.5t-10.5 -29t-27.5 -11zM315 590q-18 0 -28.5 11t-10.5 29t10.5 28.5t28.5 10.5q17 0 27.5 -10.5t10.5 -28.5t-10.5 -29t-27.5 -11zM79 0v500h40v-500h-40zM203 -195q-33 0 -63 11l10 36
q27 -10 51 -10q44 0 68.5 27t24.5 74v557h40v-557q0 -65 -36 -101.5t-95 -36.5z" />
    <glyph glyph-name="Jcircumflex" unicode="&#x134;" horiz-adv-x="500" 
d="M246 768l-23 23l130 119q9 10 20 10t21 -10l129 -119l-22 -23l-128 118zM193 -11q-65 0 -111 29.5t-68 76.5l31 21q48 -89 149 -89q76 0 117.5 49t41.5 135v503h40v-509q0 -99 -53.5 -157.5t-146.5 -58.5z" />
    <glyph glyph-name="jcircumflex" unicode="&#x135;" horiz-adv-x="240" 
d="M0 576l-23 23l130 119q9 10 20 10t21 -10l129 -119l-22 -23l-128 118zM16 -195q-33 0 -63 11l10 36q27 -10 51 -10q44 0 68.5 27t24.5 74v557h40v-557q0 -65 -36 -101.5t-95 -36.5z" />
    <glyph glyph-name="Kcommaaccent" unicode="&#x136;" horiz-adv-x="557" 
d="M177 345l386 -345h-59l-370 329v-329h-41v714h41v-358l350 358h52zM316 -78q21 0 33 -15.5t12 -39.5q0 -28 -16.5 -57.5t-43.5 -51.5l-19 23q37 30 47 66q-7 -4 -16 -4q-18 0 -28 11t-10 28t12 28.5t29 11.5z" />
    <glyph glyph-name="kcommaaccent" unicode="&#x137;" horiz-adv-x="434" 
d="M154 268l282 -268h-53l-270 259v-259h-39v714h39v-438l257 224h51zM255 -78q21 0 33 -15.5t12 -39.5q0 -28 -16.5 -57.5t-43.5 -51.5l-19 23q37 30 47 66q-7 -4 -16 -4q-18 0 -28 11t-10 28t12 28.5t29 11.5z" />
    <glyph glyph-name="kgreenlandic" unicode="&#x138;" horiz-adv-x="435" 
d="M437 0h-53l-270 259v-259h-39v500h39v-224l257 224h51l-267 -232z" />
    <glyph glyph-name="Lacute" unicode="&#x139;" horiz-adv-x="520" 
d="M44 785l159 145l27 -33l-168 -135zM107 0q-28 0 -28 29v685h41v-675h378v-39h-391z" />
    <glyph glyph-name="lacute" unicode="&#x13a;" horiz-adv-x="208" 
d="M29 785l159 145l27 -33l-168 -135zM85 0v714h41v-714h-41z" />
    <glyph glyph-name="Lcommaaccent" unicode="&#x13b;" horiz-adv-x="533" 
d="M133 39h378v-39h-391q-28 0 -28 29v685h41v-675zM304 -78q21 0 33 -15.5t12 -39.5q0 -28 -16.5 -57.5t-43.5 -51.5l-19 23q37 30 47 66q-7 -4 -16 -4q-18 0 -28 11t-10 28t12 28.5t29 11.5z" />
    <glyph glyph-name="lcommaaccent" unicode="&#x13c;" horiz-adv-x="199" 
d="M114 714v-714h-39v714h39zM97 -78q21 0 33 -15.5t12 -39.5q0 -28 -16.5 -57.5t-43.5 -51.5l-19 23q37 30 47 66q-7 -4 -16 -4q-18 0 -28 11t-10 28t12 28.5t29 11.5z" />
    <glyph glyph-name="Lcaron" unicode="&#x13d;" horiz-adv-x="536" 
d="M362 550l46 188l37 -7l-55 -186zM120 0q-28 0 -28 29v685h41v-675h378v-39h-391z" />
    <glyph glyph-name="lcaron" unicode="&#x13e;" horiz-adv-x="198" 
d="M183 557l46 188l37 -7l-55 -186zM74 0v714h39v-714h-39z" />
    <glyph glyph-name="Ldot" unicode="&#x13f;" horiz-adv-x="534" 
d="M120 0q-28 0 -28 29v685h41v-675h378v-39h-391zM374 315q-18 0 -28.5 11t-10.5 29t10.5 29t28.5 11t28.5 -11t10.5 -29t-10.5 -29t-28.5 -11z" />
    <glyph glyph-name="ldot" unicode="&#x140;" horiz-adv-x="266" 
d="M74 0v714h39v-714h-39zM243 302q-18 0 -28.5 11t-10.5 29t10.5 29t28.5 11t28.5 -11t10.5 -29t-10.5 -29t-28.5 -11z" />
    <glyph glyph-name="Lslash" unicode="&#x141;" horiz-adv-x="544" 
d="M144 39h378v-39h-391q-28 0 -28 29v265l-69 -46l-20 29l89 59v378h41v-350l128 85l19 -28l-147 -99v-283z" />
    <glyph glyph-name="lslash" unicode="&#x142;" horiz-adv-x="267" 
d="M251 394l-97 -64v-330h-39v304l-74 -49l-18 28l92 60v371h39v-345l81 53z" />
    <glyph glyph-name="Nacute" unicode="&#x143;" horiz-adv-x="723" 
d="M474 897l-168 -135l-18 23l159 145zM590 714h39v-701q0 -18 -22 -18q-18 0 -30 16l-445 640v-651h-39v700q0 8 6.5 13.5t16.5 5.5q18 0 32 -19l442 -633v647z" />
    <glyph glyph-name="nacute" unicode="&#x144;" horiz-adv-x="564" 
d="M388 691l-168 -135l-18 23l159 145zM341 513q75 0 113.5 -40.5t38.5 -115.5v-357h-40v352q0 123 -115 123q-107 0 -223 -107v-368h-40v500h39v-92q116 105 227 105z" />
    <glyph glyph-name="Ncommaaccent" unicode="&#x145;" horiz-adv-x="723" 
d="M590 714h39v-701q0 -18 -22 -18q-18 0 -30 16l-445 640v-651h-39v700q0 8 6.5 13.5t16.5 5.5q18 0 32 -19l442 -633v647zM364 -78q21 0 33 -15.5t12 -39.5q0 -28 -16.5 -57.5t-43.5 -51.5l-19 23q37 30 47 66q-7 -4 -16 -4q-18 0 -28 11t-10 28t12 28.5t29 11.5z" />
    <glyph glyph-name="ncommaaccent" unicode="&#x146;" horiz-adv-x="564" 
d="M341 513q75 0 113.5 -40.5t38.5 -115.5v-357h-40v352q0 123 -115 123q-107 0 -223 -107v-368h-40v500h39v-92q116 105 227 105zM281 -78q21 0 33 -15.5t12 -39.5q0 -28 -16.5 -57.5t-43.5 -51.5l-19 23q37 30 47 66q-7 -4 -16 -4q-18 0 -28 11t-10 28t12 28.5t29 11.5z
" />
    <glyph glyph-name="Ncaron" unicode="&#x147;" horiz-adv-x="723" 
d="M364 777q-11 0 -20 10l-130 119l23 23l127 -118l128 118l22 -23l-129 -119q-10 -10 -21 -10zM590 714h39v-701q0 -18 -22 -18q-18 0 -30 16l-445 640v-651h-39v700q0 8 6.5 13.5t16.5 5.5q18 0 32 -19l442 -633v647z" />
    <glyph glyph-name="ncaron" unicode="&#x148;" horiz-adv-x="564" 
d="M279 576q-11 0 -20 10l-130 119l23 23l127 -118l128 118l22 -23l-129 -119q-10 -10 -21 -10zM341 513q75 0 113.5 -40.5t38.5 -115.5v-357h-40v352q0 123 -115 123q-107 0 -223 -107v-368h-40v500h39v-92q116 105 227 105z" />
    <glyph glyph-name="napostrophe" unicode="&#x149;" horiz-adv-x="573" 
d="M73 748l34 -11l-75 -190l-27 9zM351 513q75 0 113.5 -40.5t38.5 -115.5v-357h-40v352q0 123 -115 123q-107 0 -223 -107v-368h-40v500h39v-92q116 105 227 105z" />
    <glyph glyph-name="Eng" unicode="&#x14a;" horiz-adv-x="714" 
d="M581 717h41v-709q0 -107 -53.5 -159t-132.5 -52q-77 0 -138 39l19 35q50 -35 120 -35q63 0 103 43.5t41 126.5l-449 645v-651h-39v700q0 8 6.5 13.5t16.5 5.5q18 0 32 -19l433 -620v637z" />
    <glyph glyph-name="eng" unicode="&#x14b;" 
d="M336 513q75 0 113.5 -40.5t38.5 -115.5v-414q0 -61 -36 -97t-93 -36q-49 0 -90 23l14 33q38 -19 73 -19q44 0 68.5 26t24.5 73v406q0 123 -117 123q-101 0 -217 -107v-368h-40v500h39v-92q116 105 222 105z" />
    <glyph glyph-name="Omacron" unicode="&#x14c;" horiz-adv-x="761" 
d="M246 843h269v-35h-269v35zM382 -11q-149 0 -240.5 101.5t-91.5 266.5q0 166 91.5 268t240.5 102q147 0 238 -102t91 -268q0 -165 -91 -266.5t-238 -101.5zM382 28q129 0 208 89.5t79 239.5q0 151 -79 241t-208 90q-130 0 -210 -90.5t-80 -240.5t80 -239.5t210 -89.5z" />
    <glyph glyph-name="omacron" unicode="&#x14d;" horiz-adv-x="557" 
d="M144 644h269v-35h-269v35zM279 -13q-107 0 -171.5 72.5t-63.5 190.5q1 120 66 191.5t169 71.5q106 0 170 -72t64 -191t-64 -191t-170 -72zM279 23q89 0 141.5 61t52.5 166q0 104 -52.5 165.5t-141.5 61.5q-88 0 -141.5 -61t-53.5 -166q-1 -104 52 -165.5t143 -61.5z" />
    <glyph glyph-name="Obreve" unicode="&#x14e;" horiz-adv-x="761" 
d="M382 758q-72 0 -108.5 46t-39.5 107l34 1q2 -54 32 -89.5t82 -35.5q51 0 81 35.5t32 89.5l35 -1q-3 -61 -39.5 -107t-108.5 -46zM382 -11q-149 0 -240.5 101.5t-91.5 266.5q0 166 91.5 268t240.5 102q147 0 238 -102t91 -268q0 -165 -91 -266.5t-238 -101.5zM382 28
q129 0 208 89.5t79 239.5q0 151 -79 241t-208 90q-130 0 -210 -90.5t-80 -240.5t80 -239.5t210 -89.5z" />
    <glyph glyph-name="obreve" unicode="&#x14f;" horiz-adv-x="557" 
d="M279 561q-72 0 -108.5 46t-39.5 107l34 1q2 -54 32 -89.5t82 -35.5q51 0 81 35.5t32 89.5l35 -1q-3 -61 -39.5 -107t-108.5 -46zM279 -13q-107 0 -171.5 72.5t-63.5 190.5q1 120 66 191.5t169 71.5q106 0 170 -72t64 -191t-64 -191t-170 -72zM279 23q89 0 141.5 61
t52.5 166q0 104 -52.5 165.5t-141.5 61.5q-88 0 -141.5 -61t-53.5 -166q-1 -104 52 -165.5t143 -61.5z" />
    <glyph glyph-name="Ohungarumlaut" unicode="&#x150;" horiz-adv-x="761" 
d="M296 777l96 184l34 -19l-106 -180zM404 777l98 184l35 -19l-109 -180zM382 -11q-149 0 -240.5 101.5t-91.5 266.5q0 166 91.5 268t240.5 102q147 0 238 -102t91 -268q0 -165 -91 -266.5t-238 -101.5zM382 28q129 0 208 89.5t79 239.5q0 151 -79 241t-208 90
q-130 0 -210 -90.5t-80 -240.5t80 -239.5t210 -89.5z" />
    <glyph glyph-name="ohungarumlaut" unicode="&#x151;" horiz-adv-x="557" 
d="M195 568l96 184l34 -19l-106 -180zM303 568l98 184l35 -19l-109 -180zM279 -13q-107 0 -171.5 72.5t-63.5 190.5q1 120 66 191.5t169 71.5q106 0 170 -72t64 -191t-64 -191t-170 -72zM279 23q89 0 141.5 61t52.5 166q0 104 -52.5 165.5t-141.5 61.5q-88 0 -141.5 -61
t-53.5 -166q-1 -104 52 -165.5t143 -61.5z" />
    <glyph glyph-name="OE" unicode="&#x152;" horiz-adv-x="1129" 
d="M1081 677h-387v-278q0 -2 0.5 -6t0.5 -7h342v-38h-342q0 -2 -0.5 -8t-0.5 -8v-293h378v-39h-419v166q-40 -84 -112.5 -130.5t-166.5 -46.5q-146 0 -235 101t-89 267t89.5 268t234.5 102q92 0 165 -45t114 -126v131q0 14 8 21.5t20 7.5h400v-39zM374 28q123 0 200 89
t79 240q2 148 -76.5 239.5t-202.5 91.5q-127 0 -204.5 -90.5t-77.5 -240.5t77 -239.5t205 -89.5z" />
    <glyph glyph-name="oe" unicode="&#x153;" horiz-adv-x="964" 
d="M714 26q104 0 180 71l24 -30q-90 -79 -205 -79q-68 0 -126 38t-85 108q-26 -70 -83 -108.5t-135 -38.5q-109 0 -175 72t-65 191t66.5 191t173.5 72q80 0 137.5 -40.5t82.5 -113.5q28 71 88 112t145 41q79 0 133 -42t54 -117q0 -60 -39.5 -94t-102.5 -34h-259
q5 -89 58.5 -144t132.5 -55zM735 478q-91 0 -149.5 -58.5t-63.5 -159.5h257q47 0 77 24.5t30 70.5q0 56 -43.5 89.5t-107.5 33.5zM283 23q93 0 146.5 61t53.5 166t-53.5 166t-145.5 61t-146 -61.5t-54 -165.5q-1 -104 52.5 -165.5t146.5 -61.5z" />
    <glyph glyph-name="Racute" unicode="&#x154;" horiz-adv-x="579" 
d="M403 897l-168 -135l-18 23l159 145zM483 0l-203 306h-146v-306h-41v685q0 29 27 29h192q108 0 164.5 -54t56.5 -154q0 -89 -54 -141t-151 -58l207 -307h-52zM134 675v-331h168q92 0 140.5 42t48.5 122q0 81 -46 124t-136 43h-175z" />
    <glyph glyph-name="racute" unicode="&#x155;" horiz-adv-x="358" 
d="M315 691l-168 -135l-18 23l159 145zM286 513q38 0 65 -11l-9 -36q-24 9 -58 9q-103 0 -170 -96v-379h-39v500h39v-73q30 40 75.5 63t96.5 23z" />
    <glyph glyph-name="Rcommaaccent" unicode="&#x156;" horiz-adv-x="579" 
d="M328 307l207 -307h-52l-203 306h-146v-306h-41v685q0 29 27 29h192q108 0 164.5 -54t56.5 -154q0 -89 -54 -141t-151 -58zM134 675v-331h168q92 0 140.5 42t48.5 122q0 81 -46 124t-136 43h-175zM303 -78q21 0 33 -15.5t12 -39.5q0 -28 -16.5 -57.5t-43.5 -51.5l-19 23
q37 30 47 66q-7 -4 -16 -4q-18 0 -28 11t-10 28t12 28.5t29 11.5z" />
    <glyph glyph-name="rcommaaccent" unicode="&#x157;" horiz-adv-x="366" 
d="M294 513q37 0 65 -11l-9 -36q-24 9 -58 9q-103 0 -170 -96v-379h-39v500h39v-73q30 40 75.5 63t96.5 23zM104 -78q21 0 33 -15.5t12 -39.5q0 -28 -16.5 -57.5t-43.5 -51.5l-19 23q37 30 47 66q-7 -4 -16 -4q-18 0 -28 11t-10 28t12 28.5t29 11.5z" />
    <glyph glyph-name="Rcaron" unicode="&#x158;" horiz-adv-x="579" 
d="M293 777q-11 0 -20 10l-130 119l23 23l127 -118l128 118l22 -23l-129 -119q-10 -10 -21 -10zM483 0l-203 306h-146v-306h-41v685q0 29 27 29h192q108 0 164.5 -54t56.5 -154q0 -89 -54 -141t-151 -58l207 -307h-52zM134 675v-331h168q92 0 140.5 42t48.5 122
q0 81 -46 124t-136 43h-175z" />
    <glyph glyph-name="rcaron" unicode="&#x159;" horiz-adv-x="376" 
d="M219 576q-11 0 -20 10l-130 119l23 23l127 -118l128 118l22 -23l-129 -119q-10 -10 -21 -10zM126 427q30 40 75.5 63t96.5 23q38 0 65 -11l-9 -36q-24 9 -58 9q-103 0 -170 -96v-379h-39v500h39v-73z" />
    <glyph glyph-name="Sacute" unicode="&#x15a;" horiz-adv-x="551" 
d="M202 785l159 145l27 -33l-168 -135zM269 -11q-73 0 -136 30t-99 83l29 25q35 -48 89.5 -74t117.5 -26q89 0 145 44t56 118q0 79 -78 118q-27 13 -122 42q-51 16 -81 28.5t-62.5 34.5t-47.5 53.5t-15 74.5q0 92 64 139.5t164 47.5q108 0 198 -67l-23 -31q-79 60 -176 60
q-86 0 -136.5 -38t-50.5 -110q0 -28 10.5 -50.5t23.5 -36.5t42.5 -28.5t49 -21.5t60.5 -20q6 -2 19 -6q40 -12 60 -19.5t52 -24t48.5 -33.5t29 -46t12.5 -65q0 -96 -70.5 -148.5t-172.5 -52.5z" />
    <glyph glyph-name="sacute" unicode="&#x15b;" horiz-adv-x="449" 
d="M160 579l159 145l27 -33l-168 -135zM219 -11q-124 0 -191 79l24 26q63 -69 168 -69q68 0 110.5 28.5t42.5 80.5q0 43 -32.5 62t-123.5 44q-31 9 -49.5 15t-42.5 18t-37 24.5t-22.5 33t-9.5 45.5q0 66 52 101.5t128 35.5q96 0 165 -54l-20 -29q-63 48 -145 48
q-65 0 -103 -27.5t-38 -73.5q0 -40 32 -61.5t105 -41.5q33 -9 42.5 -12t36 -11.5t35 -14t25.5 -17t23 -22.5t11.5 -27.5t5.5 -36.5q0 -70 -55.5 -107t-136.5 -37z" />
    <glyph glyph-name="Scircumflex" unicode="&#x15c;" horiz-adv-x="551" 
d="M152 768l-23 23l130 119q9 10 20 10t21 -10l129 -119l-22 -23l-128 118zM269 -11q-73 0 -136 30t-99 83l29 25q35 -48 89.5 -74t117.5 -26q89 0 145 44t56 118q0 79 -78 118q-27 13 -122 42q-51 16 -81 28.5t-62.5 34.5t-47.5 53.5t-15 74.5q0 92 64 139.5t164 47.5
q108 0 198 -67l-23 -31q-79 60 -176 60q-86 0 -136.5 -38t-50.5 -110q0 -28 10.5 -50.5t23.5 -36.5t42.5 -28.5t49 -21.5t60.5 -20q6 -2 19 -6q40 -12 60 -19.5t52 -24t48.5 -33.5t29 -46t12.5 -65q0 -96 -70.5 -148.5t-172.5 -52.5z" />
    <glyph glyph-name="scircumflex" unicode="&#x15d;" horiz-adv-x="449" 
d="M110 576l-23 23l130 119q9 10 20 10t21 -10l129 -119l-22 -23l-128 118zM219 -11q-124 0 -191 79l24 26q63 -69 168 -69q68 0 110.5 28.5t42.5 80.5q0 43 -32.5 62t-123.5 44q-31 9 -49.5 15t-42.5 18t-37 24.5t-22.5 33t-9.5 45.5q0 66 52 101.5t128 35.5q96 0 165 -54
l-20 -29q-63 48 -145 48q-65 0 -103 -27.5t-38 -73.5q0 -40 32 -61.5t105 -41.5q33 -9 42.5 -12t36 -11.5t35 -14t25.5 -17t23 -22.5t11.5 -27.5t5.5 -36.5q0 -70 -55.5 -107t-136.5 -37z" />
    <glyph glyph-name="Scedilla" unicode="&#x15e;" horiz-adv-x="551" 
d="M269 -11q-73 0 -136 30t-99 83l29 25q35 -48 89.5 -74t117.5 -26q89 0 145 44t56 118q0 79 -78 118q-27 13 -122 42q-51 16 -81 28.5t-62.5 34.5t-47.5 53.5t-15 74.5q0 92 64 139.5t164 47.5q108 0 198 -67l-23 -31q-79 60 -176 60q-86 0 -136.5 -38t-50.5 -110
q0 -28 10.5 -50.5t23.5 -36.5t42.5 -28.5t49 -21.5t60.5 -20q6 -2 19 -6q40 -12 60 -19.5t52 -24t48.5 -33.5t29 -46t12.5 -65q0 -96 -70.5 -148.5t-172.5 -52.5zM239 -235q-59 0 -102 27l13 27q36 -23 87 -23q40 0 65 18t25 50q0 68 -110 62l1 28q72 6 107.5 -20.5
t35.5 -70.5q0 -43 -33.5 -70.5t-88.5 -27.5z" />
    <glyph glyph-name="scedilla" unicode="&#x15f;" horiz-adv-x="449" 
d="M219 -11q-124 0 -191 79l24 26q63 -69 168 -69q68 0 110.5 28.5t42.5 80.5q0 43 -32.5 62t-123.5 44q-31 9 -49.5 15t-42.5 18t-37 24.5t-22.5 33t-9.5 45.5q0 66 52 101.5t128 35.5q96 0 165 -54l-20 -29q-63 48 -145 48q-65 0 -103 -27.5t-38 -73.5q0 -40 32 -61.5
t105 -41.5q33 -9 42.5 -12t36 -11.5t35 -14t25.5 -17t23 -22.5t11.5 -27.5t5.5 -36.5q0 -70 -55.5 -107t-136.5 -37zM200 -238q-59 0 -102 27l13 27q36 -23 87 -23q40 0 65 18t25 50q0 68 -110 62l1 28q72 6 107.5 -20.5t35.5 -70.5q0 -43 -33.5 -70.5t-88.5 -27.5z" />
    <glyph glyph-name="Scaron" unicode="&#x160;" horiz-adv-x="551" 
d="M151 929l127 -118l128 118l22 -23l-129 -119q-10 -10 -21 -10t-20 10l-130 119zM269 -11q-73 0 -136 30t-99 83l29 25q35 -48 89.5 -74t117.5 -26q89 0 145 44t56 118q0 79 -78 118q-27 13 -122 42q-51 16 -81 28.5t-62.5 34.5t-47.5 53.5t-15 74.5q0 92 64 139.5
t164 47.5q108 0 198 -67l-23 -31q-79 60 -176 60q-86 0 -136.5 -38t-50.5 -110q0 -28 10.5 -50.5t23.5 -36.5t42.5 -28.5t49 -21.5t60.5 -20q6 -2 19 -6q40 -12 60 -19.5t52 -24t48.5 -33.5t29 -46t12.5 -65q0 -96 -70.5 -148.5t-172.5 -52.5z" />
    <glyph glyph-name="scaron" unicode="&#x161;" horiz-adv-x="449" 
d="M110 728l127 -118l128 118l22 -23l-129 -119q-10 -10 -21 -10t-20 10l-130 119zM219 -11q-124 0 -191 79l24 26q63 -69 168 -69q68 0 110.5 28.5t42.5 80.5q0 43 -32.5 62t-123.5 44q-31 9 -49.5 15t-42.5 18t-37 24.5t-22.5 33t-9.5 45.5q0 66 52 101.5t128 35.5
q96 0 165 -54l-20 -29q-63 48 -145 48q-65 0 -103 -27.5t-38 -73.5q0 -40 32 -61.5t105 -41.5q33 -9 42.5 -12t36 -11.5t35 -14t25.5 -17t23 -22.5t11.5 -27.5t5.5 -36.5q0 -70 -55.5 -107t-136.5 -37z" />
    <glyph glyph-name="Tcaron" unicode="&#x164;" horiz-adv-x="550" 
d="M148 929l127 -118l128 118l22 -23l-129 -119q-10 -10 -21 -10t-20 10l-130 119zM529 714v-39h-234v-675h-41v675h-233v39h508z" />
    <glyph glyph-name="tcaron" unicode="&#x165;" horiz-adv-x="371" 
d="M367 738l-55 -186l-28 5l46 188zM363 67l17 -32q-59 -44 -132 -44q-76 0 -113 46t-37 126v302h-80v35h80v155h39v-155h218v-35h-218v-303q0 -133 114 -133q58 0 112 38z" />
    <glyph glyph-name="Tbar" unicode="&#x166;" horiz-adv-x="560" 
d="M534 675h-234v-289h145v-38h-145v-348h-41v348h-144v38h144v289h-233v39h508v-39z" />
    <glyph glyph-name="tbar" unicode="&#x167;" horiz-adv-x="396" 
d="M371 67l17 -32q-59 -44 -132 -44q-76 0 -113 46t-37 126v99h-81v34h81v169h-80v35h80v155h39v-155h218v-35h-218v-169h216v-34h-216v-100q0 -133 114 -133q58 0 112 38z" />
    <glyph glyph-name="Utilde" unicode="&#x168;" horiz-adv-x="676" 
d="M408 767q-33 0 -75 35.5t-65 35.5q-49 0 -63 -65l-30 8q10 46 35.5 67.5t57.5 21.5q33 0 74 -35t66 -35q46 0 64 67l32 -8q-11 -46 -38 -69t-58 -23zM337 -11q-119 0 -185 66.5t-66 184.5v474h41v-472q0 -102 54 -158t156 -56t157 56t55 158v472h41v-474
q0 -118 -66.5 -184.5t-186.5 -66.5z" />
    <glyph glyph-name="utilde" unicode="&#x169;" 
d="M211 650q-49 0 -63 -65l-30 8q10 46 35.5 67.5t57.5 21.5q33 0 74 -35t66 -35q46 0 64 67l32 -8q-11 -46 -38 -69t-58 -23q-33 0 -75 35.5t-65 35.5zM444 500h40v-501h-40v88q-112 -100 -225 -100q-148 0 -148 156v357h39v-353q0 -62 27 -92t86 -30q108 0 221 101v374z
" />
    <glyph glyph-name="Umacron" unicode="&#x16a;" horiz-adv-x="676" 
d="M203 843h269v-35h-269v35zM337 -11q-119 0 -185 66.5t-66 184.5v474h41v-472q0 -102 54 -158t156 -56t157 56t55 158v472h41v-474q0 -118 -66.5 -184.5t-186.5 -66.5z" />
    <glyph glyph-name="umacron" unicode="&#x16b;" 
d="M416 644v-35h-269v35h269zM444 500h40v-501h-40v88q-112 -100 -225 -100q-148 0 -148 156v357h39v-353q0 -62 27 -92t86 -30q108 0 221 101v374z" />
    <glyph glyph-name="Ubreve" unicode="&#x16c;" horiz-adv-x="676" 
d="M339 758q-72 0 -108.5 46t-39.5 107l34 1q2 -54 32 -89.5t82 -35.5q51 0 81 35.5t32 89.5l35 -1q-3 -61 -39.5 -107t-108.5 -46zM337 -11q-119 0 -185 66.5t-66 184.5v474h41v-472q0 -102 54 -158t156 -56t157 56t55 158v472h41v-474q0 -118 -66.5 -184.5t-186.5 -66.5z
" />
    <glyph glyph-name="ubreve" unicode="&#x16d;" 
d="M283 561q-72 0 -108.5 46t-39.5 107l34 1q2 -54 32 -89.5t82 -35.5q51 0 81 35.5t32 89.5l35 -1q-3 -61 -39.5 -107t-108.5 -46zM444 500h40v-501h-40v88q-112 -100 -225 -100q-148 0 -148 156v357h39v-353q0 -62 27 -92t86 -30q108 0 221 101v374z" />
    <glyph glyph-name="Uring" unicode="&#x16e;" horiz-adv-x="676" 
d="M339 744q-41 0 -68.5 27t-27.5 67q0 39 28 66t68 27t67.5 -27t27.5 -66q0 -40 -27.5 -67t-67.5 -27zM339 771q29 0 48 19.5t19 47.5t-19.5 47t-47.5 19q-29 0 -49 -19t-20 -47t20 -47.5t49 -19.5zM337 -11q-119 0 -185 66.5t-66 184.5v474h41v-472q0 -102 54 -158
t156 -56t157 56t55 158v472h41v-474q0 -118 -66.5 -184.5t-186.5 -66.5z" />
    <glyph glyph-name="uring" unicode="&#x16f;" 
d="M283 555q-41 0 -68.5 27t-27.5 67q0 39 28 66t68 27t67.5 -27t27.5 -66q0 -40 -27.5 -67t-67.5 -27zM283 715q-29 0 -49 -19t-20 -47t20 -47.5t49 -19.5t48 19t19 48q0 28 -19.5 47t-47.5 19zM444 500h40v-501h-40v88q-112 -100 -225 -100q-148 0 -148 156v357h39v-353
q0 -62 27 -92t86 -30q108 0 221 101v374z" />
    <glyph glyph-name="Uhungarumlaut" unicode="&#x170;" horiz-adv-x="676" 
d="M253 777l96 184l34 -19l-106 -180zM361 777l98 184l35 -19l-109 -180zM337 -11q-119 0 -185 66.5t-66 184.5v474h41v-472q0 -102 54 -158t156 -56t157 56t55 158v472h41v-474q0 -118 -66.5 -184.5t-186.5 -66.5z" />
    <glyph glyph-name="uhungarumlaut" unicode="&#x171;" 
d="M329 733l-106 -180l-24 15l96 184zM331 553l-24 15l98 184l35 -19zM444 500h40v-501h-40v88q-112 -100 -225 -100q-148 0 -148 156v357h39v-353q0 -62 27 -92t86 -30q108 0 221 101v374z" />
    <glyph glyph-name="Uogonek" unicode="&#x172;" horiz-adv-x="676" 
d="M549 714h41v-474q0 -103 -51 -167.5t-145 -79.5q-50 -19 -76 -53t-26 -69q0 -30 17.5 -48.5t44.5 -18.5q33 0 60 26l17 -25q-34 -34 -79 -34q-41 0 -67 26.5t-26 70.5q0 73 71 121q-116 2 -180 68t-64 183v474h41v-472q0 -102 54 -158t156 -56t157 56t55 158v472z" />
    <glyph glyph-name="uogonek" unicode="&#x173;" horiz-adv-x="545" 
d="M497 -166l17 -25q-34 -34 -79 -34q-41 0 -67.5 26.5t-26.5 70.5q0 39 25.5 76t77.5 63v76q-112 -100 -225 -100q-148 0 -148 156v357h39v-353q0 -62 27 -92t86 -30q108 0 221 101v374h40v-501h-1q-52 -17 -79.5 -51.5t-27.5 -72.5q0 -30 17 -48.5t44 -18.5q31 0 60 26z
" />
    <glyph glyph-name="Wcircumflex" unicode="&#x174;" horiz-adv-x="903" 
d="M453 886l-127 -118l-23 23l130 119q9 10 20 10t21 -10l129 -119l-22 -23zM836 714h43l-192 -704q-5 -21 -33 -21q-27 0 -32 21l-170 531l-170 -531q-7 -21 -33 -21q-27 0 -32 21l-191 704h44l180 -679l182 566h40l183 -564z" />
    <glyph glyph-name="wcircumflex" unicode="&#x175;" horiz-adv-x="736" 
d="M369 694l-127 -118l-23 23l130 119q9 10 20 10t21 -10l129 -119l-22 -23zM674 500h42l-149 -482q-9 -24 -31 -24q-23 0 -32 24l-135 437l-135 -437q-11 -24 -32 -24q-23 0 -32 24l-149 482h43l139 -462l144 462h43l146 -460z" />
    <glyph glyph-name="Ycircumflex" unicode="&#x176;" horiz-adv-x="571" 
d="M288 886l-127 -118l-23 23l130 119q9 10 20 10t21 -10l129 -119l-22 -23zM554 714l-247 -417v-297h-41v296l-248 418h47l221 -376l222 375z" />
    <glyph glyph-name="ycircumflex" unicode="&#x177;" horiz-adv-x="492" 
d="M261 694l-127 -118l-23 23l130 119q9 10 20 10t21 -10l129 -119l-22 -23zM437 500h43l-238 -584q-48 -116 -141 -116q-59 0 -96 37l19 28q34 -29 76 -29q72 0 109 95l20 54l-207 515h41l186 -469z" />
    <glyph glyph-name="Ydieresis" unicode="&#x178;" horiz-adv-x="571" 
d="M208 782q-17 0 -27.5 10.5t-10.5 28.5t10.5 28.5t27.5 10.5t27.5 -10.5t10.5 -28.5t-10.5 -28.5t-27.5 -10.5zM369 782q-18 0 -28.5 10.5t-10.5 28.5t10.5 28.5t28.5 10.5q17 0 27.5 -10.5t10.5 -28.5t-10.5 -28.5t-27.5 -10.5zM554 714l-247 -417v-297h-41v296l-248 418
h47l221 -376l222 375z" />
    <glyph glyph-name="Zacute" unicode="&#x179;" horiz-adv-x="543" 
d="M206 785l159 145l27 -33l-168 -135zM48 0q-15 0 -20.5 16.5t4.5 31.5l416 627h-400v39h425q15 0 21 -16t-4 -32l-417 -627h431v-39h-456z" />
    <glyph glyph-name="zacute" unicode="&#x17a;" horiz-adv-x="451" 
d="M145 579l159 145l27 -33l-168 -135zM54 0q-18 0 -23 17t5 28l330 420h-319v35h337q19 0 24.5 -16.5t-5.5 -29.5l-327 -419h336v-35h-358z" />
    <glyph glyph-name="Zdotaccent" unicode="&#x17b;" horiz-adv-x="543" 
d="M283 780q-18 0 -28.5 11t-10.5 29t10.5 28.5t28.5 10.5q17 0 27.5 -10.5t10.5 -28.5t-10.5 -29t-27.5 -11zM48 0q-15 0 -20.5 16.5t4.5 31.5l416 627h-400v39h425q15 0 21 -16t-4 -32l-417 -627h431v-39h-456z" />
    <glyph glyph-name="zdotaccent" unicode="&#x17c;" horiz-adv-x="451" 
d="M224 590q-18 0 -28.5 11t-10.5 29t10.5 28.5t28.5 10.5q17 0 27.5 -10.5t10.5 -28.5t-10.5 -29t-27.5 -11zM54 0q-18 0 -23 17t5 28l330 420h-319v35h337q19 0 24.5 -16.5t-5.5 -29.5l-327 -419h336v-35h-358z" />
    <glyph glyph-name="Zcaron" unicode="&#x17d;" horiz-adv-x="543" 
d="M155 929l127 -118l128 118l22 -23l-129 -119q-10 -10 -21 -10t-20 10l-130 119zM48 0q-15 0 -20.5 16.5t4.5 31.5l416 627h-400v39h425q15 0 21 -16t-4 -32l-417 -627h431v-39h-456z" />
    <glyph glyph-name="zcaron" unicode="&#x17e;" horiz-adv-x="451" 
d="M95 728l127 -118l128 118l22 -23l-129 -119q-10 -10 -21 -10t-20 10l-130 119zM54 0q-18 0 -23 17t5 28l330 420h-319v35h337q19 0 24.5 -16.5t-5.5 -29.5l-327 -419h336v-35h-358z" />
    <glyph glyph-name="Scommaaccent" unicode="&#x218;" horiz-adv-x="551" 
d="M291 384q6 -2 19 -6q40 -12 60 -19.5t52 -24t48.5 -33.5t29 -46t12.5 -65q0 -96 -70.5 -148.5t-172.5 -52.5q-73 0 -136 30t-99 83l29 25q35 -48 89.5 -74t117.5 -26q89 0 145 44t56 118q0 79 -78 118q-27 13 -122 42q-51 16 -81 28.5t-62.5 34.5t-47.5 53.5t-15 74.5
q0 92 64 139.5t164 47.5q108 0 198 -67l-23 -31q-79 60 -176 60q-86 0 -136.5 -38t-50.5 -110q0 -28 10.5 -50.5t23.5 -36.5t42.5 -28.5t49 -21.5t60.5 -20zM267 -78q21 0 33 -15.5t12 -39.5q0 -28 -16.5 -57.5t-43.5 -51.5l-19 23q37 30 47 66q-7 -4 -16 -4q-18 0 -28 11
t-10 28t12 28.5t29 11.5z" />
    <glyph glyph-name="scommaaccent" unicode="&#x219;" horiz-adv-x="449" 
d="M232 274q33 -9 42.5 -12t36 -11.5t35 -14t25.5 -17t23 -22.5t11.5 -27.5t5.5 -36.5q0 -70 -55.5 -107t-136.5 -37q-124 0 -191 79l24 26q63 -69 168 -69q68 0 110.5 28.5t42.5 80.5q0 43 -32.5 62t-123.5 44q-31 9 -49.5 15t-42.5 18t-37 24.5t-22.5 33t-9.5 45.5
q0 66 52 101.5t128 35.5q96 0 165 -54l-20 -29q-63 48 -145 48q-65 0 -103 -27.5t-38 -73.5q0 -40 32 -61.5t105 -41.5zM218 -78q21 0 33 -15.5t12 -39.5q0 -28 -16.5 -57.5t-43.5 -51.5l-19 23q37 30 47 66q-7 -4 -16 -4q-18 0 -28 11t-10 28t12 28.5t29 11.5z" />
    <glyph glyph-name="uni021A" unicode="&#x21a;" horiz-adv-x="550" 
d="M21 714h508v-39h-234v-675h-41v675h-233v39zM275 -78q21 0 33 -15.5t12 -39.5q0 -28 -16.5 -57.5t-43.5 -51.5l-19 23q37 30 47 66q-7 -4 -16 -4q-18 0 -28 11t-10 28t12 28.5t29 11.5z" />
    <glyph glyph-name="uni021B" unicode="&#x21b;" horiz-adv-x="365" 
d="M367 35q-59 -44 -132 -44q-76 0 -113 46t-37 126v302h-80v35h80v155h39v-155h218v-35h-218v-303q0 -133 114 -133q58 0 112 38zM205 -72q21 0 33 -15.5t12 -39.5q0 -28 -16.5 -57.5t-43.5 -51.5l-19 23q37 30 47 66q-7 -4 -16 -4q-18 0 -28 11t-10 28t12 28.5t29 11.5z
" />
    <glyph glyph-name="uni0237" unicode="&#x237;" horiz-adv-x="214" 
d="M-4 -195q-33 0 -63 11l10 36q27 -10 51 -10q44 0 68.5 27t24.5 74v557h40v-557q0 -65 -36 -101.5t-95 -36.5z" />
    <glyph glyph-name="circumflex" unicode="&#x2c6;" horiz-adv-x="532" 
d="M139 576l-23 23l130 119q9 10 20 10t21 -10l129 -119l-22 -23l-128 118z" />
    <glyph glyph-name="caron" unicode="&#x2c7;" horiz-adv-x="507" 
d="M127 728l127 -118l128 118l22 -23l-129 -119q-10 -10 -21 -10t-20 10l-130 119z" />
    <glyph glyph-name="breve" unicode="&#x2d8;" horiz-adv-x="400" 
d="M200 561q-72 0 -108.5 46t-39.5 107l34 1q2 -54 32 -89.5t82 -35.5q51 0 81 35.5t32 89.5l35 -1q-3 -61 -39.5 -107t-108.5 -46z" />
    <glyph glyph-name="dotaccent" unicode="&#x2d9;" horiz-adv-x="272" 
d="M136 585q-18 0 -28.5 11t-10.5 29t10.5 28.5t28.5 10.5q17 0 27.5 -10.5t10.5 -28.5t-10.5 -29t-27.5 -11z" />
    <glyph glyph-name="ring" unicode="&#x2da;" horiz-adv-x="356" 
d="M179 555q-41 0 -68.5 27t-27.5 67q0 39 28 66t68 27t67.5 -27t27.5 -66q0 -40 -27.5 -67t-67.5 -27zM179 582q29 0 48 19t19 48q0 28 -19.5 47t-47.5 19q-29 0 -49 -19t-20 -47t20 -47.5t49 -19.5z" />
    <glyph glyph-name="ogonek" unicode="&#x2db;" horiz-adv-x="357" 
d="M185 -223q-41 0 -67 26.5t-26 70.5q0 43 29.5 81.5t89.5 63.5l25 -17q-54 -18 -82 -53t-28 -72q0 -30 17 -48.5t44 -18.5q33 0 60 26l18 -24q-31 -35 -80 -35z" />
    <glyph glyph-name="tilde" unicode="&#x2dc;" horiz-adv-x="470" 
d="M304 579q-33 0 -75 35.5t-65 35.5q-49 0 -63 -65l-30 8q10 46 35.5 67.5t57.5 21.5q33 0 74 -35t66 -35q46 0 64 67l32 -8q-11 -46 -38 -69t-58 -23z" />
    <glyph glyph-name="hungarumlaut" unicode="&#x2dd;" horiz-adv-x="401" 
d="M80 568l96 184l34 -19l-106 -180zM188 568l98 184l35 -19l-109 -180z" />
    <glyph glyph-name="uni0394" unicode="&#x394;" horiz-adv-x="744" 
d="M33 0v36l302 657q14 29 38 29q23 0 37 -29l302 -657v-36h-679zM78 39h589l-294 646z" />
    <glyph glyph-name="uni03A9" unicode="&#x3a9;" horiz-adv-x="737" 
d="M702 361q0 -107 -51.5 -192.5t-136.5 -130.5h170v-38h-242v35q101 43 160 126t59 200q0 145 -82.5 236t-210.5 91q-127 0 -209.5 -91.5t-82.5 -235.5q0 -116 59.5 -199t159.5 -127v-35h-242v38h169q-85 45 -136.5 130.5t-51.5 192.5q0 160 94 263t240 103t240 -103
t94 -263z" />
    <glyph glyph-name="uni03BC" unicode="&#x3bc;" horiz-adv-x="592" 
d="M469 126q0 -54 15.5 -76.5t62.5 -27.5l-5 -35q-51 3 -77 24.5t-32 64.5q-74 -89 -173 -89q-86 0 -134 65v-238h-39v686h39v-350q0 -57 41 -91.5t98 -34.5q92 0 165 96v380h39v-374z" />
    <glyph glyph-name="pi" unicode="&#x3c0;" horiz-adv-x="524" 
d="M531 465h-88v-338q0 -45 12 -67t48 -43l-18 -34q-43 24 -62 52.5t-19 87.5v342h-277v-465h-40v465h-87v35h531v-35z" />
    <glyph glyph-name="Wgrave" unicode="&#x1e80;" horiz-adv-x="903" 
d="M541 786l-18 -23l-168 135l27 33zM836 714h43l-192 -704q-5 -21 -33 -21q-27 0 -32 21l-170 531l-170 -531q-7 -21 -33 -21q-27 0 -32 21l-191 704h44l180 -679l182 566h40l183 -564z" />
    <glyph glyph-name="wgrave" unicode="&#x1e81;" horiz-adv-x="736" 
d="M456 579l-18 -23l-168 135l27 33zM674 500h42l-149 -482q-9 -24 -31 -24q-23 0 -32 24l-135 437l-135 -437q-11 -24 -32 -24q-23 0 -32 24l-149 482h43l139 -462l144 462h43l146 -460z" />
    <glyph glyph-name="Wacute" unicode="&#x1e82;" horiz-adv-x="903" 
d="M562 897l-168 -135l-18 23l159 145zM836 714h43l-192 -704q-5 -21 -33 -21q-27 0 -32 21l-170 531l-170 -531q-7 -21 -33 -21q-27 0 -32 21l-191 704h44l180 -679l182 566h40l183 -564z" />
    <glyph glyph-name="wacute" unicode="&#x1e83;" horiz-adv-x="736" 
d="M478 691l-168 -135l-18 23l159 145zM674 500h42l-149 -482q-9 -24 -31 -24q-23 0 -32 24l-135 437l-135 -437q-11 -24 -32 -24q-23 0 -32 24l-149 482h43l139 -462l144 462h43l146 -460z" />
    <glyph glyph-name="Wdieresis" unicode="&#x1e84;" horiz-adv-x="903" 
d="M374 782q-17 0 -27.5 10.5t-10.5 28.5t10.5 28.5t27.5 10.5t27.5 -10.5t10.5 -28.5t-10.5 -28.5t-27.5 -10.5zM535 782q-18 0 -28.5 10.5t-10.5 28.5t10.5 28.5t28.5 10.5q17 0 27.5 -10.5t10.5 -28.5t-10.5 -28.5t-27.5 -10.5zM836 714h43l-192 -704q-5 -21 -33 -21
q-27 0 -32 21l-170 531l-170 -531q-7 -21 -33 -21q-27 0 -32 21l-191 704h44l180 -679l182 566h40l183 -564z" />
    <glyph glyph-name="wdieresis" unicode="&#x1e85;" horiz-adv-x="736" 
d="M289 571q-17 0 -27.5 10.5t-10.5 28.5t10.5 28.5t27.5 10.5t27.5 -10.5t10.5 -28.5t-10.5 -28.5t-27.5 -10.5zM450 571q-18 0 -28.5 10.5t-10.5 28.5t10.5 28.5t28.5 10.5q17 0 27.5 -10.5t10.5 -28.5t-10.5 -28.5t-27.5 -10.5zM674 500h42l-149 -482q-9 -24 -31 -24
q-23 0 -32 24l-135 437l-135 -437q-11 -24 -32 -24q-23 0 -32 24l-149 482h43l139 -462l144 462h43l146 -460z" />
    <glyph glyph-name="Ygrave" unicode="&#x1ef2;" horiz-adv-x="571" 
d="M349 793l-18 -23l-168 135l27 33zM554 714l-247 -417v-297h-41v296l-248 418h47l221 -376l222 375z" />
    <glyph glyph-name="ygrave" unicode="&#x1ef3;" horiz-adv-x="492" 
d="M348 579l-18 -23l-168 135l27 33zM437 500h43l-238 -584q-48 -116 -141 -116q-59 0 -96 37l19 28q34 -29 76 -29q72 0 109 95l20 54l-207 515h41l186 -469z" />
    <glyph glyph-name="uni2009" unicode="&#x2009;" horiz-adv-x="75" 
 />
    <glyph glyph-name="endash" unicode="&#x2013;" horiz-adv-x="650" 
d="M70 314h510v-35h-510v35z" />
    <glyph glyph-name="emdash" unicode="&#x2014;" horiz-adv-x="890" 
d="M70 314h750v-35h-750v35z" />
    <glyph glyph-name="quoteleft" unicode="&#x2018;" horiz-adv-x="185" 
d="M95 699q17 0 28 -11.5t11 -27.5q0 -18 -13 -30t-32 -12q-21 0 -34.5 14.5t-13.5 40.5q0 34 23.5 67.5t62.5 54.5l14 -26q-52 -29 -64 -74q7 4 18 4z" />
    <glyph glyph-name="quoteright" unicode="&#x2019;" horiz-adv-x="183" 
d="M99 794q21 0 34.5 -15t13.5 -38q0 -38 -23 -71.5t-62 -50.5l-14 24q51 26 64 75q-10 -4 -18 -4q-17 0 -28 11.5t-11 27.5q0 17 12.5 29t31.5 12z" />
    <glyph glyph-name="quotesinglbase" unicode="&#x201a;" horiz-adv-x="202" 
d="M101 74q21 0 34.5 -15.5t13.5 -38.5q0 -37 -23 -70.5t-62 -51.5l-14 25q52 27 64 74q-10 -4 -18 -4q-17 0 -28 11.5t-11 27.5q0 18 12.5 30t31.5 12z" />
    <glyph glyph-name="quotedblleft" unicode="&#x201c;" horiz-adv-x="328" 
d="M141 769q-52 -29 -64 -74q7 4 18 4q17 0 28 -11.5t11 -27.5q0 -18 -13 -30t-32 -12q-21 0 -34.5 14.5t-13.5 40.5q0 34 23.5 67.5t62.5 54.5zM238 699q17 0 28 -11.5t11 -27.5q0 -18 -13 -30t-32 -12q-20 0 -34 15t-14 40q0 34 23.5 67.5t62.5 54.5l14 -26
q-51 -29 -63 -74q7 4 17 4z" />
    <glyph glyph-name="quotedblright" unicode="&#x201d;" horiz-adv-x="329" 
d="M99 794q21 0 34.5 -15t13.5 -38q0 -38 -23 -71.5t-62 -50.5l-14 24q51 26 64 75q-10 -4 -18 -4q-17 0 -28 11.5t-11 27.5q0 17 12.5 29t31.5 12zM245 794q20 0 34 -15t14 -38q0 -38 -23.5 -71.5t-62.5 -50.5l-14 24q53 27 65 75q-10 -4 -18 -4q-17 0 -28 11.5t-11 27.5
q0 17 12.5 29t31.5 12z" />
    <glyph glyph-name="quotedblbase" unicode="&#x201e;" horiz-adv-x="357" 
d="M101 75q21 0 34.5 -15.5t13.5 -38.5q0 -37 -23 -70.5t-62 -51.5l-14 25q52 27 64 74q-10 -4 -18 -4q-17 0 -28 11.5t-11 27.5q0 18 12.5 30t31.5 12zM246 75q21 0 34.5 -15.5t13.5 -38.5q0 -37 -23 -70.5t-62 -51.5l-14 25q52 27 64 74q-10 -4 -18 -4q-17 0 -28 11.5
t-11 27.5q0 18 12.5 30t31.5 12z" />
    <glyph glyph-name="dagger" unicode="&#x2020;" horiz-adv-x="548" 
d="M461 588v-35h-167v-667h-38v667h-169v35h169v263h38v-263h167z" />
    <glyph glyph-name="daggerdbl" unicode="&#x2021;" horiz-adv-x="550" 
d="M462 553h-167v-365h167v-35h-167v-267h-38v267h-169v35h169v365h-169v35h169v263h38v-263h167v-35z" />
    <glyph glyph-name="bullet" unicode="&#x2022;" horiz-adv-x="342" 
d="M170 279q-41 0 -67 26.5t-26 67.5t26 67.5t67 26.5t68 -26.5t27 -67.5t-27 -67.5t-68 -26.5z" />
    <glyph glyph-name="ellipsis" unicode="&#x2026;" horiz-adv-x="598" 
d="M93 -5q-18 0 -28.5 11t-10.5 29t10.5 29t28.5 11t28.5 -11t10.5 -29t-10.5 -29t-28.5 -11zM295 -5q-18 0 -28.5 11t-10.5 29t10.5 29t28.5 11t28.5 -11t10.5 -29t-10.5 -29t-28.5 -11zM497 -5q-18 0 -28.5 11t-10.5 29t10.5 29t28.5 11t28.5 -11t10.5 -29t-10.5 -29
t-28.5 -11z" />
    <glyph glyph-name="perthousand" unicode="&#x2030;" horiz-adv-x="1232" 
d="M204 338q-76 0 -123.5 54t-46.5 140t48.5 140.5t122.5 54.5q74 0 120.5 -54.5t46.5 -140.5t-47 -140t-121 -54zM102 0l589 714h39l-585 -714h-43zM204 372q59 0 94.5 43.5t35.5 116.5t-35 116.5t-94 43.5q-60 0 -96.5 -44t-36.5 -116q-1 -73 35 -116.5t97 -43.5zM639 -13
q-76 0 -123.5 54t-46.5 140t48.5 140.5t122.5 54.5q74 0 120.5 -54.5t46.5 -140.5t-47 -140t-121 -54zM1031 -13q-76 0 -123.5 54t-46.5 140t48.5 140.5t122.5 54.5q74 0 120.5 -54.5t46.5 -140.5t-47 -140t-121 -54zM639 21q59 0 94.5 43.5t35.5 116.5t-35 116.5t-94 43.5
q-60 0 -96.5 -44t-36.5 -116q-1 -73 35 -116.5t97 -43.5zM1031 21q59 0 94.5 43.5t35.5 116.5t-35 116.5t-94 43.5t-96 -44t-38 -116q0 -73 36 -116.5t97 -43.5z" />
    <glyph glyph-name="guilsinglleft" unicode="&#x2039;" horiz-adv-x="292" 
d="M218 102l-176 179q-14 15 1 30l175 179l25 -24l-167 -170l167 -170z" />
    <glyph glyph-name="guilsinglright" unicode="&#x203a;" horiz-adv-x="292" 
d="M74 102l-25 24l167 170l-167 170l25 24l175 -179q15 -15 1 -30z" />
    <glyph glyph-name="fraction" unicode="&#x2044;" horiz-adv-x="507" 
d="M493 714h37l-515 -714h-36z" />
    <glyph glyph-name="uni2070" unicode="&#x2070;" horiz-adv-x="370" 
d="M185 493q-71 0 -108 52.5t-37 142.5t37 143t108 53t108 -53t37 -143t-37 -142.5t-108 -52.5zM185 525q54 0 82.5 42t28.5 121t-28.5 121.5t-82.5 42.5t-82.5 -42.5t-28.5 -121.5t28.5 -121t82.5 -42z" />
    <glyph glyph-name="uni2074" unicode="&#x2074;" horiz-adv-x="317" 
d="M282 631v-30h-41v-102h-33v102h-166q-14 0 -19.5 11.5t3.5 23.5l173 239q10 7 21 7q21 0 21 -23v-228h41zM59 631h149v206z" />
    <glyph glyph-name="uni2075" unicode="&#x2075;" horiz-adv-x="317" 
d="M164 728q53 0 86.5 -32t33.5 -84q0 -56 -37.5 -88t-91.5 -32q-80 0 -120 64l26 18q34 -49 94 -49q43 0 69 24t26 63q0 38 -25 61.5t-64 23.5q-43 0 -83 -33l-26 17v174q0 22 25 22h184v-31h-176v-143q34 25 79 25z" />
    <glyph glyph-name="uni2076" unicode="&#x2076;" horiz-adv-x="331" 
d="M177 732q52 0 86 -33t34 -84q0 -50 -34 -86.5t-90 -36.5q-67 0 -100.5 50t-33.5 127q0 89 41 152t115 63q55 0 91 -40l-23 -22q-26 30 -68 30q-54 0 -86.5 -46.5t-36.5 -119.5q44 46 105 46zM173 524q40 0 65.5 26t25.5 64q0 39 -25 62.5t-65 23.5q-57 0 -101 -54
q5 -58 30 -90t70 -32z" />
    <glyph glyph-name="uni2077" unicode="&#x2077;" horiz-adv-x="277" 
d="M227 877q16 0 22.5 -10.5t0.5 -27.5l-142 -340h-36l145 346h-190v32h200z" />
    <glyph glyph-name="uni2078" unicode="&#x2078;" horiz-adv-x="349" 
d="M230 697q37 -11 59 -36.5t22 -60.5q0 -45 -36 -76.5t-100 -31.5q-65 0 -101.5 31.5t-36.5 76.5q0 36 22.5 61.5t59.5 36.5q-66 25 -66 86q0 41 33 70.5t89 29.5q55 0 88 -29.5t33 -70.5q0 -59 -66 -87zM86 783q0 -31 27 -51t62 -20t61 19t26 51q0 31 -24.5 51t-62.5 20
t-63.5 -20t-25.5 -50zM175 524q46 0 74 21.5t28 56.5q0 37 -30 57.5t-72 20.5q-45 0 -74.5 -21.5t-29.5 -56.5q0 -34 28.5 -56t75.5 -22z" />
    <glyph glyph-name="uni2079" unicode="&#x2079;" horiz-adv-x="329" 
d="M161 884q65 0 96.5 -49t31.5 -131q0 -90 -37 -151t-110 -61q-59 0 -95 42l22 22q30 -32 73 -32q53 0 81.5 43.5t32.5 116.5q-46 -41 -102 -41q-52 0 -85.5 33t-33.5 84q0 50 34.5 87t91.5 37zM158 675q54 0 98 47q-6 130 -96 130q-41 0 -66.5 -26t-25.5 -66
q0 -38 24.5 -61.5t65.5 -23.5z" />
    <glyph glyph-name="uni2080" unicode="&#x2080;" horiz-adv-x="370" 
d="M185 -169q-71 0 -108 52.5t-37 142.5t37 143t108 53t108 -53t37 -143t-37 -142.5t-108 -52.5zM185 -137q54 0 82.5 42t28.5 121t-28.5 121.5t-82.5 42.5t-82.5 -42.5t-28.5 -121.5t28.5 -121t82.5 -42z" />
    <glyph glyph-name="uni2081" unicode="&#x2081;" horiz-adv-x="280" 
d="M170 -132h88v-31h-211v31h90v311l-95 -69l-18 24l117 85h13q16 0 16 -18v-333z" />
    <glyph glyph-name="uni2082" unicode="&#x2082;" horiz-adv-x="312" 
d="M101 -50q-25 -31 -28 -81h198v-32h-232q-3 84 38 133q16 19 37.5 35.5t46.5 32.5t34 23q42 31 42 63q0 28 -21.5 47.5t-54.5 19.5q-31 0 -57 -16.5t-40 -43.5l-28 15q17 34 49.5 55.5t75.5 21.5q48 0 79 -28.5t31 -69.5q0 -50 -52 -85q-2 -1 -49.5 -33t-68.5 -57z" />
    <glyph glyph-name="uni2083" unicode="&#x2083;" horiz-adv-x="325" 
d="M217 34q31 -10 49.5 -35.5t18.5 -57.5q0 -52 -38.5 -81t-92.5 -29q-88 0 -125 67l27 18q30 -52 99 -52q40 0 68 20.5t28 57.5q0 32 -22.5 52.5t-60.5 20.5h-62v32h57q37 0 59 21.5t22 49.5q0 32 -23 52.5t-61 20.5q-62 0 -97 -54l-25 16q39 70 123 70q54 0 85.5 -30.5
t31.5 -73.5q0 -59 -61 -85z" />
    <glyph glyph-name="uni2084" unicode="&#x2084;" horiz-adv-x="317" 
d="M282 -31v-30h-41v-102h-33v102h-166q-14 0 -19.5 11.5t3.5 23.5l173 239q10 7 21 7q21 0 21 -23v-228h41zM59 -31h149v206z" />
    <glyph glyph-name="uni2085" unicode="&#x2085;" horiz-adv-x="317" 
d="M164 66q53 0 86.5 -32t33.5 -84q0 -56 -37.5 -88t-91.5 -32q-80 0 -120 64l26 18q34 -49 94 -49q43 0 69 24t26 63q0 38 -25 61.5t-64 23.5q-43 0 -83 -33l-26 17v174q0 22 25 22h184v-31h-176v-143q34 25 79 25z" />
    <glyph glyph-name="uni2086" unicode="&#x2086;" horiz-adv-x="331" 
d="M177 70q52 0 86 -33t34 -84q0 -50 -34 -86.5t-90 -36.5q-67 0 -100.5 50t-33.5 127q0 89 41 152t115 63q55 0 91 -40l-23 -22q-26 30 -68 30q-54 0 -86.5 -46.5t-36.5 -119.5q44 46 105 46zM173 -138q40 0 65.5 26t25.5 64q0 39 -25 62.5t-65 23.5q-57 0 -101 -54
q5 -58 30 -90t70 -32z" />
    <glyph glyph-name="uni2087" unicode="&#x2087;" horiz-adv-x="277" 
d="M227 215q16 0 22.5 -10.5t0.5 -27.5l-142 -340h-36l145 346h-190v32h200z" />
    <glyph glyph-name="uni2088" unicode="&#x2088;" horiz-adv-x="349" 
d="M230 35q37 -11 59 -36.5t22 -60.5q0 -45 -36 -76.5t-100 -31.5q-65 0 -101.5 31.5t-36.5 76.5q0 36 22.5 61.5t59.5 36.5q-66 25 -66 86q0 41 33 70.5t89 29.5q55 0 88 -29.5t33 -70.5q0 -59 -66 -87zM86 121q0 -31 27 -51t62 -20t61 19t26 51q0 31 -24.5 51t-62.5 20
t-63.5 -20t-25.5 -50zM175 -138q46 0 74 21.5t28 56.5q0 37 -30 57.5t-72 20.5q-45 0 -74.5 -21.5t-29.5 -56.5q0 -34 28.5 -56t75.5 -22z" />
    <glyph glyph-name="uni2089" unicode="&#x2089;" horiz-adv-x="329" 
d="M161 222q65 0 96.5 -49t31.5 -131q0 -90 -37 -151t-110 -61q-59 0 -95 42l22 22q30 -32 73 -32q53 0 81.5 43.5t32.5 116.5q-46 -41 -102 -41q-52 0 -85.5 33t-33.5 84q0 50 34.5 87t91.5 37zM158 13q54 0 98 47q-6 130 -96 130q-41 0 -66.5 -26t-25.5 -66
q0 -38 24.5 -61.5t65.5 -23.5z" />
    <glyph glyph-name="Euro" unicode="&#x20ac;" horiz-adv-x="621" 
d="M574 92l21 -31q-90 -74 -210 -74q-126 0 -209 78t-105 204h-62v36h57q-3 25 -3 52q0 15 2 41h-56v36h60q20 131 104 212t212 81q121 0 204 -73l-23 -29q-76 65 -180 65q-111 0 -184.5 -70t-92.5 -186h343v-36h-347q-2 -26 -2 -41q0 -27 3 -52h346v-36h-341
q21 -111 94 -178t181 -67q103 0 188 68z" />
    <glyph glyph-name="trademark" unicode="&#x2122;" horiz-adv-x="656" 
d="M32 687v27h236v-27h-105v-259h-26v259h-105zM554 714h27v-286h-26v237l-93 -167q-6 -11 -17 -11t-17 11l-94 166v-236h-26v286h27l110 -193z" />
    <glyph glyph-name="estimated" unicode="&#x212e;" horiz-adv-x="924" 
d="M470 -16q-178 0 -300 105.5t-122 262.5q0 158 122 264t300 106q175 0 298.5 -104.5t123.5 -270.5v-25h-666v-223q104 -71 244 -71q190 0 315 139l32 -30q-58 -71 -149 -112t-198 -41zM226 370h488v238q-105 71 -244 71q-140 0 -244 -72v-237z" />
    <glyph glyph-name="partialdiff" unicode="&#x2202;" horiz-adv-x="558" 
d="M181 734q320 -85 320 -426q0 -140 -61 -230.5t-175 -90.5q-97 0 -152.5 65.5t-55.5 167.5q0 111 66.5 182t161.5 71q49 0 95.5 -19.5t76.5 -56.5q-35 237 -288 303zM264 24q95 0 146.5 78.5t51.5 219.5v16q-27 48 -73 73t-100 25q-82 0 -137.5 -60.5t-55.5 -155.5
q0 -89 45.5 -142.5t122.5 -53.5z" />
    <glyph glyph-name="product" unicode="&#x220f;" horiz-adv-x="712" 
d="M681 693v-40h-104v-734h-41v734h-359v-734h-41v734h-106v40h651z" />
    <glyph glyph-name="summation" unicode="&#x2211;" horiz-adv-x="550" 
d="M68 -88v47l215 355l-221 357v18q0 25 28 25h395v-38h-382l214 -344q11 -16 0 -35l-210 -347h378v-38h-417z" />
    <glyph glyph-name="minus" unicode="&#x2212;" horiz-adv-x="458" 
d="M42 314h374v-35h-374v35z" />
    <glyph glyph-name="radical" unicode="&#x221a;" horiz-adv-x="709" 
d="M683 714h42l-412 -806q-9 -18 -29 -18t-29 17l-170 325h-80v38h93q10 0 17 -10l169 -322z" />
    <glyph glyph-name="infinity" unicode="&#x221e;" horiz-adv-x="786" 
d="M588 450q65 0 110.5 -40.5t45.5 -105.5q0 -66 -46 -106.5t-109 -40.5q-106 0 -194 125q-53 -63 -98 -94t-99 -31q-63 0 -109.5 40.5t-46.5 106.5t46.5 106t111.5 40q105 0 195 -117q90 117 193 117zM198 191q47 0 87 28.5t90 88.5q-85 108 -176 108q-53 0 -88.5 -31.5
t-35.5 -81.5q0 -49 35.5 -80.5t87.5 -31.5zM588 191q52 0 87 31t35 82q0 49 -34.5 80.5t-87.5 31.5q-90 0 -174 -109q85 -116 174 -116z" />
    <glyph glyph-name="integral" unicode="&#x222b;" horiz-adv-x="388" 
d="M103 -187q-43 0 -80 22l18 33q29 -17 61 -17q56 0 93.5 40.5t39.5 107.5q1 61 -32 174.5t-67 231t-34 186.5q0 88 46.5 141.5t111.5 53.5q54 0 95 -32l-23 -28q-33 22 -70 22q-53 0 -86.5 -44t-33.5 -113q0 -77 66.5 -293.5t66.5 -294.5q0 -87 -51 -138.5t-121 -51.5z
" />
    <glyph glyph-name="approxequal" unicode="&#x2248;" horiz-adv-x="569" 
d="M383 339q-28 0 -56 16t-47.5 35.5t-45 35.5t-48.5 16q-32 0 -56.5 -27t-30.5 -67l-30 7q9 58 43 90t75 32q28 0 56 -16t47.5 -35.5t45 -35.5t49.5 -16q34 0 57 27t28 70l30 -6q-6 -61 -40.5 -93.5t-76.5 -32.5zM383 159q-28 0 -56 16t-47.5 35.5t-45 35.5t-48.5 16
q-32 0 -56.5 -27t-30.5 -67l-30 7q9 58 43 90t75 32q28 0 56 -16t47.5 -35.5t45 -35.5t49.5 -16q34 0 57 27t28 70l30 -6q-6 -61 -40.5 -93.5t-76.5 -32.5z" />
    <glyph glyph-name="notequal" unicode="&#x2260;" horiz-adv-x="512" 
d="M443 379h-128l-88 -165h216v-35h-235l-49 -92l-27 14l42 78h-105v35h123l88 165h-211v35h230l46 86l27 -14l-38 -72h109v-35z" />
    <glyph glyph-name="lessequal" unicode="&#x2264;" horiz-adv-x="436" 
d="M356 134l-312 190q-13 9 -12.5 21.5t12.5 20.5l312 190l16 -33l-292 -177l292 -179zM376 0h-345v36h345v-36z" />
    <glyph glyph-name="greaterequal" unicode="&#x2265;" horiz-adv-x="434" 
d="M79 134l-16 33l292 179l-292 177l16 33l312 -190q12 -8 12.5 -20.5t-12.5 -21.5zM59 0v36h345v-36h-345z" />
    <glyph glyph-name="lozenge" unicode="&#x25ca;" horiz-adv-x="583" 
d="M291 -110l-256 430l257 431l256 -431zM291 -39l214 359l-213 360l-214 -360z" />
    <glyph glyph-name="Jacute" horiz-adv-x="501" 
d="M313 785l159 145l27 -33l-168 -135zM210 -11q-65 0 -111 29.5t-68 76.5l31 21q48 -89 149 -89q76 0 117.5 49t41.5 135v503h40v-509q0 -99 -53.5 -157.5t-146.5 -58.5z" />
    <glyph glyph-name="Cacute.loclPLK" horiz-adv-x="690" 
d="M367 768l77 164l43 -1l-83 -163h-37zM378 -11q-139 0 -233 94t-94 272q0 171 91 271.5t243 100.5q89 0 161 -40.5t110 -114.5l-35 -20q-35 66 -97.5 102t-138.5 36q-135 0 -213.5 -90t-78.5 -244q0 -151 80 -240t206 -89q76 0 144 35t114 92l28 -26q-51 -65 -127 -102
t-160 -37z" />
    <glyph glyph-name="Nacute.loclPLK" horiz-adv-x="723" 
d="M465 929l-83 -163h-37l77 164zM590 714h39v-701q0 -18 -22 -18q-18 0 -30 16l-445 640v-651h-39v700q0 8 6.5 13.5t16.5 5.5q18 0 32 -19l442 -633v647z" />
    <glyph glyph-name="Oacute.loclPLK" horiz-adv-x="761" 
d="M362 766l77 164l43 -1l-83 -163h-37zM382 -11q-149 0 -240.5 101.5t-91.5 266.5q0 166 91.5 268t240.5 102q147 0 238 -102t91 -268q0 -165 -91 -266.5t-238 -101.5zM382 28q129 0 208 89.5t79 239.5q0 151 -79 241t-208 90q-130 0 -210 -90.5t-80 -240.5t80 -239.5
t210 -89.5z" />
    <glyph glyph-name="Sacute.loclPLK" horiz-adv-x="551" 
d="M259 766l77 164l43 -1l-83 -163h-37zM269 -11q-73 0 -136 30t-99 83l29 25q35 -48 89.5 -74t117.5 -26q89 0 145 44t56 118q0 79 -78 118q-27 13 -122 42q-51 16 -81 28.5t-62.5 34.5t-47.5 53.5t-15 74.5q0 92 64 139.5t164 47.5q108 0 198 -67l-23 -31q-79 60 -176 60
q-86 0 -136.5 -38t-50.5 -110q0 -28 10.5 -50.5t23.5 -36.5t42.5 -28.5t49 -21.5t60.5 -20q6 -2 19 -6q40 -12 60 -19.5t52 -24t48.5 -33.5t29 -46t12.5 -65q0 -96 -70.5 -148.5t-172.5 -52.5z" />
    <glyph glyph-name="Zacute.loclPLK" horiz-adv-x="543" 
d="M263 766l77 164l43 -1l-83 -163h-37zM48 0q-15 0 -20.5 16.5t4.5 31.5l416 627h-400v39h425q15 0 21 -16t-4 -32l-417 -627h431v-39h-456z" />
    <glyph glyph-name="i.loclTRK" horiz-adv-x="214" 
d="M108 590q-18 0 -28.5 11t-10.5 29t10.5 28.5t28.5 10.5q17 0 27.5 -10.5t10.5 -28.5t-10.5 -29t-27.5 -11zM87 0v500h40v-500h-40z" />
    <glyph glyph-name="jacute" horiz-adv-x="226" 
d="M44 579l159 145l27 -33l-168 -135zM10 -195q-33 0 -63 11l10 36q27 -10 51 -10q44 0 68.5 27t24.5 74v557h40v-557q0 -65 -36 -101.5t-95 -36.5z" />
    <glyph glyph-name="cacute.loclPLK" horiz-adv-x="521" 
d="M252 558l74 164l44 -1l-81 -163h-37zM282 -13q-107 0 -172.5 73t-65.5 190q0 118 65 190.5t176 72.5q143 0 200 -112l-33 -19q-51 95 -166 95q-92 0 -146.5 -60.5t-54.5 -165.5q0 -106 54.5 -167t142.5 -61q118 0 178 105l32 -20q-26 -49 -79.5 -85t-130.5 -36z" />
    <glyph glyph-name="nacute.loclPLK" horiz-adv-x="564" 
d="M366 721l-81 -163h-37l74 164zM341 513q75 0 113.5 -40.5t38.5 -115.5v-357h-40v352q0 123 -115 123q-107 0 -223 -107v-368h-40v500h39v-92q116 105 227 105z" />
    <glyph glyph-name="oacute.loclPLK" horiz-adv-x="557" 
d="M247 558l74 164l44 -1l-81 -163h-37zM279 -13q-107 0 -171.5 72.5t-63.5 190.5q1 120 66 191.5t169 71.5q106 0 170 -72t64 -191t-64 -191t-170 -72zM279 23q89 0 141.5 61t52.5 166q0 104 -52.5 165.5t-141.5 61.5q-88 0 -141.5 -61t-53.5 -166q-1 -104 52 -165.5
t143 -61.5z" />
    <glyph glyph-name="sacute.loclPLK" horiz-adv-x="449" 
d="M206 558l74 164l44 -1l-81 -163h-37zM219 -11q-124 0 -191 79l24 26q63 -69 168 -69q68 0 110.5 28.5t42.5 80.5q0 43 -32.5 62t-123.5 44q-31 9 -49.5 15t-42.5 18t-37 24.5t-22.5 33t-9.5 45.5q0 66 52 101.5t128 35.5q96 0 165 -54l-20 -29q-63 48 -145 48
q-65 0 -103 -27.5t-38 -73.5q0 -40 32 -61.5t105 -41.5q33 -9 42.5 -12t36 -11.5t35 -14t25.5 -17t23 -22.5t11.5 -27.5t5.5 -36.5q0 -70 -55.5 -107t-136.5 -37z" />
    <glyph glyph-name="zacute.loclPLK" horiz-adv-x="451" 
d="M191 558l74 164l44 -1l-81 -163h-37zM54 0q-18 0 -23 17t5 28l330 420h-319v35h337q19 0 24.5 -16.5t-5.5 -29.5l-327 -419h336v-35h-358z" />
    <glyph glyph-name="a.ss01" horiz-adv-x="577" 
d="M463 500h39v-500h-40v105q-58 -118 -188 -118q-104 0 -167.5 72.5t-62.5 191.5q1 118 64.5 190t166.5 72q131 0 188 -113v100zM276 24q87 0 137.5 62t50.5 169q0 103 -50 162t-137 59q-88 0 -140.5 -61t-52.5 -165q-1 -104 50.5 -165t141.5 -61z" />
    <glyph glyph-name="aacute.ss01" horiz-adv-x="577" 
d="M396 691l-168 -135l-18 23l159 145zM463 500h39v-500h-40v105q-58 -118 -188 -118q-104 0 -167.5 72.5t-62.5 191.5q1 118 64.5 190t166.5 72q131 0 188 -113v100zM276 24q87 0 137.5 62t50.5 169q0 103 -50 162t-137 59q-88 0 -140.5 -61t-52.5 -165q-1 -104 50.5 -165
t141.5 -61z" />
    <glyph glyph-name="abreve.ss01" horiz-adv-x="577" 
d="M287 561q-72 0 -108.5 46t-39.5 107l34 1q2 -54 32 -89.5t82 -35.5q51 0 81 35.5t32 89.5l35 -1q-3 -61 -39.5 -107t-108.5 -46zM463 500h39v-500h-40v105q-58 -118 -188 -118q-104 0 -167.5 72.5t-62.5 191.5q1 118 64.5 190t166.5 72q131 0 188 -113v100zM276 24
q87 0 137.5 62t50.5 169q0 103 -50 162t-137 59q-88 0 -140.5 -61t-52.5 -165q-1 -104 50.5 -165t141.5 -61z" />
    <glyph glyph-name="acircumflex.ss01" horiz-adv-x="577" 
d="M286 694l-127 -118l-23 23l130 119q9 10 20 10t21 -10l129 -119l-22 -23zM463 500h39v-500h-40v105q-58 -118 -188 -118q-104 0 -167.5 72.5t-62.5 191.5q1 118 64.5 190t166.5 72q131 0 188 -113v100zM276 24q87 0 137.5 62t50.5 169q0 103 -50 162t-137 59
q-88 0 -140.5 -61t-52.5 -165q-1 -104 50.5 -165t141.5 -61z" />
    <glyph glyph-name="adieresis.ss01" horiz-adv-x="577" 
d="M207 571q-17 0 -27.5 10.5t-10.5 28.5t10.5 28.5t27.5 10.5t27.5 -10.5t10.5 -28.5t-10.5 -28.5t-27.5 -10.5zM368 571q-18 0 -28.5 10.5t-10.5 28.5t10.5 28.5t28.5 10.5q17 0 27.5 -10.5t10.5 -28.5t-10.5 -28.5t-27.5 -10.5zM463 500h39v-500h-40v105
q-58 -118 -188 -118q-104 0 -167.5 72.5t-62.5 191.5q1 118 64.5 190t166.5 72q131 0 188 -113v100zM276 24q87 0 137.5 62t50.5 169q0 103 -50 162t-137 59q-88 0 -140.5 -61t-52.5 -165q-1 -104 50.5 -165t141.5 -61z" />
    <glyph glyph-name="agrave.ss01" horiz-adv-x="577" 
d="M374 579l-18 -23l-168 135l27 33zM463 500h39v-500h-40v105q-58 -118 -188 -118q-104 0 -167.5 72.5t-62.5 191.5q1 118 64.5 190t166.5 72q131 0 188 -113v100zM276 24q87 0 137.5 62t50.5 169q0 103 -50 162t-137 59q-88 0 -140.5 -61t-52.5 -165q-1 -104 50.5 -165
t141.5 -61z" />
    <glyph glyph-name="amacron.ss01" horiz-adv-x="577" 
d="M421 644v-35h-269v35h269zM463 500h39v-500h-40v105q-58 -118 -188 -118q-104 0 -167.5 72.5t-62.5 191.5q1 118 64.5 190t166.5 72q131 0 188 -113v100zM276 24q87 0 137.5 62t50.5 169q0 103 -50 162t-137 59q-88 0 -140.5 -61t-52.5 -165q-1 -104 50.5 -165t141.5 -61
z" />
    <glyph glyph-name="aogonek.ss01" horiz-adv-x="563" 
d="M515 -165l17 -25q-32 -34 -79 -34q-41 0 -67 26.5t-26 70.5q0 39 25.5 76t76.5 63v93q-58 -118 -188 -118q-104 0 -167.5 72.5t-62.5 191.5q1 118 64.5 190t166.5 72q131 0 188 -113v100h39v-500h-1q-52 -17 -79.5 -51.5t-27.5 -72.5q0 -30 17 -48.5t44 -18.5q33 0 60 26
zM276 24q87 0 137.5 62t50.5 169q0 103 -50 162t-137 59q-88 0 -140.5 -61t-52.5 -165q-1 -104 50.5 -165t141.5 -61z" />
    <glyph glyph-name="aring.ss01" horiz-adv-x="577" 
d="M287 555q-41 0 -68.5 27t-27.5 67q0 39 28 66t68 27t67.5 -27t27.5 -66q0 -40 -27.5 -67t-67.5 -27zM287 715q-29 0 -49 -19t-20 -47t20 -47.5t49 -19.5t48 19t19 48q0 28 -19.5 47t-47.5 19zM463 500h39v-500h-40v105q-58 -118 -188 -118q-104 0 -167.5 72.5
t-62.5 191.5q1 118 64.5 190t166.5 72q131 0 188 -113v100zM276 24q87 0 137.5 62t50.5 169q0 103 -50 162t-137 59q-88 0 -140.5 -61t-52.5 -165q-1 -104 50.5 -165t141.5 -61z" />
    <glyph glyph-name="atilde.ss01" horiz-adv-x="577" 
d="M216 650q-49 0 -63 -65l-30 8q10 46 35.5 67.5t57.5 21.5q33 0 74 -35t66 -35q46 0 64 67l32 -8q-11 -46 -38 -69t-58 -23q-33 0 -75 35.5t-65 35.5zM463 500h39v-500h-40v105q-58 -118 -188 -118q-104 0 -167.5 72.5t-62.5 191.5q1 118 64.5 190t166.5 72
q131 0 188 -113v100zM276 24q87 0 137.5 62t50.5 169q0 103 -50 162t-137 59q-88 0 -140.5 -61t-52.5 -165q-1 -104 50.5 -165t141.5 -61z" />
    <glyph glyph-name="f.ss01" horiz-adv-x="337" 
d="M253 688q-66 0 -102.5 -37t-36.5 -111v-41l220 1v-33l-220 -2v-465h-39v542q0 93 49.5 138.5t127.5 45.5q72 0 127 -31l-13 -32q-53 25 -113 25z" />
    <glyph glyph-name="g.ss01" horiz-adv-x="561" 
d="M449 500h34v-469q0 -116 -60.5 -173.5t-164.5 -57.5q-95 0 -174 49l15 34q75 -46 159 -46q189 0 189 197v20q-71 -67 -174 -67q-105 0 -167 72t-62 189q0 120 65.5 192.5t164.5 72.5q109 0 175 -95v82zM275 24q51 0 97.5 20t74.5 54v264q-63 114 -173 114
q-85 0 -137.5 -62t-52.5 -167q0 -104 51.5 -163.5t139.5 -59.5z" />
    <glyph glyph-name="gbreve.ss01" horiz-adv-x="561" 
d="M279 561q-72 0 -108.5 46t-39.5 107l34 1q2 -54 32 -89.5t82 -35.5q51 0 81 35.5t32 89.5l35 -1q-3 -61 -39.5 -107t-108.5 -46zM449 500h34v-469q0 -116 -60.5 -173.5t-164.5 -57.5q-95 0 -174 49l15 34q75 -46 159 -46q189 0 189 197v20q-71 -67 -174 -67
q-105 0 -167 72t-62 189q0 120 65.5 192.5t164.5 72.5q109 0 175 -95v82zM275 24q51 0 97.5 20t74.5 54v264q-63 114 -173 114q-85 0 -137.5 -62t-52.5 -167q0 -104 51.5 -163.5t139.5 -59.5z" />
    <glyph glyph-name="gcircumflex.ss01" horiz-adv-x="561" 
d="M279 694l-127 -118l-23 23l130 119q9 10 20 10t21 -10l129 -119l-22 -23zM449 500h34v-469q0 -116 -60.5 -173.5t-164.5 -57.5q-95 0 -174 49l15 34q75 -46 159 -46q189 0 189 197v20q-71 -67 -174 -67q-105 0 -167 72t-62 189q0 120 65.5 192.5t164.5 72.5
q109 0 175 -95v82zM275 24q51 0 97.5 20t74.5 54v264q-63 114 -173 114q-85 0 -137.5 -62t-52.5 -167q0 -104 51.5 -163.5t139.5 -59.5z" />
    <glyph glyph-name="gcommaaccent.ss01" horiz-adv-x="561" 
d="M276 578q-21 0 -33 15.5t-12 39.5q0 28 16.5 57.5t43.5 51.5l19 -23q-37 -30 -47 -66q7 4 16 4q18 0 28 -11t10 -28t-12 -28.5t-29 -11.5zM449 500h34v-469q0 -116 -60.5 -173.5t-164.5 -57.5q-95 0 -174 49l15 34q75 -46 159 -46q189 0 189 197v20q-71 -67 -174 -67
q-105 0 -167 72t-62 189q0 120 65.5 192.5t164.5 72.5q109 0 175 -95v82zM275 24q51 0 97.5 20t74.5 54v264q-63 114 -173 114q-85 0 -137.5 -62t-52.5 -167q0 -104 51.5 -163.5t139.5 -59.5z" />
    <glyph glyph-name="gdotaccent.ss01" horiz-adv-x="561" 
d="M280 590q-18 0 -28.5 11t-10.5 29t10.5 28.5t28.5 10.5q17 0 27.5 -10.5t10.5 -28.5t-10.5 -29t-27.5 -11zM449 500h34v-469q0 -116 -60.5 -173.5t-164.5 -57.5q-95 0 -174 49l15 34q75 -46 159 -46q189 0 189 197v20q-71 -67 -174 -67q-105 0 -167 72t-62 189
q0 120 65.5 192.5t164.5 72.5q109 0 175 -95v82zM275 24q51 0 97.5 20t74.5 54v264q-63 114 -173 114q-85 0 -137.5 -62t-52.5 -167q0 -104 51.5 -163.5t139.5 -59.5z" />
    <glyph glyph-name="l.ss01" horiz-adv-x="325" 
d="M110 164q0 -67 30 -101t84 -34q37 0 81 22l15 -34q-48 -26 -98 -26q-77 0 -114.5 45t-37.5 124v554h40v-550z" />
    <glyph glyph-name="lacute.ss01" horiz-adv-x="315" 
d="M22 759l159 145l27 -33l-168 -135zM100 164q0 -67 30 -101t84 -34q37 0 81 22l15 -34q-48 -26 -98 -26q-77 0 -114.5 45t-37.5 124v554h40v-550z" />
    <glyph glyph-name="lcaron.ss01" horiz-adv-x="325" 
d="M201 557l46 188l37 -7l-55 -186zM110 164q0 -67 30 -101t84 -34q37 0 81 22l15 -34q-48 -26 -98 -26q-77 0 -114.5 45t-37.5 124v554h40v-550z" />
    <glyph glyph-name="lcommaaccent.ss01" horiz-adv-x="325" 
d="M320 17q-48 -26 -98 -26q-77 0 -114.5 45t-37.5 124v554h40v-550q0 -67 30 -101t84 -34q37 0 81 22zM191 -56q21 0 33 -15.5t12 -39.5q0 -28 -16.5 -57.5t-43.5 -51.5l-19 23q37 30 47 66q-7 -4 -16 -4q-18 0 -28 11t-10 28t12 28.5t29 11.5z" />
    <glyph glyph-name="ldot.ss01" horiz-adv-x="321" 
d="M110 164q0 -67 30 -101t84 -34q37 0 81 22l15 -34q-48 -26 -98 -26q-77 0 -114.5 45t-37.5 124v554h40v-550zM247 302q-18 0 -28.5 11t-10.5 29t10.5 29t28.5 11t28.5 -11t10.5 -29t-10.5 -29t-28.5 -11z" />
    <glyph glyph-name="lslash.ss01" horiz-adv-x="367" 
d="M342 51l15 -34q-48 -26 -98 -26q-77 0 -114.5 45t-37.5 124v141l-69 -46l-18 28l87 57v374h40v-348l85 56l16 -28l-101 -67v-163q0 -67 30 -101t84 -34q37 0 81 22z" />
    <glyph glyph-name="y.ss01" horiz-adv-x="555" 
d="M442 500h38v-466q0 -118 -59.5 -176t-165.5 -58q-94 0 -172 46l14 33q73 -42 159 -42q186 0 186 194v38q-80 -82 -191 -82q-82 0 -131.5 47.5t-49.5 134.5v331h39v-327q0 -72 40 -110t107 -38q109 0 186 88v387z" />
    <glyph glyph-name="yacute.ss01" horiz-adv-x="555" 
d="M385 691l-168 -135l-18 23l159 145zM442 500h38v-466q0 -118 -59.5 -176t-165.5 -58q-94 0 -172 46l14 33q73 -42 159 -42q186 0 186 194v38q-80 -82 -191 -82q-82 0 -131.5 47.5t-49.5 134.5v331h39v-327q0 -72 40 -110t107 -38q109 0 186 88v387z" />
    <glyph glyph-name="ycircumflex.ss01" horiz-adv-x="555" 
d="M276 694l-127 -118l-23 23l130 119q9 10 20 10t21 -10l129 -119l-22 -23zM442 500h38v-466q0 -118 -59.5 -176t-165.5 -58q-94 0 -172 46l14 33q73 -42 159 -42q186 0 186 194v38q-80 -82 -191 -82q-82 0 -131.5 47.5t-49.5 134.5v331h39v-327q0 -72 40 -110t107 -38
q109 0 186 88v387z" />
    <glyph glyph-name="ydieresis.ss01" horiz-adv-x="555" 
d="M196 571q-17 0 -27.5 10.5t-10.5 28.5t10.5 28.5t27.5 10.5t27.5 -10.5t10.5 -28.5t-10.5 -28.5t-27.5 -10.5zM357 571q-18 0 -28.5 10.5t-10.5 28.5t10.5 28.5t28.5 10.5q17 0 27.5 -10.5t10.5 -28.5t-10.5 -28.5t-27.5 -10.5zM442 500h38v-466q0 -118 -59.5 -176
t-165.5 -58q-94 0 -172 46l14 33q73 -42 159 -42q186 0 186 194v38q-80 -82 -191 -82q-82 0 -131.5 47.5t-49.5 134.5v331h39v-327q0 -72 40 -110t107 -38q109 0 186 88v387z" />
    <glyph glyph-name="ygrave.ss01" horiz-adv-x="555" 
d="M363 579l-18 -23l-168 135l27 33zM442 500h38v-466q0 -118 -59.5 -176t-165.5 -58q-94 0 -172 46l14 33q73 -42 159 -42q186 0 186 194v38q-80 -82 -191 -82q-82 0 -131.5 47.5t-49.5 134.5v331h39v-327q0 -72 40 -110t107 -38q109 0 186 88v387z" />
    <glyph glyph-name="f_f_j" horiz-adv-x="880" 
d="M685 465h-220v-465h-39v465h-286v-465h-39v465h-80v35h80v43q0 92 49.5 137.5t119.5 45.5q74 0 127 -46l-21 -29q-46 37 -103 37q-59 0 -96 -37.5t-37 -108.5v-42h286v43q0 92 49.5 137.5t119.5 45.5q74 0 127 -46l-21 -29q-46 37 -103 37q-59 0 -96 -37.5t-37 -108.5
v-42h220v-35zM781 669q17 0 27.5 -10.5t10.5 -28.5t-10.5 -29t-27.5 -11q-18 0 -28.5 11t-10.5 29t10.5 28.5t28.5 10.5zM760 -57v557h40v-557q0 -65 -36 -101.5t-95 -36.5q-33 0 -63 11l10 36q27 -10 51 -10q44 0 68.5 27t24.5 74z" />
    <glyph glyph-name="f_i" horiz-adv-x="580" 
d="M101 543q0 92 49.5 137.5t119.5 45.5q74 0 127 -46l-21 -29q-46 37 -103 37q-59 0 -96 -37.5t-37 -108.5v-42h220v-35h-220v-465h-39v465h-80v35h80v43zM480 669q17 0 27.5 -10.5t10.5 -28.5t-10.5 -29t-27.5 -11q-18 0 -28.5 11t-10.5 29t10.5 28.5t28.5 10.5zM459 0
v500h40v-500h-40z" />
    <glyph glyph-name="f_j" horiz-adv-x="580" 
d="M360 465h-220v-465h-39v465h-80v35h80v43q0 92 49.5 137.5t119.5 45.5q74 0 127 -46l-21 -29q-46 37 -103 37q-59 0 -96 -37.5t-37 -108.5v-42h220v-35zM480 669q17 0 27.5 -10.5t10.5 -28.5t-10.5 -29t-27.5 -11q-18 0 -28.5 11t-10.5 29t10.5 28.5t28.5 10.5zM459 -57
v557h40v-557q0 -65 -36 -101.5t-95 -36.5q-33 0 -63 11l10 36q27 -10 51 -10q44 0 68.5 27t24.5 74z" />
    <glyph glyph-name="f_l" horiz-adv-x="573" 
d="M101 543q0 92 49.5 137.5t119.5 45.5q74 0 127 -46l-21 -29q-46 37 -103 37q-59 0 -96 -37.5t-37 -108.5v-42h220v-35h-220v-465h-39v465h-80v35h80v43zM458 714h39v-714h-39v714z" />
    <glyph glyph-name="t_t" horiz-adv-x="769" 
d="M251 29q58 0 112 38l17 -32q-59 -44 -132 -44q-76 0 -113 46t-37 126v302h-80v35h80v155h39v-155h218v-35h-218v-303q0 -133 114 -133zM746 67l17 -32q-59 -44 -132 -44q-76 0 -113 46t-37 126v302h-80v35h80v155h39v-155h218v-35h-218v-303q0 -133 114 -133q58 0 112 38
z" />
    <glyph glyph-name="f_f_i.001" horiz-adv-x="873" 
d="M418 543q0 92 49.5 137.5t119.5 45.5q74 0 127 -46l-21 -29q-46 37 -103 37q-59 0 -96 -37.5t-37 -108.5v-42h220v-35h-220v-465h-39v465h-278v-465h-39v465h-80v35h80v43q0 92 49.5 137.5t119.5 45.5q74 0 127 -46l-21 -29q-46 37 -103 37q-59 0 -96 -37.5t-37 -108.5
v-42h278v43zM776 669q17 0 27.5 -10.5t10.5 -28.5t-10.5 -29t-27.5 -11q-18 0 -28.5 11t-10.5 29t10.5 28.5t28.5 10.5zM755 0v500h40v-500h-40z" />
    <glyph glyph-name="zero.lf" horiz-adv-x="614" 
d="M307 -11q-124 0 -188 98.5t-64 269.5t64.5 270.5t187.5 99.5t187.5 -99.5t64.5 -270.5t-64 -269.5t-188 -98.5zM307 27q103 0 157.5 86t54.5 244q0 159 -54.5 245.5t-157.5 86.5t-157.5 -86.5t-54.5 -245.5q0 -158 54.5 -244t157.5 -86z" />
    <glyph glyph-name="one.lf" horiz-adv-x="343" 
d="M231 726q20 0 20 -16v-710h-40v675l-183 -131l-22 31l196 139q18 12 29 12z" />
    <glyph glyph-name="two.lf" horiz-adv-x="532" 
d="M96 39h384v-39h-425q0 87 12.5 136t50.5 95q28 34 72 67.5t94 67.5t72 52q41 34 57.5 64t16.5 66q0 61 -44 101t-116 40q-62 0 -111.5 -34.5t-75.5 -92.5l-35 18q30 66 87 106.5t136 40.5q94 0 147 -52t53 -126q0 -90 -87 -160q-11 -9 -105 -74.5t-131 -112.5
q-28 -34 -39 -67.5t-13 -95.5z" />
    <glyph glyph-name="three.lf" horiz-adv-x="558" 
d="M367 368q63 -17 99.5 -65.5t36.5 -112.5q0 -90 -68 -145.5t-170 -55.5q-164 0 -231 138l35 19q57 -118 198 -118q86 0 141 47t55 117q0 66 -47 110.5t-122 44.5h-119v38h112q67 0 116 47t49 110q0 61 -48 103.5t-128 42.5q-129 0 -195 -114l-33 21q32 56 90 94t140 38
q102 0 158 -57t56 -132q0 -56 -34 -101t-91 -69z" />
    <glyph glyph-name="four.lf" horiz-adv-x="548" 
d="M505 225v-38h-78v-187h-39v187h-350q-10 0 -17 8.5t-7 19.5q0 12 8 22l354 472q9 11 27 11q24 0 24 -19v-476h78zM59 225h329v440z" />
    <glyph glyph-name="five.lf" horiz-adv-x="535" 
d="M273 428q102 0 162 -59.5t60 -158.5q0 -102 -64 -162.5t-168 -60.5q-153 0 -217 127l32 21q61 -109 185 -109q88 0 140 50.5t52 134.5q0 81 -50.5 130.5t-134.5 49.5q-93 0 -165 -62l-31 14v338q0 33 32 33h346v-39h-340v-298q67 51 161 51z" />
    <glyph glyph-name="six.lf" horiz-adv-x="565" 
d="M299 437q101 0 161.5 -61t60.5 -158q0 -93 -60.5 -162.5t-166.5 -69.5q-122 0 -181.5 95.5t-59.5 243.5q0 108 30.5 197.5t96 147t156.5 57.5q103 0 166 -74l-29 -26q-54 60 -139 60q-107 0 -171 -93.5t-69 -243.5q90 87 205 87zM295 25q83 0 134.5 55t51.5 138
q0 82 -49 131.5t-136 49.5q-109 0 -202 -96q5 -130 56 -204t145 -74z" />
    <glyph glyph-name="seven.lf" horiz-adv-x="450" 
d="M411 714q15 0 20.5 -13t-2.5 -31l-292 -670h-45l298 675h-369v39h390z" />
    <glyph glyph-name="eight.lf" horiz-adv-x="586" 
d="M377 371q76 -21 118 -71t42 -114q0 -84 -69 -141t-175 -57t-175 57t-69 141q0 64 42 114t118 71q-65 22 -99 67.5t-34 102.5q0 78 61.5 131.5t155.5 53.5t155.5 -53.5t61.5 -131.5q0 -57 -33.5 -102t-99.5 -68zM116 540q0 -60 46 -105t131 -45t131 45t46 105
q0 61 -48 104.5t-129 43.5q-80 0 -128.5 -43.5t-48.5 -104.5zM293 26q93 0 148 47.5t55 115.5t-56 115.5t-147 47.5q-90 0 -146.5 -47.5t-56.5 -115.5t55 -115.5t148 -47.5z" />
    <glyph glyph-name="nine.lf" horiz-adv-x="560" 
d="M270 727q119 -1 177 -94.5t58 -240.5q0 -82 -14 -151t-44 -128t-85 -93t-131 -34q-90 0 -159 47l21 34q61 -41 137 -41q113 0 170 90t62 243q-101 -83 -205 -83q-96 0 -156.5 61.5t-60.5 156.5t62 164.5t168 68.5zM80 496q0 -81 48.5 -131.5t130.5 -50.5q95 0 204 90
q-2 132 -51 208t-143 76q-84 0 -136.5 -54.5t-52.5 -137.5z" />
    <glyph glyph-name="zero.num" horiz-adv-x="370" 
d="M185 333q-71 0 -108 52.5t-37 142.5t37 143t108 53t108 -53t37 -143t-37 -142.5t-108 -52.5zM185 365q54 0 82.5 42t28.5 121t-28.5 121.5t-82.5 42.5t-82.5 -42.5t-28.5 -121.5t28.5 -121t82.5 -42z" />
    <glyph glyph-name="one.num" horiz-adv-x="280" 
d="M170 370h88v-31h-211v31h90v311l-95 -69l-18 24l117 85h13q16 0 16 -18v-333z" />
    <glyph glyph-name="two.num" horiz-adv-x="312" 
d="M101 452q-25 -31 -28 -81h198v-32h-232q-3 84 38 133q16 19 37.5 35.5t46.5 32.5t34 23q42 31 42 63q0 28 -21.5 47.5t-54.5 19.5q-31 0 -57 -16.5t-40 -43.5l-28 15q17 34 49.5 55.5t75.5 21.5q48 0 79 -28.5t31 -69.5q0 -50 -52 -85q-2 -1 -49.5 -33t-68.5 -57z" />
    <glyph glyph-name="three.num" horiz-adv-x="325" 
d="M217 536q31 -10 49.5 -35.5t18.5 -57.5q0 -52 -38.5 -81t-92.5 -29q-88 0 -125 67l27 18q30 -52 99 -52q40 0 68 20.5t28 57.5q0 32 -22.5 52.5t-60.5 20.5h-62v32h57q37 0 59 21.5t22 49.5q0 32 -23 52.5t-61 20.5q-62 0 -97 -54l-25 16q39 70 123 70q54 0 85.5 -30.5
t31.5 -73.5q0 -59 -61 -85z" />
    <glyph glyph-name="four.num" horiz-adv-x="317" 
d="M282 471v-30h-41v-102h-33v102h-166q-14 0 -19.5 11.5t3.5 23.5l173 239q10 7 21 7q21 0 21 -23v-228h41zM59 471h149v206z" />
    <glyph glyph-name="five.num" horiz-adv-x="317" 
d="M164 568q53 0 86.5 -32t33.5 -84q0 -56 -37.5 -88t-91.5 -32q-80 0 -120 64l26 18q34 -49 94 -49q43 0 69 24t26 63q0 38 -25 61.5t-64 23.5q-43 0 -83 -33l-26 17v174q0 22 25 22h184v-31h-176v-143q34 25 79 25z" />
    <glyph glyph-name="six.num" horiz-adv-x="331" 
d="M177 572q52 0 86 -33t34 -84q0 -50 -34 -86.5t-90 -36.5q-67 0 -100.5 50t-33.5 127q0 89 41 152t115 63q55 0 91 -40l-23 -22q-26 30 -68 30q-54 0 -86.5 -46.5t-36.5 -119.5q44 46 105 46zM173 364q40 0 65.5 26t25.5 64q0 39 -25 62.5t-65 23.5q-57 0 -101 -54
q5 -58 30 -90t70 -32z" />
    <glyph glyph-name="seven.num" horiz-adv-x="277" 
d="M227 717q16 0 22.5 -10.5t0.5 -27.5l-142 -340h-36l145 346h-190v32h200z" />
    <glyph glyph-name="eight.num" horiz-adv-x="349" 
d="M230 537q37 -11 59 -36.5t22 -60.5q0 -45 -36 -76.5t-100 -31.5q-65 0 -101.5 31.5t-36.5 76.5q0 36 22.5 61.5t59.5 36.5q-66 25 -66 86q0 41 33 70.5t89 29.5q55 0 88 -29.5t33 -70.5q0 -59 -66 -87zM86 623q0 -31 27 -51t62 -20t61 19t26 51q0 31 -24.5 51t-62.5 20
t-63.5 -20t-25.5 -50zM175 364q46 0 74 21.5t28 56.5q0 37 -30 57.5t-72 20.5q-45 0 -74.5 -21.5t-29.5 -56.5q0 -34 28.5 -56t75.5 -22z" />
    <glyph glyph-name="nine.num" horiz-adv-x="329" 
d="M161 724q65 0 96.5 -49t31.5 -131q0 -90 -37 -151t-110 -61q-59 0 -95 42l22 22q30 -32 73 -32q53 0 81.5 43.5t32.5 116.5q-46 -41 -102 -41q-52 0 -85.5 33t-33.5 84q0 50 34.5 87t91.5 37zM158 515q54 0 98 47q-6 130 -96 130q-41 0 -66.5 -26t-25.5 -66
q0 -38 24.5 -61.5t65.5 -23.5z" />
    <glyph glyph-name="zero.slash" horiz-adv-x="614" 
d="M307 727q123 0 187.5 -99.5t64.5 -270.5t-64 -269.5t-188 -98.5t-188 98.5t-64 269.5t64.5 270.5t187.5 99.5zM307 689q-103 0 -157.5 -86.5t-54.5 -245.5q0 -134 39 -215l328 465q-56 82 -155 82zM307 27q103 0 157.5 86t54.5 244q0 133 -38 215l-328 -465
q55 -80 154 -80z" />
    <glyph glyph-name="zero.tf" horiz-adv-x="660" 
d="M330 -11q-124 0 -188 98.5t-64 269.5t64.5 270.5t187.5 99.5t187.5 -99.5t64.5 -270.5t-64 -269.5t-188 -98.5zM330 27q103 0 157.5 86t54.5 244q0 159 -54.5 245.5t-157.5 86.5t-157.5 -86.5t-54.5 -245.5q0 -158 54.5 -244t157.5 -86z" />
    <glyph glyph-name="one.tf" horiz-adv-x="642" 
d="M379 39h162v-39h-381v39h180v636l-184 -131l-22 31l196 139q18 12 29 12q20 0 20 -16v-671z" />
    <glyph glyph-name="two.tf" horiz-adv-x="656" 
d="M172 39h384v-39h-425q0 87 12.5 136t50.5 95q28 34 72 67.5t94 67.5t72 52q41 34 57.5 64t16.5 66q0 61 -44 101t-116 40q-62 0 -111.5 -34.5t-75.5 -92.5l-35 18q30 66 87 106.5t136 40.5q94 0 147 -52t53 -126q0 -90 -87 -160q-11 -9 -105 -74.5t-131 -112.5
q-28 -34 -39 -67.5t-13 -95.5z" />
    <glyph glyph-name="three.tf" horiz-adv-x="656" 
d="M427 368q63 -17 99.5 -65.5t36.5 -112.5q0 -90 -68 -145.5t-170 -55.5q-164 0 -231 138l35 19q57 -118 198 -118q86 0 141 47t55 117q0 66 -47 110.5t-122 44.5h-119v38h112q67 0 116 47t49 110q0 61 -48 103.5t-128 42.5q-129 0 -195 -114l-33 21q32 56 90 94t140 38
q102 0 158 -57t56 -132q0 -56 -34 -101t-91 -69z" />
    <glyph glyph-name="four.tf" horiz-adv-x="649" 
d="M575 225v-38h-78v-187h-39v187h-350q-10 0 -17 8.5t-7 19.5q0 12 8 22l354 472q9 11 27 11q24 0 24 -19v-476h78zM129 225h329v440z" />
    <glyph glyph-name="five.tf" horiz-adv-x="658" 
d="M336 428q102 0 162 -59.5t60 -158.5q0 -102 -64 -162.5t-168 -60.5q-153 0 -217 127l32 21q61 -109 185 -109q88 0 140 50.5t52 134.5q0 81 -50.5 130.5t-134.5 49.5q-93 0 -165 -62l-31 14v338q0 33 32 33h346v-39h-340v-298q67 51 161 51z" />
    <glyph glyph-name="six.tf" horiz-adv-x="653" 
d="M349 437q101 0 161.5 -61t60.5 -158q0 -93 -60.5 -162.5t-166.5 -69.5q-122 0 -181.5 95.5t-59.5 243.5q0 108 30.5 197.5t96 147t156.5 57.5q103 0 166 -74l-29 -26q-54 60 -139 60q-107 0 -171 -93.5t-69 -243.5q90 87 205 87zM345 25q83 0 134.5 55t51.5 138
q0 82 -49 131.5t-136 49.5q-109 0 -202 -96q5 -130 56 -204t145 -74z" />
    <glyph glyph-name="seven.tf" horiz-adv-x="639" 
d="M515 714q15 0 20.5 -13t-2.5 -31l-292 -670h-45l298 675h-369v39h390z" />
    <glyph glyph-name="eight.tf" horiz-adv-x="648" 
d="M412 371q76 -21 118 -71t42 -114q0 -84 -69 -141t-175 -57t-175 57t-69 141q0 64 42 114t118 71q-65 22 -99 67.5t-34 102.5q0 78 61.5 131.5t155.5 53.5t155.5 -53.5t61.5 -131.5q0 -57 -33.5 -102t-99.5 -68zM151 540q0 -60 46 -105t131 -45t131 45t46 105
q0 61 -48 104.5t-129 43.5q-80 0 -128.5 -43.5t-48.5 -104.5zM328 26q93 0 148 47.5t55 115.5t-56 115.5t-147 47.5q-90 0 -146.5 -47.5t-56.5 -115.5t55 -115.5t148 -47.5z" />
    <glyph glyph-name="nine.tf" horiz-adv-x="660" 
d="M330 727q119 -1 177 -94.5t58 -240.5q0 -82 -14 -151t-44 -128t-85 -93t-131 -34q-90 0 -159 47l21 34q61 -41 137 -41q113 0 170 90t62 243q-101 -83 -205 -83q-96 0 -156.5 61.5t-60.5 156.5t62 164.5t168 68.5zM140 496q0 -81 48.5 -131.5t130.5 -50.5q95 0 204 90
q-2 132 -51 208t-143 76q-84 0 -136.5 -54.5t-52.5 -137.5z" />
    <glyph glyph-name="zero.dnom" horiz-adv-x="370" 
d="M185 -8q-71 0 -108 52.5t-37 142.5t37 143t108 53t108 -53t37 -143t-37 -142.5t-108 -52.5zM185 24q54 0 82.5 42t28.5 121t-28.5 121.5t-82.5 42.5t-82.5 -42.5t-28.5 -121.5t28.5 -121t82.5 -42z" />
    <glyph glyph-name="one.dnom" horiz-adv-x="280" 
d="M170 28h88v-31h-211v31h90v311l-95 -69l-18 24l117 85h13q16 0 16 -18v-333z" />
    <glyph glyph-name="two.dnom" horiz-adv-x="312" 
d="M101 110q-25 -31 -28 -81h198v-32h-232q-3 84 38 133q16 19 37.5 35.5t46.5 32.5t34 23q42 31 42 63q0 28 -21.5 47.5t-54.5 19.5q-31 0 -57 -16.5t-40 -43.5l-28 15q17 34 49.5 55.5t75.5 21.5q48 0 79 -28.5t31 -69.5q0 -50 -52 -85q-2 -1 -49.5 -33t-68.5 -57z" />
    <glyph glyph-name="three.dnom" horiz-adv-x="325" 
d="M217 194q31 -10 49.5 -35.5t18.5 -57.5q0 -52 -38.5 -81t-92.5 -29q-88 0 -125 67l27 18q30 -52 99 -52q40 0 68 20.5t28 57.5q0 32 -22.5 52.5t-60.5 20.5h-62v32h57q37 0 59 21.5t22 49.5q0 32 -23 52.5t-61 20.5q-62 0 -97 -54l-25 16q39 70 123 70q54 0 85.5 -30.5
t31.5 -73.5q0 -59 -61 -85z" />
    <glyph glyph-name="four.dnom" horiz-adv-x="317" 
d="M282 129v-30h-41v-102h-33v102h-166q-14 0 -19.5 11.5t3.5 23.5l173 239q10 7 21 7q21 0 21 -23v-228h41zM59 129h149v206z" />
    <glyph glyph-name="five.dnom" horiz-adv-x="317" 
d="M164 226q53 0 86.5 -32t33.5 -84q0 -56 -37.5 -88t-91.5 -32q-80 0 -120 64l26 18q34 -49 94 -49q43 0 69 24t26 63q0 38 -25 61.5t-64 23.5q-43 0 -83 -33l-26 17v174q0 22 25 22h184v-31h-176v-143q34 25 79 25z" />
    <glyph glyph-name="six.dnom" horiz-adv-x="331" 
d="M177 230q52 0 86 -33t34 -84q0 -50 -34 -86.5t-90 -36.5q-67 0 -100.5 50t-33.5 127q0 89 41 152t115 63q55 0 91 -40l-23 -22q-26 30 -68 30q-54 0 -86.5 -46.5t-36.5 -119.5q44 46 105 46zM173 22q40 0 65.5 26t25.5 64q0 39 -25 62.5t-65 23.5q-57 0 -101 -54
q5 -58 30 -90t70 -32z" />
    <glyph glyph-name="seven.dnom" horiz-adv-x="277" 
d="M227 375q16 0 22.5 -10.5t0.5 -27.5l-142 -340h-36l145 346h-190v32h200z" />
    <glyph glyph-name="eight.dnom" horiz-adv-x="349" 
d="M230 195q37 -11 59 -36.5t22 -60.5q0 -45 -36 -76.5t-100 -31.5q-65 0 -101.5 31.5t-36.5 76.5q0 36 22.5 61.5t59.5 36.5q-66 25 -66 86q0 41 33 70.5t89 29.5q55 0 88 -29.5t33 -70.5q0 -59 -66 -87zM86 281q0 -31 27 -51t62 -20t61 19t26 51q0 31 -24.5 51t-62.5 20
t-63.5 -20t-25.5 -50zM175 22q46 0 74 21.5t28 56.5q0 37 -30 57.5t-72 20.5q-45 0 -74.5 -21.5t-29.5 -56.5q0 -34 28.5 -56t75.5 -22z" />
    <glyph glyph-name="nine.dnom" horiz-adv-x="329" 
d="M161 382q65 0 96.5 -49t31.5 -131q0 -90 -37 -151t-110 -61q-59 0 -95 42l22 22q30 -32 73 -32q53 0 81.5 43.5t32.5 116.5q-46 -41 -102 -41q-52 0 -85.5 33t-33.5 84q0 50 34.5 87t91.5 37zM158 173q54 0 98 47q-6 130 -96 130q-41 0 -66.5 -26t-25.5 -66
q0 -38 24.5 -61.5t65.5 -23.5z" />
    <glyph glyph-name="acutecomb.loclPLK" horiz-adv-x="0" 
d="M-200 558l74 164l44 -1l-81 -163h-37z" />
    <glyph glyph-name="caron.alt" horiz-adv-x="252" 
d="M84 557l46 188l37 -7l-55 -186z" />
    <glyph glyph-name="acute.case" horiz-adv-x="284" 
d="M49 785l159 145l27 -33l-168 -135z" />
    <glyph glyph-name="breve.case" horiz-adv-x="400" 
d="M201 758q-72 0 -108.5 46t-39.5 107l34 1q2 -54 32 -89.5t82 -35.5q51 0 81 35.5t32 89.5l35 -1q-3 -61 -39.5 -107t-108.5 -46z" />
    <glyph glyph-name="caron.case" horiz-adv-x="431" 
d="M88 929l127 -118l128 118l22 -23l-129 -119q-10 -10 -21 -10t-20 10l-130 119z" />
    <glyph glyph-name="cedilla.case" horiz-adv-x="306" 
d="M143 -235q-59 0 -102 27l13 27q36 -23 87 -23q40 0 65 18t25 50q0 68 -110 62l1 28q72 6 107.5 -20.5t35.5 -70.5q0 -43 -33.5 -70.5t-88.5 -27.5z" />
    <glyph glyph-name="circumflex.case" horiz-adv-x="432" 
d="M89 768l-23 23l130 119q9 10 20 10t21 -10l129 -119l-22 -23l-128 118z" />
    <glyph glyph-name="dieresis.case" horiz-adv-x="308" 
d="M73 782q-17 0 -27.5 10.5t-10.5 28.5t10.5 28.5t27.5 10.5t27.5 -10.5t10.5 -28.5t-10.5 -28.5t-27.5 -10.5zM234 782q-18 0 -28.5 10.5t-10.5 28.5t10.5 28.5t28.5 10.5q17 0 27.5 -10.5t10.5 -28.5t-10.5 -28.5t-27.5 -10.5z" />
    <glyph glyph-name="dotaccent.case" horiz-adv-x="270" 
d="M135 780q-18 0 -28.5 11t-10.5 29t10.5 28.5t28.5 10.5q17 0 27.5 -10.5t10.5 -28.5t-10.5 -29t-27.5 -11z" />
    <glyph glyph-name="grave.case" horiz-adv-x="289" 
d="M238 786l-18 -23l-168 135l27 33z" />
    <glyph glyph-name="hungarumlaut.case" horiz-adv-x="361" 
d="M60 777l96 184l34 -19l-106 -180zM168 777l98 184l35 -19l-109 -180z" />
    <glyph glyph-name="macron.case" horiz-adv-x="411" 
d="M71 843h269v-35h-269v35z" />
    <glyph glyph-name="ogonek.case" horiz-adv-x="301" 
d="M133 -225q-41 0 -67 26.5t-26 69.5q0 44 31 84.5t94 65.5l18 -21q-53 -18 -81 -53t-28 -72q0 -30 17 -48.5t44 -18.5q32 0 60 25l17 -24q-34 -34 -79 -34z" />
    <glyph glyph-name="ring.case" horiz-adv-x="288" 
d="M145 744q-41 0 -68.5 27t-27.5 67q0 39 28 66t68 27t67.5 -27t27.5 -66q0 -40 -27.5 -67t-67.5 -27zM145 771q29 0 48 19.5t19 47.5t-19.5 47t-47.5 19q-29 0 -49 -19t-20 -47t20 -47.5t49 -19.5z" />
    <glyph glyph-name="tilde.case" horiz-adv-x="471" 
d="M305 767q-33 0 -75 35.5t-65 35.5q-49 0 -63 -65l-30 8q10 46 35.5 67.5t57.5 21.5q33 0 74 -35t66 -35q46 0 64 67l32 -8q-11 -46 -38 -69t-58 -23z" />
    <glyph glyph-name="NULL" horiz-adv-x="0" 
 />
    <glyph glyph-name="commaccent" horiz-adv-x="140" 
d="M82 -78q21 0 33 -15.5t12 -39.5q0 -28 -16.5 -57.5t-43.5 -51.5l-19 23q37 30 47 66q-7 -4 -16 -4q-18 0 -28 11t-10 28t12 28.5t29 11.5z" />
    <glyph glyph-name="commaccent.case" horiz-adv-x="138" 
d="M82 -78q21 0 33 -15.5t12 -39.5q0 -28 -16.5 -57.5t-43.5 -51.5l-19 23q37 30 47 66q-7 -4 -16 -4q-18 0 -28 11t-10 28t12 28.5t29 11.5z" />
    </font>
</defs>
</svg>
